<svg width="323" height="54" viewBox="0 0 323 54" fill="none" xmlns="http://www.w3.org/2000/svg">
<path d="M99.4004 25.4436H88.4102V0.455367H99.4004V25.4436Z" fill="white"/>
<path d="M128.754 25.4436L112.012 11.8471V25.4436H101.754V0.455367H112.195L128.937 14.0519V0.455367H139.194V25.4436H128.754Z" fill="white"/>
<path d="M141.17 13.2435V12.6555C141.17 3.68914 147.764 0.0878906 160.66 0.0878906H161.832C174.727 0.0878906 181.321 3.68914 181.321 12.6555V13.2435C181.321 22.2098 174.727 25.8111 161.832 25.8111H160.66C147.764 25.8111 141.17 22.2098 141.17 13.2435ZM152.527 13.0965C152.527 16.955 155.421 18.4616 160.55 18.4616H161.942C167.07 18.4616 169.965 16.955 169.965 13.0965V12.8025C169.965 8.94402 167.07 7.43737 161.942 7.43737H160.55C155.421 7.43737 152.527 8.94402 152.527 12.8025V13.0965Z" fill="white"/>
<path d="M194.02 11.3693C194.02 16.2935 196.255 18.4616 201.384 18.4616H202.263C207.392 18.4616 209.626 16.2935 209.626 11.3693V0.455367H220.617V11.6266C220.617 22.1363 214.938 25.8111 202.409 25.8111H201.237C188.708 25.8111 183.03 22.1363 183.03 11.6266V0.455367H194.02V11.3693Z" fill="white"/>
<path d="M222.161 0.455367H259.235V8.5398H246.193V25.4436H235.203V8.5398H222.161V0.455367Z" fill="white"/>
<path d="M125.081 53.4709H114.091V36.5671H99.4004V53.4709H88.4102V28.4827H125.081V53.4709Z" fill="white"/>
<path d="M162.536 37.9635C162.536 44.7986 158.287 47.0769 149.751 47.0769H138.431V53.4709H127.441V28.4827H149.751C158.287 28.4827 162.536 30.761 162.536 37.5961V37.9635ZM151.546 37.8166V37.7431C151.546 36.2364 150.447 35.8322 148.542 35.8322H138.431V39.7274H148.542C150.447 39.7274 151.546 39.3232 151.546 37.8166Z" fill="white"/>
<path d="M163.959 41.2708V40.6828C163.959 31.7165 170.553 28.1152 183.448 28.1152H184.621C197.516 28.1152 204.11 31.7165 204.11 40.6828V41.2708C204.11 50.2372 197.516 53.8384 184.621 53.8384H183.448C170.553 53.8384 163.959 50.2372 163.959 41.2708ZM175.316 41.1238C175.316 44.9823 178.21 46.4889 183.339 46.4889H184.731C189.859 46.4889 192.753 44.9823 192.753 41.1238V40.8298C192.753 36.9714 189.859 35.4647 184.731 35.4647H183.339C178.21 35.4647 175.316 36.9714 175.316 40.8298V41.1238Z" fill="white"/>
<path d="M206.075 53.4709V28.4827H238.313V35.8322H217.066V38.2208H235.163V43.7329H217.066V46.1215H238.313V53.4709H206.075Z" fill="white"/>
<path d="M261.559 53.4709L251.338 41.3076V53.4709H240.348V28.4827H251.338V39.3967L261.889 28.4827H275.627L262.805 40.2051L275.553 53.4709H261.559Z" fill="white"/>
<path d="M275.824 28.4827H312.898V36.5671H299.856V53.4709H288.866V36.5671H275.824V28.4827Z" fill="white"/>
<path d="M62.0926 42.8196C62.0926 47.257 62.0926 49.4757 60.966 51.0311C60.6022 51.5334 60.1618 51.9751 59.6611 52.3401C58.1105 53.4701 55.8986 53.4701 51.4749 53.4701H36.722C34.6003 53.4701 33.5394 53.4701 32.9888 52.8903C32.8148 52.7071 32.6798 52.4903 32.5918 52.2531C32.3135 51.5026 32.7784 50.5461 33.7081 48.633L41.6285 32.3357C42.42 30.7071 42.8158 29.8928 43.4791 29.3652C43.6968 29.1922 43.9331 29.044 44.1836 28.9236C44.947 28.5566 45.8501 28.5566 47.6563 28.5566H57.622C59.4846 28.5566 60.4159 28.5566 61.0688 29.0324C61.2796 29.1861 61.4651 29.3721 61.6182 29.5836C62.0926 30.2385 62.0926 31.1727 62.0926 33.0411V42.8196Z" fill="white"/>
<path d="M30.3952 49.0613C29.4718 50.9613 29.0101 51.9113 28.2361 52.5268C27.9822 52.7287 27.7065 52.9015 27.4143 53.042C26.5236 53.4701 25.47 53.4701 23.3628 53.4701H4.1198C2.52025 53.4701 1.72048 53.4701 1.34896 53.0383C1.23238 52.9027 1.14629 52.7436 1.09655 52.5717C0.938027 52.0239 1.37389 51.3512 2.24563 50.0059L13.5002 32.6376C14.6475 30.8671 15.2211 29.9818 16.0493 29.4175C16.322 29.2318 16.6123 29.0737 16.9162 28.9457C17.8392 28.5566 18.8918 28.5566 20.9969 28.5566H34.9956C37.1174 28.5566 38.1782 28.5566 38.7288 29.1365C38.9028 29.3197 39.0378 29.5365 39.1258 29.7736C39.4041 30.5242 38.9393 31.4807 38.0095 33.3938L30.3952 49.0613Z" fill="white" fill-opacity="0.5"/>
<path d="M64.7369 21.3618C63.5896 23.1324 63.016 24.0176 62.1878 24.5819C61.9152 24.7676 61.6248 24.9257 61.321 25.0538C60.398 25.4428 59.3454 25.4428 57.2403 25.4428H43.2415C41.1198 25.4428 40.0589 25.4428 39.5084 24.8629C39.3344 24.6797 39.1993 24.4629 39.1114 24.2258C38.833 23.4753 39.2979 22.5187 40.2276 20.6057L47.842 4.93815C48.7654 3.03814 49.2271 2.08813 50.001 1.47267C50.255 1.27073 50.5306 1.09791 50.8228 0.957435C51.7135 0.529297 52.7671 0.529297 54.8744 0.529297H74.1173C75.7169 0.529297 76.5167 0.529297 76.8882 0.961179C77.0048 1.0967 77.0909 1.25583 77.1406 1.42774C77.2991 1.97557 76.8633 2.64821 75.9915 3.99349L64.7369 21.3618Z" fill="white" fill-opacity="0.75"/>
<path d="M36.6086 21.6638C35.8171 23.2924 35.4213 24.1066 34.758 24.6342C34.5403 24.8073 34.304 24.9554 34.0535 25.0758C33.2901 25.4428 32.387 25.4428 30.5808 25.4428H20.6151C18.7525 25.4428 17.8212 25.4428 17.1683 24.967C16.9575 24.8133 16.7721 24.6273 16.6189 24.4158C16.1445 23.7609 16.1445 22.8267 16.1445 20.9584V11.1798C16.1445 6.74242 16.1445 4.52372 17.2711 2.96835C17.6349 2.46603 18.0753 2.02429 18.5761 1.65933C20.1266 0.529297 22.3385 0.529297 26.7622 0.529297H41.5151C43.6369 0.529297 44.6977 0.529297 45.2483 1.10914C45.4223 1.29237 45.5573 1.50914 45.6453 1.7463C45.9236 2.49681 45.4588 3.45335 44.529 5.36643L36.6086 21.6638Z" fill="white" fill-opacity="0.25"/>
</svg>
