<svg width="120" height="20" viewBox="0 0 120 20" fill="none" xmlns="http://www.w3.org/2000/svg">
<path d="M36.9287 9.42335H32.8457V0.168451H36.9287V9.42335Z" fill="black"/>
<path d="M47.834 9.42335L41.6141 4.3876V9.42335H37.8033V0.168451H41.6822L47.902 5.20421V0.168451H51.7129V9.42335H47.834Z" fill="black"/>
<path d="M52.447 4.90478V4.68702C52.447 1.36614 54.8968 0.0323486 59.6876 0.0323486H60.1231C64.9139 0.0323486 67.3637 1.36614 67.3637 4.68702V4.90478C67.3637 8.22566 64.9139 9.55946 60.1231 9.55946H59.6876C54.8968 9.55946 52.447 8.22566 52.447 4.90478ZM56.6661 4.85034C56.6661 6.27941 57.7413 6.83742 59.6467 6.83742H60.1639C62.0694 6.83742 63.1446 6.27941 63.1446 4.85034V4.74146C63.1446 3.3124 62.0694 2.75438 60.1639 2.75438H59.6467C57.7413 2.75438 56.6661 3.3124 56.6661 4.74146V4.85034Z" fill="black"/>
<path d="M72.0816 4.21067C72.0816 6.03443 72.9119 6.83742 74.8173 6.83742H75.1439C77.0493 6.83742 77.8796 6.03443 77.8796 4.21067V0.168451H81.9626V4.30594C81.9626 8.19844 79.853 9.55946 75.1984 9.55946H74.7628C70.1082 9.55946 67.9986 8.19844 67.9986 4.30594V0.168451H72.0816V4.21067Z" fill="black"/>
<path d="M82.5366 0.168451H96.31V3.16268H91.4648V9.42335H87.3818V3.16268H82.5366V0.168451Z" fill="black"/>
<path d="M46.4695 19.804H42.3864V13.5433H36.9287V19.804H32.8457V10.5491H46.4695V19.804Z" fill="black"/>
<path d="M60.3849 14.0605C60.3849 16.592 58.8061 17.4358 55.6349 17.4358H51.4294V19.804H47.3464V10.5491H55.6349C58.8061 10.5491 60.3849 11.3929 60.3849 13.9244V14.0605ZM56.3018 14.006V13.9788C56.3018 13.4208 55.8935 13.2711 55.1858 13.2711H51.4294V14.7138H55.1858C55.8935 14.7138 56.3018 14.5641 56.3018 14.006Z" fill="black"/>
<path d="M60.9134 15.2854V15.0676C60.9134 11.7468 63.3633 10.413 68.154 10.413H68.5896C73.3803 10.413 75.8302 11.7468 75.8302 15.0676V15.2854C75.8302 18.6063 73.3803 19.9401 68.5896 19.9401H68.154C63.3633 19.9401 60.9134 18.6063 60.9134 15.2854ZM65.1326 15.231C65.1326 16.66 66.2078 17.218 68.1132 17.218H68.6304C70.5358 17.218 71.611 16.66 71.611 15.231V15.1221C71.611 13.693 70.5358 13.135 68.6304 13.135H68.1132C66.2078 13.135 65.1326 13.693 65.1326 15.1221V15.231Z" fill="black"/>
<path d="M76.5603 19.804V10.5491H88.5373V13.2711H80.6434V14.1558H87.3668V16.1973H80.6434V17.0819H88.5373V19.804H76.5603Z" fill="black"/>
<path d="M97.1735 19.804L93.3763 15.299V19.804H89.2933V10.5491H93.3763V14.5913L97.296 10.5491H102.4L97.6363 14.8907L102.373 19.804H97.1735Z" fill="black"/>
<path d="M102.473 10.5491H116.247V13.5433H111.402V19.804H107.319V13.5433H102.473V10.5491Z" fill="black"/>
<path d="M23.0679 15.8592C23.0679 17.5027 23.0679 18.3245 22.6494 18.9005C22.5142 19.0866 22.3506 19.2502 22.1646 19.3853C21.5885 19.8039 20.7668 19.8039 19.1233 19.8039H13.6423C12.8541 19.8039 12.4599 19.8039 12.2554 19.5891C12.1907 19.5213 12.1406 19.441 12.1079 19.3531C12.0045 19.0752 12.1772 18.7209 12.5226 18.0123L15.4652 11.9763C15.7592 11.3731 15.9063 11.0715 16.1527 10.8761C16.2336 10.812 16.3214 10.7572 16.4144 10.7126C16.698 10.5767 17.0336 10.5767 17.7046 10.5767H21.407C22.099 10.5767 22.445 10.5767 22.6876 10.7529C22.7659 10.8098 22.8348 10.8787 22.8917 10.957C23.0679 11.1996 23.0679 11.5456 23.0679 12.2376V15.8592Z" fill="#071855"/>
<path d="M11.2914 18.171C10.9483 18.8747 10.7768 19.2265 10.4893 19.4545C10.3949 19.5293 10.2925 19.5933 10.1839 19.6453C9.85305 19.8039 9.46161 19.8039 8.67874 19.8039H1.52964C0.935385 19.8039 0.638255 19.8039 0.500231 19.6439C0.45692 19.5937 0.424935 19.5348 0.406455 19.4711C0.347562 19.2682 0.509494 19.0191 0.833358 18.5208L5.01463 12.0881C5.44086 11.4324 5.65398 11.1045 5.96166 10.8955C6.06295 10.8267 6.17084 10.7682 6.28372 10.7207C6.62663 10.5767 7.01768 10.5767 7.79977 10.5767H13.0005C13.7888 10.5767 14.1829 10.5767 14.3875 10.7914C14.4521 10.8593 14.5023 10.9396 14.535 11.0274C14.6384 11.3054 14.4657 11.6596 14.1202 12.3682L11.2914 18.171Z" fill="#1F65F0"/>
<path d="M24.0501 7.91181C23.6239 8.56755 23.4107 8.89542 23.1031 9.10441C23.0018 9.17321 22.8939 9.23176 22.781 9.27919C22.4381 9.42327 22.0471 9.42327 21.265 9.42327H16.0642C15.2759 9.42327 14.8818 9.42327 14.6773 9.20851C14.6126 9.14064 14.5624 9.06036 14.5298 8.97252C14.4264 8.69456 14.5991 8.34028 14.9445 7.63173L17.7733 1.82895C18.1164 1.12524 18.2879 0.773392 18.5755 0.545442C18.6698 0.47065 18.7722 0.406643 18.8808 0.354615C19.2117 0.196045 19.6031 0.196045 20.386 0.196045H27.5351C28.1293 0.196045 28.4265 0.196045 28.5645 0.356001C28.6078 0.406195 28.6398 0.465132 28.6583 0.528801C28.7172 0.731701 28.5552 0.980827 28.2314 1.47908L24.0501 7.91181Z" fill="#F83D6A"/>
<path d="M13.5988 8.02363C13.3048 8.62681 13.1578 8.9284 12.9113 9.12378C12.8304 9.18789 12.7427 9.24275 12.6496 9.28735C12.366 9.42327 12.0305 9.42327 11.3594 9.42327H7.65699C6.965 9.42327 6.61901 9.42327 6.37645 9.24704C6.29812 9.19013 6.22923 9.12124 6.17232 9.04291C5.99609 8.80035 5.99609 8.45436 5.99609 7.76237V4.14068C5.99609 2.4972 5.99609 1.67546 6.41463 1.0994C6.5498 0.913355 6.7134 0.749746 6.89945 0.614577C7.47551 0.196045 8.29725 0.196045 9.94073 0.196045H15.4217C16.21 0.196045 16.6041 0.196045 16.8086 0.410803C16.8733 0.478666 16.9234 0.558951 16.9561 0.646787C17.0595 0.924753 16.8868 1.27903 16.5414 1.98758L13.5988 8.02363Z" fill="#E1E9F5"/>
</svg>
