<svg width="120" height="20" viewBox="0 0 120 20" fill="none" xmlns="http://www.w3.org/2000/svg">
<path d="M36.9307 9.42421H32.8477V0.169305H36.9307V9.42421Z" fill="white"/>
<path d="M47.8359 9.42421L41.6161 4.38845V9.42421H37.8053V0.169305H41.6842L47.904 5.20506V0.169305H51.7148V9.42421H47.8359Z" fill="white"/>
<path d="M52.4489 4.90564V4.68788C52.4489 1.367 54.8988 0.0332031 59.6895 0.0332031H60.1251C64.9158 0.0332031 67.3657 1.367 67.3657 4.68788V4.90564C67.3657 8.22651 64.9158 9.56031 60.1251 9.56031H59.6895C54.8988 9.56031 52.4489 8.22651 52.4489 4.90564ZM56.6681 4.8512C56.6681 6.28026 57.7433 6.83828 59.6487 6.83828H60.1659C62.0713 6.83828 63.1465 6.28026 63.1465 4.8512V4.74232C63.1465 3.31325 62.0713 2.75523 60.1659 2.75523H59.6487C57.7433 2.75523 56.6681 3.31325 56.6681 4.74232V4.8512Z" fill="white"/>
<path d="M72.0836 4.21152C72.0836 6.03528 72.9138 6.83828 74.8192 6.83828H75.1459C77.0513 6.83828 77.8815 6.03528 77.8815 4.21152V0.169305H81.9646V4.30679C81.9646 8.19929 79.855 9.56031 75.2003 9.56031H74.7648C70.1101 9.56031 68.0005 8.19929 68.0005 4.30679V0.169305H72.0836V4.21152Z" fill="white"/>
<path d="M82.5385 0.169305H96.312V3.16354H91.4668V9.42421H87.3837V3.16354H82.5385V0.169305Z" fill="white"/>
<path d="M46.4714 19.8031H42.3884V13.5424H36.9307V19.8031H32.8477V10.5482H46.4714V19.8031Z" fill="white"/>
<path d="M60.3868 14.0596C60.3868 16.5911 58.8081 17.4349 55.6369 17.4349H51.4314V19.8031H47.3483V10.5482H55.6369C58.8081 10.5482 60.3868 11.392 60.3868 13.9235V14.0596ZM56.3038 14.0052V13.978C56.3038 13.42 55.8955 13.2702 55.1878 13.2702H51.4314V14.7129H55.1878C55.8955 14.7129 56.3038 14.5632 56.3038 14.0052Z" fill="white"/>
<path d="M60.9154 15.2845V15.0668C60.9154 11.7459 63.3652 10.4121 68.156 10.4121H68.5915C73.3823 10.4121 75.8321 11.7459 75.8321 15.0668V15.2845C75.8321 18.6054 73.3823 19.9392 68.5915 19.9392H68.156C63.3652 19.9392 60.9154 18.6054 60.9154 15.2845ZM65.1345 15.2301C65.1345 16.6592 66.2098 17.2172 68.1152 17.2172H68.6324C70.5378 17.2172 71.613 16.6592 71.613 15.2301V15.1212C71.613 13.6922 70.5378 13.1341 68.6324 13.1341H68.1152C66.2098 13.1341 65.1345 13.6922 65.1345 15.1212V15.2301Z" fill="white"/>
<path d="M76.5623 19.8031V10.5482H88.5392V13.2702H80.6453V14.1549H87.3688V16.1964H80.6453V17.0811H88.5392V19.8031H76.5623Z" fill="white"/>
<path d="M97.1755 19.8031L93.3783 15.2982V19.8031H89.2952V10.5482H93.3783V14.5904L97.298 10.5482H102.402L97.6382 14.8898L102.375 19.8031H97.1755Z" fill="white"/>
<path d="M102.475 10.5482H116.249V13.5424H111.404V19.8031H107.32V13.5424H102.475V10.5482Z" fill="white"/>
<path d="M23.0679 15.8588C23.0679 17.5022 23.0679 18.324 22.6494 18.9C22.5142 19.0861 22.3506 19.2497 22.1646 19.3849C21.5885 19.8034 20.7668 19.8034 19.1233 19.8034H13.6423C12.8541 19.8034 12.4599 19.8034 12.2554 19.5886C12.1907 19.5208 12.1406 19.4405 12.1079 19.3527C12.0045 19.0747 12.1772 18.7204 12.5226 18.0119L15.4652 11.9758C15.7592 11.3726 15.9063 11.071 16.1527 10.8757C16.2336 10.8115 16.3214 10.7567 16.4144 10.7121C16.698 10.5762 17.0336 10.5762 17.7046 10.5762H21.407C22.099 10.5762 22.445 10.5762 22.6876 10.7524C22.7659 10.8093 22.8348 10.8782 22.8917 10.9565C23.0679 11.1991 23.0679 11.5451 23.0679 12.2371V15.8588Z" fill="white"/>
<path d="M11.2914 18.1705C10.9483 18.8742 10.7768 19.226 10.4893 19.454C10.3949 19.5288 10.2925 19.5928 10.1839 19.6448C9.85305 19.8034 9.46161 19.8034 8.67874 19.8034H1.52964C0.935385 19.8034 0.638255 19.8034 0.500231 19.6434C0.45692 19.5932 0.424935 19.5343 0.406455 19.4706C0.347562 19.2677 0.509494 19.0186 0.833358 18.5204L5.01463 12.0876C5.44086 11.4319 5.65398 11.104 5.96166 10.895C6.06295 10.8262 6.17084 10.7677 6.28372 10.7202C6.62663 10.5762 7.01768 10.5762 7.79977 10.5762H13.0005C13.7888 10.5762 14.1829 10.5762 14.3875 10.7909C14.4521 10.8588 14.5023 10.9391 14.535 11.0269C14.6384 11.3049 14.4657 11.6592 14.1202 12.3677L11.2914 18.1705Z" fill="white" fill-opacity="0.5"/>
<path d="M24.0501 7.91107C23.6239 8.56682 23.4107 8.89469 23.1031 9.10368C23.0018 9.17248 22.8939 9.23102 22.781 9.27845C22.4381 9.42253 22.0471 9.42253 21.265 9.42253H16.0642C15.2759 9.42253 14.8818 9.42253 14.6773 9.20777C14.6126 9.13991 14.5624 9.05963 14.5298 8.97179C14.4264 8.69382 14.5991 8.33955 14.9445 7.631L17.7733 1.82822C18.1164 1.12451 18.2879 0.772659 18.5755 0.544709C18.6698 0.469917 18.7722 0.40591 18.8808 0.353882C19.2117 0.195312 19.6031 0.195312 20.386 0.195312H27.5351C28.1293 0.195312 28.4265 0.195312 28.5645 0.355269C28.6078 0.405462 28.6398 0.4644 28.6583 0.528069C28.7172 0.730968 28.5552 0.980095 28.2314 1.47835L24.0501 7.91107Z" fill="white" fill-opacity="0.75"/>
<path d="M13.5988 8.0229C13.3048 8.62608 13.1578 8.92766 12.9113 9.12305C12.8304 9.18716 12.7427 9.24202 12.6496 9.28662C12.366 9.42253 12.0305 9.42253 11.3594 9.42253H7.65699C6.965 9.42253 6.61901 9.42253 6.37645 9.24631C6.29812 9.1894 6.22923 9.12051 6.17232 9.04217C5.99609 8.79962 5.99609 8.45362 5.99609 7.76163V4.13995C5.99609 2.49647 5.99609 1.67473 6.41463 1.09867C6.5498 0.912623 6.7134 0.749014 6.89945 0.613845C7.47551 0.195312 8.29725 0.195312 9.94073 0.195312H15.4217C16.21 0.195312 16.6041 0.195312 16.8086 0.410071C16.8733 0.477934 16.9234 0.558218 16.9561 0.646055C17.0595 0.924021 16.8868 1.2783 16.5414 1.98684L13.5988 8.0229Z" fill="white" fill-opacity="0.25"/>
</svg>
