<svg width="120" height="20" viewBox="0 0 120 20" fill="none" xmlns="http://www.w3.org/2000/svg">
<path d="M36.9287 9.42421H32.8457V0.169305H36.9287V9.42421Z" fill="white"/>
<path d="M47.834 9.42421L41.6141 4.38845V9.42421H37.8033V0.169305H41.6822L47.902 5.20506V0.169305H51.7129V9.42421H47.834Z" fill="white"/>
<path d="M52.447 4.90564V4.68788C52.447 1.367 54.8968 0.0332031 59.6876 0.0332031H60.1231C64.9139 0.0332031 67.3637 1.367 67.3637 4.68788V4.90564C67.3637 8.22651 64.9139 9.56031 60.1231 9.56031H59.6876C54.8968 9.56031 52.447 8.22651 52.447 4.90564ZM56.6661 4.8512C56.6661 6.28026 57.7413 6.83828 59.6467 6.83828H60.1639C62.0694 6.83828 63.1446 6.28026 63.1446 4.8512V4.74232C63.1446 3.31325 62.0694 2.75523 60.1639 2.75523H59.6467C57.7413 2.75523 56.6661 3.31325 56.6661 4.74232V4.8512Z" fill="white"/>
<path d="M72.0816 4.21152C72.0816 6.03528 72.9119 6.83828 74.8173 6.83828H75.1439C77.0493 6.83828 77.8796 6.03528 77.8796 4.21152V0.169305H81.9626V4.30679C81.9626 8.19929 79.853 9.56031 75.1984 9.56031H74.7628C70.1082 9.56031 67.9986 8.19929 67.9986 4.30679V0.169305H72.0816V4.21152Z" fill="white"/>
<path d="M82.5366 0.169305H96.31V3.16354H91.4648V9.42421H87.3818V3.16354H82.5366V0.169305Z" fill="white"/>
<path d="M46.4695 19.8031H42.3864V13.5424H36.9287V19.8031H32.8457V10.5482H46.4695V19.8031Z" fill="white"/>
<path d="M60.3849 14.0596C60.3849 16.5911 58.8061 17.4349 55.6349 17.4349H51.4294V19.8031H47.3464V10.5482H55.6349C58.8061 10.5482 60.3849 11.392 60.3849 13.9235V14.0596ZM56.3018 14.0052V13.978C56.3018 13.42 55.8935 13.2702 55.1858 13.2702H51.4294V14.7129H55.1858C55.8935 14.7129 56.3018 14.5632 56.3018 14.0052Z" fill="white"/>
<path d="M60.9134 15.2845V15.0668C60.9134 11.7459 63.3633 10.4121 68.154 10.4121H68.5896C73.3803 10.4121 75.8302 11.7459 75.8302 15.0668V15.2845C75.8302 18.6054 73.3803 19.9392 68.5896 19.9392H68.154C63.3633 19.9392 60.9134 18.6054 60.9134 15.2845ZM65.1326 15.2301C65.1326 16.6592 66.2078 17.2172 68.1132 17.2172H68.6304C70.5358 17.2172 71.611 16.6592 71.611 15.2301V15.1212C71.611 13.6922 70.5358 13.1341 68.6304 13.1341H68.1132C66.2078 13.1341 65.1326 13.6922 65.1326 15.1212V15.2301Z" fill="white"/>
<path d="M76.5603 19.8031V10.5482H88.5373V13.2702H80.6434V14.1549H87.3668V16.1964H80.6434V17.0811H88.5373V19.8031H76.5603Z" fill="white"/>
<path d="M97.1735 19.8031L93.3763 15.2982V19.8031H89.2933V10.5482H93.3763V14.5904L97.296 10.5482H102.4L97.6363 14.8898L102.373 19.8031H97.1735Z" fill="white"/>
<path d="M102.473 10.5482H116.247V13.5424H111.402V19.8031H107.319V13.5424H102.473V10.5482Z" fill="white"/>
<path d="M23.0679 15.8588C23.0679 17.5022 23.0679 18.324 22.6494 18.9C22.5142 19.0861 22.3506 19.2497 22.1646 19.3849C21.5885 19.8034 20.7668 19.8034 19.1233 19.8034H13.6423C12.8541 19.8034 12.4599 19.8034 12.2554 19.5886C12.1907 19.5208 12.1406 19.4405 12.1079 19.3527C12.0045 19.0747 12.1772 18.7204 12.5226 18.0119L15.4652 11.9758C15.7592 11.3726 15.9063 11.071 16.1527 10.8757C16.2336 10.8115 16.3214 10.7567 16.4144 10.7121C16.698 10.5762 17.0336 10.5762 17.7046 10.5762H21.407C22.099 10.5762 22.445 10.5762 22.6876 10.7524C22.7659 10.8093 22.8348 10.8782 22.8917 10.9565C23.0679 11.1991 23.0679 11.5451 23.0679 12.2371V15.8588Z" fill="white"/>
<path d="M11.2914 18.1705C10.9483 18.8742 10.7768 19.226 10.4893 19.454C10.3949 19.5288 10.2925 19.5928 10.1839 19.6448C9.85305 19.8034 9.46161 19.8034 8.67874 19.8034H1.52964C0.935385 19.8034 0.638255 19.8034 0.500231 19.6434C0.45692 19.5932 0.424935 19.5343 0.406455 19.4706C0.347562 19.2677 0.509494 19.0186 0.833358 18.5204L5.01463 12.0876C5.44086 11.4319 5.65398 11.104 5.96166 10.895C6.06295 10.8262 6.17084 10.7677 6.28372 10.7202C6.62663 10.5762 7.01768 10.5762 7.79977 10.5762H13.0005C13.7888 10.5762 14.1829 10.5762 14.3875 10.7909C14.4521 10.8588 14.5023 10.9391 14.535 11.0269C14.6384 11.3049 14.4657 11.6592 14.1202 12.3677L11.2914 18.1705Z" fill="white" fill-opacity="0.5"/>
<path d="M24.0501 7.91107C23.6239 8.56682 23.4107 8.89469 23.1031 9.10368C23.0018 9.17248 22.8939 9.23102 22.781 9.27845C22.4381 9.42253 22.0471 9.42253 21.265 9.42253H16.0642C15.2759 9.42253 14.8818 9.42253 14.6773 9.20777C14.6126 9.13991 14.5624 9.05963 14.5298 8.97179C14.4264 8.69382 14.5991 8.33955 14.9445 7.631L17.7733 1.82822C18.1164 1.12451 18.2879 0.772659 18.5755 0.544709C18.6698 0.469917 18.7722 0.40591 18.8808 0.353882C19.2117 0.195312 19.6031 0.195312 20.386 0.195312H27.5351C28.1293 0.195312 28.4265 0.195312 28.5645 0.355269C28.6078 0.405462 28.6398 0.4644 28.6583 0.528069C28.7172 0.730968 28.5552 0.980095 28.2314 1.47835L24.0501 7.91107Z" fill="white" fill-opacity="0.75"/>
<path d="M13.5988 8.0229C13.3048 8.62608 13.1578 8.92766 12.9113 9.12305C12.8304 9.18716 12.7427 9.24202 12.6496 9.28662C12.366 9.42253 12.0305 9.42253 11.3594 9.42253H7.65699C6.965 9.42253 6.61901 9.42253 6.37645 9.24631C6.29812 9.1894 6.22923 9.12051 6.17232 9.04217C5.99609 8.79962 5.99609 8.45362 5.99609 7.76163V4.13995C5.99609 2.49647 5.99609 1.67473 6.41463 1.09867C6.5498 0.912623 6.7134 0.749014 6.89945 0.613845C7.47551 0.195312 8.29725 0.195312 9.94073 0.195312H15.4217C16.21 0.195312 16.6041 0.195312 16.8086 0.410071C16.8733 0.477934 16.9234 0.558218 16.9561 0.646055C17.0595 0.924021 16.8868 1.2783 16.5414 1.98684L13.5988 8.0229Z" fill="white" fill-opacity="0.25"/>
</svg>
