<svg width="13" height="13" viewBox="0 0 13 13" fill="none" xmlns="http://www.w3.org/2000/svg">
<path d="M12.7213 8.38808C12.3175 9.70619 11.5083 10.8634 10.4088 11.695C9.44345 12.4215 8.29473 12.8646 7.09155 12.9746C5.88837 13.0845 4.67836 12.8569 3.59733 12.3174C2.51631 11.7779 1.60705 10.9477 0.971618 9.9201C0.336188 8.89251 -0.00026201 7.70814 3.05885e-05 6.49995C-0.00431339 5.08974 0.45413 3.71704 1.30503 2.59245C2.13662 1.49295 3.2938 0.683731 4.61191 0.279953C4.69878 0.253203 4.7913 0.250642 4.87952 0.272544C4.96774 0.294446 5.04832 0.339984 5.1126 0.404259C5.17688 0.468534 5.22241 0.549115 5.24432 0.637336C5.26622 0.725557 5.26366 0.818079 5.23691 0.904953C4.94868 1.85835 4.92452 2.87207 5.16698 3.83812C5.40945 4.80416 5.90947 5.68633 6.61375 6.39061C7.31803 7.09489 8.2002 7.59491 9.16624 7.83738C10.1323 8.07984 11.146 8.05568 12.0994 7.76745C12.1863 7.7407 12.2788 7.73814 12.367 7.76004C12.4552 7.78195 12.5358 7.82748 12.6001 7.89176C12.6644 7.95603 12.7099 8.03662 12.7318 8.12484C12.7537 8.21306 12.7512 8.30558 12.7244 8.39245L12.7213 8.38808Z" fill="black" />
</svg>
