<svg width="100" height="20" viewBox="0 0 100 20" fill="none" xmlns="http://www.w3.org/2000/svg">
<g clip-path="url(#clip0_843_18395)">
<path fill-rule="evenodd" clip-rule="evenodd" d="M31.555 0.647311C31.8623 0.91147 31.8972 1.37472 31.6331 1.682C28.0544 5.84489 25.996 8.92134 25.0245 11.0225C24.5356 12.0799 24.351 12.8297 24.3453 13.3152C24.3399 13.7759 24.4842 13.8702 24.5506 13.9042C24.6931 13.9771 25.0365 14.0277 25.6716 13.8391C26.2801 13.6584 27.041 13.291 27.9102 12.7233C29.6445 11.5905 31.7165 9.7216 33.7321 7.20208C33.9852 6.88566 34.447 6.83436 34.7634 7.0875C35.0798 7.34064 35.1311 7.80236 34.878 8.11879C33.1905 10.2281 32.447 11.6716 32.2612 12.5503C32.1698 12.9822 32.2337 13.1791 32.274 13.2494C32.301 13.2966 32.3634 13.3714 32.5813 13.4075C33.0838 13.4906 34.013 13.2845 35.1941 12.6422C36.3382 12.0201 37.602 11.0509 38.7336 9.80056C38.7519 9.78026 38.7712 9.76123 38.7912 9.74347C38.9282 9.60174 39.0758 9.46273 39.2339 9.32717C40.0811 8.60071 41.1416 7.97444 42.1454 7.59996C42.6479 7.4125 43.1588 7.27961 43.6378 7.23782C44.1074 7.19686 44.6132 7.23777 45.0491 7.47048C45.4884 7.70501 45.8416 8.04184 46.0441 8.48886C46.2403 8.92207 46.2646 9.39191 46.1735 9.85402C46.4479 9.55199 46.7555 9.23607 47.0976 8.90614C47.2547 8.7546 47.462 8.68713 47.6637 8.70273C47.9962 8.71693 48.2875 8.9575 48.3525 9.29854C48.3972 9.53259 48.3359 9.73038 48.285 9.84873C48.2316 9.97279 48.1594 10.0794 48.0942 10.1636C47.9636 10.3321 47.7894 10.5014 47.6082 10.6605C47.4214 10.8245 47.2001 11.001 46.9579 11.1839C46.6959 11.4926 46.4836 11.7738 46.3157 12.0278C45.9391 12.5973 45.825 12.9709 45.8141 13.1757C45.8065 13.3197 45.8426 13.342 45.8811 13.3658L45.8841 13.3676C45.9813 13.428 46.2186 13.5001 46.6567 13.4696C47.5159 13.4099 48.7854 12.9799 50.1527 12.1311C50.7036 11.7891 51.2618 11.3843 51.8064 10.9182C51.8247 10.8927 51.8432 10.8671 51.862 10.8414C52.3829 10.1296 53.1245 9.31617 54.1145 8.39795C54.1318 8.38194 54.1496 8.36691 54.168 8.35288C54.4184 8.14817 54.7842 8.12764 55.0596 8.32516C55.3889 8.5613 55.4645 9.01968 55.2283 9.34899C54.5261 10.3282 53.7316 11.1825 52.9041 11.9087C52.5495 12.4271 52.3928 12.8043 52.3463 13.0523C52.3215 13.1849 52.3327 13.2563 52.341 13.2856C52.3474 13.3084 52.3549 13.3194 52.3701 13.3327C52.4176 13.3744 52.588 13.4658 52.9941 13.4639C53.7908 13.4601 55.0418 13.0957 56.4502 12.3062C57.2332 11.8674 58.044 11.3086 58.827 10.6352C59.2273 10.0962 59.806 9.48797 60.5721 8.7908C60.7186 8.65743 60.9044 8.5945 61.088 8.60005C61.2697 8.58766 61.4563 8.6425 61.6074 8.76828C61.9187 9.0276 61.9609 9.49024 61.7016 9.80162C61.1403 10.4756 60.5384 11.086 59.9182 11.631C59.6539 12.0115 59.5846 12.243 59.5764 12.3623C59.5713 12.4362 59.5815 12.4969 59.6962 12.6008C59.8419 12.733 60.1087 12.8815 60.5478 13.0425C61.0884 13.2408 61.5542 13.5072 61.8737 13.8842C61.9704 13.9983 62.0502 14.1184 62.1136 14.2434L62.1193 14.2409C62.6086 14.0277 63.1149 13.8071 63.6404 13.5659C65.3299 12.7904 67.3517 11.7484 69.9773 9.94163C69.9927 9.93105 70.0083 9.92115 70.0241 9.9119C70.4158 9.60582 70.8726 9.31329 71.3944 9.04151C72.8647 8.27574 74.2332 7.85978 75.3852 7.70707C76.5101 7.55795 77.5157 7.64932 78.1962 8.00495C78.7381 8.28821 79.1598 8.70198 79.3421 9.25613C79.418 9.48687 79.4451 9.71977 79.4333 9.94943C79.5709 9.91938 79.7186 9.92853 79.8593 9.98425C80.1529 10.1004 80.3297 10.3849 80.323 10.683C80.3221 10.8207 80.2827 10.9578 80.2056 11.0769C80.0628 11.3396 79.836 11.5535 79.6316 11.7191C79.5982 11.7461 79.5636 11.7733 79.5279 11.8005C79.3263 12.0484 79.2223 12.2418 79.1792 12.3826C79.1474 12.4865 79.1547 12.5423 79.1619 12.5702C79.1694 12.599 79.1903 12.6495 79.2634 12.7214C79.4295 12.885 79.7842 13.0796 80.4161 13.2537C81.0293 13.4225 81.8232 13.5509 82.7821 13.6401C86.6361 13.9987 92.7351 13.6919 99.218 13.2645C99.6223 13.2378 99.9717 13.544 99.9984 13.9484C100.025 14.3527 99.7189 14.7021 99.3145 14.7288C92.8633 15.1541 86.6394 15.4728 82.6462 15.1013C81.6432 15.0079 80.7551 14.8691 80.0264 14.6684C79.3164 14.4729 78.6692 14.1956 78.234 13.7673C78.0065 13.5433 77.8268 13.2679 77.7414 12.9385C77.7387 12.9279 77.736 12.9173 77.7335 12.9066C77.7304 12.8937 77.7275 12.8807 77.7247 12.8678C77.1429 13.1627 76.4766 13.4747 75.7518 13.7994C75.7131 13.8167 75.6736 13.8305 75.6339 13.8407C74.3856 14.4377 73.1709 14.786 72.1046 14.9073C70.9123 15.0429 69.7734 14.9076 69.0235 14.3612C68.4884 13.9714 68.2535 13.4004 68.2613 12.7922C66.723 13.7134 65.4122 14.3673 64.2525 14.8996C63.6592 15.1719 63.1197 15.4067 62.6169 15.6256C62.4548 15.6962 62.2964 15.7651 62.1413 15.8331C62.0401 16.0968 61.8977 16.3516 61.7348 16.5942C61.4534 17.0131 61.0768 17.4453 60.6387 17.8864C59.9443 18.5857 59.2433 19.0528 58.63 19.3045C58.3252 19.4296 58.0192 19.5108 57.7322 19.5271C57.4643 19.5424 57.1049 19.5059 56.8123 19.2678C56.4668 18.9867 56.3895 18.5749 56.4595 18.225C56.5223 17.9108 56.7002 17.6211 56.9087 17.3688C57.3338 16.8546 58.0742 16.2719 59.1694 15.6487C59.6817 15.3572 60.2113 15.0962 60.7623 14.8427C60.7597 14.8395 60.7571 14.8363 60.7543 14.8331C60.6641 14.7267 60.4617 14.574 60.0424 14.4202C59.5505 14.2398 59.0689 14.0129 58.7104 13.6879C58.4849 13.4833 58.3062 13.2368 58.2038 12.9499C57.8567 13.1821 57.5101 13.3944 57.1677 13.5863C55.6493 14.4374 54.1458 14.9259 53.001 14.9313C52.4364 14.9339 51.8393 14.8189 51.4027 14.4361C51.0844 14.157 50.919 13.7982 50.8759 13.4092C49.4021 14.3155 47.9215 14.8527 46.7584 14.9335C46.1788 14.9738 45.582 14.9073 45.1103 14.6145C44.5808 14.2859 44.3148 13.7378 44.3488 13.0979C44.3508 13.0596 44.3539 13.0211 44.358 12.9823C43.8788 13.3027 43.4434 13.5951 43.1028 13.8371C43.0502 13.8745 42.9943 13.904 42.9366 13.9258C42.2919 14.3395 41.6233 14.6334 40.9865 14.7908C39.9172 15.055 38.6604 14.9794 37.9802 14.0153C37.7345 13.6669 37.5853 13.2819 37.5294 12.8771C36.98 13.2877 36.4294 13.6409 35.8952 13.9314C34.6359 14.6162 33.3415 15.0206 32.3418 14.8552C31.8086 14.767 31.3004 14.5027 31.0003 13.9782C30.7332 13.5115 30.6977 12.9528 30.8005 12.3752C30.0792 12.9903 29.3776 13.5176 28.7127 13.9519C27.7706 14.5673 26.8783 15.0116 26.0893 15.2459C25.3269 15.4723 24.5284 15.5412 23.8822 15.2106C23.1598 14.841 22.8685 14.1099 22.878 13.298C22.8845 12.745 23.0251 12.1015 23.2902 11.3741C22.397 12.1904 21.4741 12.8726 20.4339 13.4222C18.5134 14.4368 16.255 14.9676 13.1498 15.1427C10.0533 15.3173 6.06914 15.14 0.675209 14.7082C0.271279 14.6758 -0.0299578 14.3222 0.00237787 13.9183C0.0347135 13.5143 0.388377 13.2131 0.792307 13.2454C6.17867 13.6766 10.0777 13.8461 13.0672 13.6776C16.0478 13.5095 18.078 13.0071 19.7484 12.1247C21.4233 11.2398 22.7987 9.94093 24.4266 8.06432C25.1791 7.19691 25.9751 6.21874 26.8776 5.10969L26.8779 5.10933L26.8783 5.10872L27.1028 4.83295C28.0955 3.61347 29.2115 2.24798 30.5165 0.729854L30.5203 0.725401C30.7844 0.418115 31.2477 0.383153 31.555 0.647311ZM39.812 10.7958C39.7648 10.8478 39.7175 10.8994 39.6699 10.9505C38.8005 11.9441 38.8995 12.7727 39.1793 13.1693C39.3237 13.374 39.7555 13.5834 40.6345 13.3662C41.4608 13.162 42.4483 12.615 43.2968 11.7509C44.1937 10.8376 44.6228 10.097 44.73 9.58858C44.7803 9.34976 44.7532 9.19557 44.7073 9.09427C44.6624 8.99512 44.5683 8.8773 44.358 8.76497C44.2697 8.71787 44.0853 8.6718 43.7654 8.69971C43.4549 8.72679 43.077 8.81863 42.6583 8.97484C41.8197 9.28768 40.9083 9.82444 40.1891 10.4411C40.0492 10.5611 39.9239 10.6795 39.812 10.7958ZM72.0723 10.343C73.4086 9.647 74.614 9.28958 75.578 9.16179C76.5691 9.0304 77.2216 9.1514 77.5164 9.30548C77.8211 9.46472 77.9167 9.61922 77.9481 9.71464C77.9801 9.81181 77.9881 9.97781 77.8614 10.2425C77.5929 10.8031 76.8319 11.5504 75.5107 12.2584C74.2068 12.957 72.9596 13.3331 71.9388 13.4492C70.8822 13.5694 70.1954 13.3995 69.8876 13.1752C69.776 13.0939 69.6051 12.8607 69.8504 12.3184C70.0989 11.7689 70.7578 11.0276 72.0723 10.343Z" fill="white"/>
</g>
<defs>
<clipPath id="clip0_843_18395">
<rect width="100" height="20" fill="white"/>
</clipPath>
</defs>
</svg>
