<svg width="24" height="24" viewBox="0 0 24 24" fill="none" xmlns="http://www.w3.org/2000/svg">
<path d="M7.32761 3.01517C8.13097 2.91542 9.03475 3.3144 9.43643 4.01262L9.93853 4.91032C10.4406 5.80802 10.1394 6.80547 9.43643 7.40394L8.83391 7.80292C8.03055 8.50113 7.72929 9.59832 8.33181 10.496C9.03475 11.4935 9.73769 12.4909 10.6415 13.3886C11.5453 14.2863 12.5495 15.0843 13.5537 15.6828C14.4574 16.2812 15.5621 15.982 16.1646 15.184L16.5663 14.6853C17.1688 13.8873 18.2734 13.6879 19.0768 14.1866L19.9805 14.6853C20.6835 15.0843 21.0852 15.8822 20.9847 16.7799L20.6835 18.3759L20.4826 19.3733C20.2818 20.3708 19.2776 21.1687 18.2734 20.9692C16.3654 20.7697 14.5579 20.1713 12.8507 19.3733C11.0432 18.5754 9.43643 17.3784 7.93013 15.982C6.42383 14.5856 5.31921 12.8899 4.51585 11.0945C3.81291 9.39883 3.21039 7.50368 3.00955 5.60853C2.90913 4.61108 3.61207 3.61364 4.61627 3.41415L7.32761 3.01517Z" stroke="#1F65F0" stroke-width="1.5" stroke-linecap="round" stroke-linejoin="round"/>
</svg>
