<svg width="25" height="24" viewBox="0 0 25 24" fill="none" xmlns="http://www.w3.org/2000/svg">
<path fill-rule="evenodd" clip-rule="evenodd" d="M15.8016 14.0655H15.1506L14.9198 13.843C15.9087 12.6893 16.4197 11.1152 16.1395 9.44235C15.7522 7.15138 13.8403 5.32191 11.5328 5.04172C8.04695 4.61319 5.11319 7.54695 5.54172 11.0328C5.82191 13.3403 7.65138 15.2522 9.94235 15.6395C11.6152 15.9197 13.1893 15.4087 14.343 14.4198L14.5655 14.6506V15.3016L18.0679 18.804C18.4057 19.1419 18.9579 19.1419 19.2957 18.804C19.6336 18.4661 19.6336 17.914 19.2957 17.5761L15.8016 14.0655ZM10.857 14.0656C8.80499 14.0656 7.14858 12.4092 7.14858 10.3572C7.14858 8.3052 8.80499 6.64878 10.857 6.64878C12.909 6.64878 14.5654 8.3052 14.5654 10.3572C14.5654 12.4092 12.909 14.0656 10.857 14.0656Z" fill="black"/>
</svg>
