<svg width="94" height="24" viewBox="0 0 94 24" fill="none" xmlns="http://www.w3.org/2000/svg">
<path fill-rule="evenodd" clip-rule="evenodd" d="M8.88128 0.188976C8.88128 0.292913 8.58364 0.377953 8.21986 0.377953C7.85608 0.377953 7.55844 0.462992 7.55844 0.566929C7.55844 0.670866 7.34584 0.755906 7.086 0.755906C6.82616 0.755906 6.61356 0.840945 6.61356 0.944882C6.61356 1.04882 6.44348 1.13386 6.23561 1.13386C6.02773 1.13386 5.85765 1.2189 5.85765 1.32283C5.85765 1.42677 5.73009 1.51181 5.57419 1.51181C5.41828 1.51181 5.29072 1.59685 5.29072 1.70079C5.29072 1.80472 5.16184 1.88976 5.00424 1.88976C4.63082 1.88976 1.88915 4.63143 1.88915 5.00485C1.88915 5.16246 1.8198 5.29134 1.73532 5.29134C1.51498 5.29134 0.755291 6.77027 0.755291 7.19906C0.755291 7.3971 0.670252 7.55906 0.566315 7.55906C0.462378 7.55906 0.377339 7.80907 0.377339 8.11483C0.377339 8.4206 0.292299 8.72315 0.188362 8.7874C-0.0627874 8.94255 -0.0627874 13.7346 0.188362 13.8898C0.292299 13.954 0.377339 14.2991 0.377339 14.6568C0.377339 15.0146 0.462378 15.3071 0.566315 15.3071C0.670252 15.3071 0.755291 15.4265 0.755291 15.5726C0.755291 15.9188 1.51271 17.3769 1.93639 17.8466C2.11819 18.048 2.2671 18.2838 2.2671 18.3704C2.2671 18.6206 4.2043 20.4765 4.77387 20.7721C5.05809 20.9195 5.29072 21.1109 5.29072 21.1973C5.29072 21.2837 5.4608 21.3543 5.66868 21.3543C5.87655 21.3543 6.04663 21.4394 6.04663 21.5433C6.04663 21.6472 6.21671 21.7323 6.42458 21.7323C6.63246 21.7323 6.80254 21.8173 6.80254 21.9213C6.80254 22.0252 7.01513 22.1102 7.27498 22.1102C7.53482 22.1102 7.74742 22.1953 7.74742 22.2992C7.74742 22.4031 8.08247 22.4882 8.49217 22.4882C8.90187 22.4882 9.28946 22.5732 9.35372 22.6772C9.41797 22.7811 9.63548 22.8661 9.83731 22.8661C10.1189 22.8661 10.2041 22.9979 10.2041 23.4331V24H11.4325C12.6461 24 12.6608 23.9938 12.6623 23.4803C12.664 22.8758 13.3058 22.4882 14.3047 22.4882C14.6479 22.4882 14.9285 22.4031 14.9285 22.2992C14.9285 22.1953 15.0935 22.1102 15.2953 22.1102C15.4971 22.1102 15.7147 22.0252 15.7789 21.9213C15.8432 21.8173 16.0448 21.7323 16.2268 21.7323C16.409 21.7323 16.7406 21.5622 16.9638 21.3543C17.1868 21.1465 17.4619 20.9764 17.5749 20.9764C17.688 20.9764 17.993 20.7638 18.2528 20.5039C18.5126 20.2441 18.7935 20.0315 18.8766 20.0315C19.1213 20.0315 19.8419 19.3449 19.8419 19.1117C19.8419 18.994 19.9269 18.8976 20.0309 18.8976C20.1348 18.8976 20.2199 18.7888 20.2199 18.6559C20.2199 18.5229 20.3899 18.2916 20.5978 18.1417C20.8057 17.9919 20.9758 17.718 20.9758 17.533C20.9758 17.3482 21.0608 17.1968 21.1647 17.1968C21.2687 17.1968 21.3537 17.0693 21.3537 16.9134C21.3537 16.7575 21.4388 16.6299 21.5427 16.6299C21.6466 16.6299 21.7317 16.4598 21.7317 16.252C21.7317 16.0441 21.8167 15.874 21.9206 15.874C22.0246 15.874 22.1096 15.6665 22.1096 15.4127C22.1096 15.1589 22.1947 14.8989 22.2986 14.8346C22.7656 14.5461 22.3978 14.3622 21.3537 14.3622C20.4718 14.3622 20.2199 14.4251 20.2199 14.6457C20.2199 14.8016 20.1348 14.9291 20.0309 14.9291C19.9269 14.9291 19.8419 15.0992 19.8419 15.3071C19.8419 15.515 19.7569 15.685 19.6529 15.685C19.549 15.685 19.464 15.8551 19.464 16.063C19.464 16.2709 19.3789 16.4409 19.275 16.4409C19.171 16.4409 19.086 16.5685 19.086 16.7244C19.086 16.8803 19.0153 17.0079 18.929 17.0079C18.8426 17.0079 18.6674 17.1991 18.5395 17.4331C18.4117 17.6668 17.9083 18.1553 17.4209 18.5186C16.9336 18.8816 16.4923 19.2217 16.4403 19.2745C16.1903 19.5277 14.663 20.2205 14.355 20.2205C14.163 20.2205 13.9534 20.3055 13.8891 20.4094C13.8249 20.5134 13.5223 20.5984 13.2166 20.5984H12.6608V11.4331V2.26772H13.3249C13.69 2.26772 14.1365 2.34425 14.317 2.43761C14.4975 2.53115 15.0491 2.80724 15.5427 3.0514C16.0363 3.29556 16.4403 3.55937 16.4403 3.63742C16.4403 3.71565 16.5624 3.77953 16.7115 3.77953C17.0645 3.77953 19.086 5.80101 19.086 6.15402C19.086 6.30312 19.171 6.4252 19.275 6.4252C19.3789 6.4252 19.464 6.55276 19.464 6.70866C19.464 6.86457 19.549 6.99213 19.6529 6.99213C19.7569 6.99213 19.8419 7.1622 19.8419 7.37008C19.8419 7.57795 19.9269 7.74803 20.0309 7.74803C20.1348 7.74803 20.2199 7.96063 20.2199 8.22047C20.2199 8.67194 20.2703 8.69291 21.3537 8.69291C22.2149 8.69291 22.4876 8.62753 22.4876 8.4206C22.4876 8.27074 22.4025 8.09575 22.2986 8.0315C22.1947 7.96724 22.1096 7.66469 22.1096 7.35893C22.1096 7.05317 22.0246 6.80315 21.9206 6.80315C21.8167 6.80315 21.7317 6.63307 21.7317 6.4252C21.7317 6.21732 21.6466 6.04724 21.5427 6.04724C21.4388 6.04724 21.3537 5.89587 21.3537 5.71106C21.3537 5.52605 21.1836 5.25222 20.9758 5.10236C20.7679 4.9525 20.5978 4.7212 20.5978 4.58816C20.5978 4.45531 20.5128 4.34646 20.4088 4.34646C20.3049 4.34646 20.2199 4.25915 20.2199 4.15257C20.2199 3.86986 18.5727 2.26772 18.2823 2.26772C18.1466 2.26772 17.913 2.09764 17.7632 1.88976C17.6133 1.68189 17.3395 1.51181 17.1545 1.51181C16.9697 1.51181 16.8183 1.42677 16.8183 1.32283C16.8183 1.2189 16.6482 1.13386 16.4403 1.13386C16.2325 1.13386 16.0624 1.04882 16.0624 0.944882C16.0624 0.840945 15.8974 0.755906 15.6956 0.755906C15.4937 0.755906 15.2762 0.670866 15.212 0.566929C15.1477 0.462992 14.8027 0.377953 14.4449 0.377953C14.0872 0.377953 13.7947 0.292913 13.7947 0.188976C13.7947 0.0727559 12.8498 0 11.338 0C9.82616 0 8.88128 0.0727559 8.88128 0.188976ZM33.4482 0.188976C33.4482 0.292913 33.108 0.377953 32.6923 0.377953C32.2766 0.377953 31.9364 0.462992 31.9364 0.566929C31.9364 0.670866 31.7663 0.755906 31.5584 0.755906C31.3506 0.755906 31.1805 0.840945 31.1805 0.944882C31.1805 1.04882 31.0104 1.13386 30.8025 1.13386C30.5947 1.13386 30.4246 1.2189 30.4246 1.32283C30.4246 1.42677 30.2545 1.51181 30.0466 1.51181C29.8388 1.51181 29.6687 1.59685 29.6687 1.70079C29.6687 1.80472 29.5411 1.88976 29.3852 1.88976C29.2293 1.88976 29.1017 1.9748 29.1017 2.07874C29.1017 2.18268 29.0148 2.26772 28.9086 2.26772C28.6312 2.26772 26.7891 4.16239 26.4714 4.77449C26.324 5.05871 26.1325 5.29134 26.0462 5.29134C25.9598 5.29134 25.8891 5.46142 25.8891 5.66929C25.8891 5.87717 25.8041 6.04724 25.7002 6.04724C25.5962 6.04724 25.5112 6.21732 25.5112 6.4252C25.5112 6.63307 25.4262 6.80315 25.3222 6.80315C25.2183 6.80315 25.1332 7.01575 25.1332 7.27559C25.1332 7.53543 25.0482 7.74803 24.9443 7.74803C24.8403 7.74803 24.7553 7.96479 24.7553 8.22992C24.7553 8.69707 24.7884 8.71011 25.8408 8.65512C26.8214 8.60391 26.9374 8.55269 27.0404 8.12598C27.2483 7.26444 27.4431 6.80315 27.5992 6.80315C27.684 6.80315 27.809 6.62835 27.8766 6.4148C28.0427 5.89172 30.0285 3.77953 30.3541 3.77953C30.4968 3.77953 30.6136 3.69449 30.6136 3.59055C30.6136 3.48661 30.7411 3.40157 30.897 3.40157C31.0529 3.40157 31.1805 3.31654 31.1805 3.2126C31.1805 3.10866 31.3506 3.02362 31.5584 3.02362C31.7663 3.02362 31.9364 2.93858 31.9364 2.83465C31.9364 2.73071 32.1014 2.64567 32.3032 2.64567C32.505 2.64567 32.7171 2.5697 32.7745 2.47672C32.9236 2.23521 34.2714 2.04246 35.8104 2.04246C37.3494 2.04246 38.6972 2.23521 38.8463 2.47672C38.9038 2.5697 39.1158 2.64567 39.3176 2.64567C39.5195 2.64567 39.6844 2.73071 39.6844 2.83465C39.6844 2.93858 39.8545 3.02362 40.0624 3.02362C40.2703 3.02362 40.4403 3.10866 40.4403 3.2126C40.4403 3.31654 40.5581 3.40157 40.7019 3.40157C41.0116 3.40157 43.464 5.73789 43.464 6.03288C43.464 6.14476 43.549 6.23622 43.6529 6.23622C43.7569 6.23622 43.8419 6.36378 43.8419 6.51968C43.8419 6.67559 43.9269 6.80315 44.0309 6.80315C44.1348 6.80315 44.2199 6.97323 44.2199 7.1811C44.2199 7.38898 44.3049 7.55906 44.4088 7.55906C44.5128 7.55906 44.5978 7.76655 44.5978 8.02035C44.5978 8.27414 44.6828 8.53417 44.7868 8.59842C44.8907 8.66268 44.9758 8.88019 44.9758 9.08202C44.9758 9.53764 44.9712 9.53802 46.01 9.03326C46.6563 8.71918 46.8655 8.51131 46.8655 8.18287C46.8655 7.94362 46.7805 7.74803 46.6766 7.74803C46.5726 7.74803 46.4876 7.53543 46.4876 7.27559C46.4876 7.01575 46.4025 6.80315 46.2986 6.80315C46.1947 6.80315 46.1096 6.63307 46.1096 6.4252C46.1096 6.21732 46.0246 6.04724 45.9206 6.04724C45.8167 6.04724 45.7317 5.87717 45.7317 5.66929C45.7317 5.46142 45.6466 5.29134 45.5427 5.29134C45.4388 5.29134 45.3537 5.16378 45.3537 5.00787C45.3537 4.85197 45.2687 4.72441 45.1647 4.72441C45.0608 4.72441 44.9758 4.63748 44.9758 4.53128C44.9758 4.3011 42.9743 2.26772 42.7477 2.26772C42.6612 2.26772 42.4212 2.1188 42.2144 1.93701C41.683 1.46948 41.0609 1.13386 40.7264 1.13386C40.569 1.13386 40.4403 1.04882 40.4403 0.944882C40.4403 0.840945 40.2703 0.755906 40.0624 0.755906C39.8545 0.755906 39.6844 0.670866 39.6844 0.566929C39.6844 0.462992 39.3443 0.377953 38.9285 0.377953C38.5128 0.377953 38.1726 0.292913 38.1726 0.188976C38.1726 0.0731339 37.2593 0 35.8104 0C34.3615 0 33.4482 0.0731339 33.4482 0.188976ZM57.8262 0.188976C57.8262 0.292913 57.5285 0.377953 57.1647 0.377953C56.801 0.377953 56.5033 0.462992 56.5033 0.566929C56.5033 0.670866 56.2907 0.755906 56.0309 0.755906C55.771 0.755906 55.5584 0.840945 55.5584 0.944882C55.5584 1.04882 55.3884 1.13386 55.1805 1.13386C54.9726 1.13386 54.8025 1.2189 54.8025 1.32283C54.8025 1.42677 54.6512 1.51181 54.4664 1.51181C54.2813 1.51181 54.0075 1.68189 53.8577 1.88976C53.7078 2.09764 53.4691 2.26772 53.3272 2.26772C53.0205 2.26772 51.023 4.30148 51.023 4.61367C51.023 4.73254 50.8529 4.9525 50.6451 5.10236C50.4372 5.25222 50.2671 5.52605 50.2671 5.71106C50.2671 5.89587 50.1821 6.04724 50.0781 6.04724C49.9742 6.04724 49.8892 6.21732 49.8892 6.4252C49.8892 6.63307 49.8041 6.80315 49.7002 6.80315C49.5962 6.80315 49.5112 6.98041 49.5112 7.19679C49.5112 7.43773 49.6029 7.55282 49.7474 7.49329C49.8774 7.43981 50.44 7.24403 50.9977 7.05827C51.7175 6.81846 52.1563 6.52649 52.5095 6.0531C53.4168 4.83685 54.8052 3.59943 55.7136 3.19729C56.0439 3.05102 56.3144 2.86715 56.3144 2.78854C56.3144 2.70992 56.5218 2.64567 56.7756 2.64567C57.0294 2.64567 57.2895 2.56063 57.3537 2.45669C57.418 2.35276 57.746 2.26772 58.083 2.26772C58.4199 2.26772 58.7882 2.17493 58.9014 2.06173C59.2049 1.75824 62.2182 2.03225 63.212 2.45367C63.4199 2.54192 63.8662 2.72693 64.2041 2.86488C64.542 3.00302 64.8183 3.18009 64.8183 3.25871C64.8183 3.33732 64.9485 3.40157 65.1078 3.40157C65.4982 3.40157 68.2199 6.10734 68.2199 6.4955C68.2199 6.66463 68.2841 6.80315 68.3627 6.80315C68.4413 6.80315 68.6184 7.07962 68.7566 7.41732C68.8945 7.75521 69.0795 8.20157 69.1678 8.40945C69.5888 9.40252 69.7867 12.4365 69.473 13.0866C69.3299 13.3829 69.4335 13.4173 70.4674 13.4173H71.6214V11.1496C71.6214 9.76384 71.5479 8.88189 71.4325 8.88189C71.3285 8.88189 71.2435 8.58425 71.2435 8.22047C71.2435 7.85669 71.1584 7.55906 71.0545 7.55906C70.9506 7.55906 70.8655 7.34646 70.8655 7.08661C70.8655 6.82677 70.7805 6.61417 70.6766 6.61417C70.5726 6.61417 70.4876 6.44409 70.4876 6.23622C70.4876 6.02835 70.4025 5.85827 70.2986 5.85827C70.1947 5.85827 70.1096 5.73071 70.1096 5.5748C70.1096 5.4189 70.0246 5.29134 69.9206 5.29134C69.8167 5.29134 69.7317 5.15792 69.7317 4.99502C69.7317 4.63143 66.9615 1.88976 66.5943 1.88976C66.449 1.88976 66.3301 1.8206 66.3301 1.73613C66.3301 1.65146 66.0325 1.46551 65.6687 1.32283C65.3049 1.18016 65.0073 0.994205 65.0073 0.909543C65.0073 0.825071 64.7947 0.755906 64.5348 0.755906C64.275 0.755906 64.0624 0.670866 64.0624 0.566929C64.0624 0.462992 63.7222 0.377953 63.3065 0.377953C62.8907 0.377953 62.5506 0.292913 62.5506 0.188976C62.5506 0.0731339 61.6372 0 60.1884 0C58.7395 0 57.8262 0.0731339 57.8262 0.188976ZM82.3931 0.188976C82.3931 0.292913 82.1006 0.377953 81.7428 0.377953C81.3851 0.377953 81.04 0.462992 80.9758 0.566929C80.9115 0.670866 80.6515 0.755906 80.3977 0.755906C80.1439 0.755906 79.9364 0.840945 79.9364 0.944882C79.9364 1.04882 79.7663 1.13386 79.5584 1.13386C79.3506 1.13386 79.1805 1.2189 79.1805 1.32283C79.1805 1.42677 79.0522 1.51181 78.8953 1.51181C78.7385 1.51181 78.3431 1.76693 78.017 2.07874C77.6906 2.39055 77.3484 2.64567 77.2563 2.64567C77.0048 2.64567 75.9104 3.80523 75.6052 4.39502C75.4578 4.68019 75.2664 4.91339 75.18 4.91339C75.0937 4.91339 75.023 5.04095 75.023 5.19685C75.023 5.35276 74.938 5.48031 74.834 5.48031C74.7301 5.48031 74.6451 5.65039 74.6451 5.85827C74.6451 6.06614 74.56 6.23622 74.4561 6.23622C74.3521 6.23622 74.2671 6.4063 74.2671 6.61417C74.2671 6.82205 74.1821 6.99213 74.0781 6.99213C73.9742 6.99213 73.8892 7.24724 73.8892 7.55906C73.8892 7.87087 73.8041 8.12598 73.7002 8.12598C73.5962 8.12598 73.5112 8.50866 73.5112 8.97638C73.5112 9.44409 73.4262 9.82677 73.3222 9.82677C73.2121 9.82677 73.1332 10.4566 73.1332 11.3386C73.1332 12.2205 73.2121 12.8504 73.3222 12.8504C73.4262 12.8504 73.5112 12.9694 73.5112 13.1148C73.5112 13.2928 73.7935 13.4016 74.375 13.4479C74.8499 13.4857 75.2751 13.4801 75.3199 13.4355C75.3645 13.3909 75.401 12.3955 75.401 11.2237C75.401 10.0072 75.482 9.04309 75.5899 8.97638C75.6939 8.91213 75.7789 8.70255 75.7789 8.51055C75.7789 8.13335 76.539 6.55975 76.771 6.45676C76.8491 6.42198 76.9128 6.27326 76.9128 6.12605C76.9128 5.97865 76.9978 5.85827 77.1018 5.85827C77.2057 5.85827 77.2907 5.76472 77.2907 5.65058C77.2907 5.36221 78.9945 3.77953 79.305 3.77953C79.4445 3.77953 79.5584 3.70791 79.5584 3.62022C79.5584 3.53272 79.9623 3.26816 80.4561 3.03269C80.9499 2.79704 81.5013 2.5285 81.6818 2.43609C81.8623 2.3435 82.2612 2.26772 82.5683 2.26772C82.8754 2.26772 83.1792 2.18268 83.2435 2.07874C83.3077 1.9748 83.9455 1.88976 84.6608 1.88976C85.3761 1.88976 86.0139 1.9748 86.0781 2.07874C86.1424 2.18268 86.4463 2.26772 86.7533 2.26772C87.0604 2.26772 87.4594 2.3435 87.6398 2.43609C87.8203 2.5285 88.3931 2.80479 88.9128 3.04989C89.4325 3.29499 90.0224 3.6446 90.2241 3.82658C90.4966 4.07282 90.9159 4.15748 91.8621 4.15748C92.5615 4.15748 93.2857 4.21568 93.4713 4.28693C93.6568 4.35817 93.2401 3.84794 92.5453 3.15307C91.8504 2.4582 91.1529 1.88976 90.9951 1.88976C90.8371 1.88976 90.708 1.80472 90.708 1.70079C90.708 1.59685 90.5805 1.51181 90.4246 1.51181C90.2687 1.51181 90.1411 1.42677 90.1411 1.32283C90.1411 1.2189 89.971 1.13386 89.7632 1.13386C89.5553 1.13386 89.3852 1.04882 89.3852 0.944882C89.3852 0.840945 89.1726 0.755906 88.9128 0.755906C88.6529 0.755906 88.4403 0.670866 88.4403 0.566929C88.4403 0.462992 88.1427 0.377953 87.7789 0.377953C87.4151 0.377953 87.1175 0.292913 87.1175 0.188976C87.1175 0.0731339 86.2042 0 84.7553 0C83.3064 0 82.3931 0.0731339 82.3931 0.188976ZM10.2041 11.4331V20.5984H9.55384C9.19611 20.5984 8.85104 20.5134 8.78679 20.4094C8.72254 20.3055 8.51296 20.2205 8.32096 20.2205C7.14609 20.2205 4.3294 17.9906 3.26924 16.221C2.57759 15.0663 1.88915 12.6858 1.88915 11.4482C1.88915 10.3414 2.37841 8.26545 2.86824 7.29411C3.7466 5.55231 5.44871 3.86324 7.18049 3.01512C7.6482 2.78608 8.15844 2.52926 8.31435 2.44422C8.47025 2.35937 8.95932 2.28491 9.40096 2.27887L10.2041 2.26772V11.4331ZM15.418 3.91994C15.2156 4.12233 15.2919 18.7087 15.4954 18.7087C15.5994 18.7087 15.6844 18.6236 15.6844 18.5197C15.6844 18.4157 15.8194 18.3307 15.9841 18.3307C16.3445 18.3307 18.3301 16.3098 18.3301 15.9432C18.3301 15.8013 18.4151 15.685 18.5191 15.685C18.623 15.685 18.708 15.5575 18.708 15.4016C18.708 15.2457 18.7931 15.1181 18.897 15.1181C19.001 15.1181 19.086 14.9055 19.086 14.6457C19.086 14.3858 19.171 14.1732 19.275 14.1732C19.3789 14.1732 19.464 14.0122 19.464 13.8155C19.464 13.6188 19.5985 13.4062 19.7629 13.3431C20.1904 13.179 27.2687 13.2064 27.4954 13.3729C27.7732 13.577 28.1569 14.3138 28.1569 14.643C28.1569 14.8004 28.2419 14.9291 28.3458 14.9291C28.4498 14.9291 28.5348 15.0992 28.5348 15.3071C28.5348 15.515 28.6015 15.685 28.683 15.685C28.7646 15.685 28.9833 15.9424 29.1692 16.2571C29.5993 16.9854 30.2581 17.6442 30.9864 18.0743C31.3011 18.2602 31.5584 18.4789 31.5584 18.5605C31.5584 18.642 31.6435 18.7087 31.7474 18.7087C32.0012 18.7087 32.0075 4.22362 31.7537 4.06677C31.4966 3.90803 29.032 6.39099 28.7094 7.13386C28.5626 7.47175 28.3783 7.74803 28.2997 7.74803C28.2211 7.74803 28.1569 7.96063 28.1569 8.22047C28.1569 8.48032 28.0718 8.69291 27.9679 8.69291C27.864 8.69291 27.7789 8.85392 27.7789 9.05065C27.7789 9.24737 27.6302 9.47282 27.4482 9.55162C27.2662 9.63042 25.5157 9.7234 23.5581 9.75817C19.6902 9.82715 19.464 9.77424 19.464 8.80082C19.464 8.53361 19.3789 8.31496 19.275 8.31496C19.171 8.31496 19.086 8.14488 19.086 7.93701C19.086 7.72913 19.001 7.55906 18.897 7.55906C18.7931 7.55906 18.708 7.43036 18.708 7.27294C18.708 6.93883 15.5835 3.75439 15.418 3.91994ZM39.6844 11.2441C39.6844 15.3496 39.7281 18.7087 39.7816 18.7087C40.2411 18.7087 43.0845 16.0486 43.0875 15.6159C43.089 15.3893 43.9364 14.9291 44.352 14.9291C44.4873 14.9291 44.5978 14.8441 44.5978 14.7402C44.5978 14.6362 44.7231 14.5512 44.8762 14.5512C45.0294 14.5512 45.5183 14.3911 45.9628 14.1955C46.4073 13.9999 47.3663 13.5817 48.0939 13.2661C48.8214 12.9504 49.8844 12.4819 50.4561 12.2249C51.4002 11.8006 51.5257 11.7846 51.8262 12.0499C52.008 12.2105 52.1569 12.5851 52.1569 12.8823C52.1569 13.1794 52.2326 13.5702 52.3252 13.7507C52.4177 13.9311 52.693 14.5039 52.9368 15.0236C53.1806 15.5433 53.4279 16.011 53.4863 16.063C53.5447 16.115 53.7981 16.4551 54.0495 16.8189C54.6381 17.6706 54.9161 17.9528 55.1671 17.9528C55.2784 17.9528 55.3695 18.0378 55.3695 18.1417C55.3695 18.2457 55.497 18.3307 55.6529 18.3307C55.8088 18.3307 55.9364 18.4157 55.9364 18.5197C55.9364 18.6236 56.0214 18.7087 56.1254 18.7087C56.3264 18.7087 56.4064 4.12365 56.2064 3.92372C55.9795 3.69657 52.9128 6.73682 52.9128 7.18904C52.9128 7.29392 52.6577 7.43055 52.3458 7.49291C52.034 7.55528 51.7789 7.68076 51.7789 7.77165C51.7789 7.86255 51.6088 7.93701 51.401 7.93701C51.1931 7.93701 51.023 8.00674 51.023 8.09178C51.023 8.17701 50.5978 8.36239 50.0781 8.50394C49.5584 8.64548 49.1332 8.83087 49.1332 8.91609C49.1332 9.00113 48.9632 9.07087 48.7553 9.07087C48.5474 9.07087 48.3773 9.1406 48.3773 9.22564C48.3773 9.31087 47.9521 9.49625 47.4325 9.6378C46.9128 9.77934 46.4876 9.94621 46.4876 10.0086C46.4876 10.0711 46.0837 10.2391 45.5899 10.382C45.0961 10.5248 44.5861 10.6802 44.4561 10.7271C44.3162 10.7773 44.2199 10.6541 44.2199 10.4251C44.2199 10.2123 44.1348 9.98551 44.0309 9.92126C43.9269 9.85701 43.8419 9.55446 43.8419 9.24869C43.8419 8.94293 43.7569 8.69291 43.6529 8.69291C43.549 8.69291 43.464 8.48032 43.464 8.22047C43.464 7.96063 43.3997 7.74803 43.3211 7.74803C43.2425 7.74803 43.0601 7.48101 42.9157 7.15483C42.6737 6.60813 42.1351 5.90854 41.3571 5.13052C40.8058 4.57928 39.8696 3.77953 39.7757 3.77953C39.7254 3.77953 39.6844 7.13858 39.6844 11.2441ZM64.1886 4.04825C64.1314 4.19773 64.1007 7.39106 64.1206 11.1445L64.1569 17.9692L71.8407 17.9569C76.0667 17.9503 79.5533 18.0104 79.5887 18.0905C79.68 18.2974 81.2422 19.0866 81.5606 19.0866C81.7067 19.0866 81.8262 19.1717 81.8262 19.2756C81.8262 19.3795 82.0743 19.4646 82.3774 19.4646C82.6805 19.4646 82.9714 19.5708 83.0239 19.7008C83.0762 19.8308 83.1259 18.7253 83.1341 17.2441L83.149 14.5512H82.2196C80.5731 14.5512 80.6923 14.9803 80.6923 9.05065C80.6923 6.15156 80.6451 3.77953 80.5872 3.77953C80.3185 3.77953 77.705 6.58923 77.4669 7.13386C77.3193 7.47175 77.1343 7.74803 77.0556 7.74803C76.977 7.74803 76.9128 7.96063 76.9128 8.22047C76.9128 8.48032 76.8277 8.69291 76.7238 8.69291C76.6199 8.69291 76.5348 8.94293 76.5348 9.24869C76.5348 9.55446 76.4498 9.85701 76.3458 9.92126C76.2419 9.98551 76.1569 10.6282 76.1569 11.3497C76.1569 12.0983 76.2379 12.6614 76.3458 12.6614C76.4498 12.6614 76.5348 13.0866 76.5348 13.6063V14.5512H72.3773H68.2199V13.7008C68.2199 13.2331 68.3049 12.8504 68.4088 12.8504C68.52 12.8504 68.5978 12.189 68.5978 11.2441C68.5978 10.2992 68.52 9.6378 68.4088 9.6378C68.3049 9.6378 68.2199 9.38778 68.2199 9.08202C68.2199 8.77625 68.1348 8.4737 68.0309 8.40945C67.9269 8.3452 67.8419 8.12769 67.8419 7.92586C67.8419 7.72403 67.7569 7.55906 67.6529 7.55906C67.549 7.55906 67.464 7.43433 67.464 7.28202C67.464 6.83735 64.3124 3.72567 64.1886 4.04825ZM31.3695 11.2441C31.3695 16.1877 31.3177 17.5727 31.1332 17.5654C31.0034 17.5603 30.5569 17.1286 30.1411 16.6061C29.7254 16.0838 29.279 15.5412 29.149 15.4006C29.0192 15.2602 28.9128 15.0115 28.9128 14.8481C28.9128 14.6848 28.8277 14.5512 28.7238 14.5512C28.6199 14.5512 28.5348 14.4225 28.5348 14.2651C28.5348 14.1078 28.456 13.8314 28.3596 13.6509C28.2633 13.4704 28.1383 13.1741 28.082 12.9921C27.9887 12.6903 27.6173 12.6614 23.8318 12.6614C21.5504 12.6614 19.5494 12.713 19.385 12.7761C19.2206 12.8392 19.086 13.0944 19.086 13.3431C19.086 13.5917 19.001 13.7953 18.897 13.7953C18.7931 13.7953 18.708 13.9058 18.708 14.0411C18.708 14.3887 18.2636 15.3039 18.0939 15.3056C18.016 15.3063 17.9521 15.421 17.9521 15.5605C17.9521 15.9269 16.3441 17.5748 15.9866 17.5748C15.7158 17.5748 15.6844 16.9364 15.6844 11.4442C15.6844 7.5205 15.7532 5.27112 15.8753 5.19572C16.1077 5.05191 18.3301 7.28995 18.3301 7.66772C18.3301 7.81587 18.4151 7.93701 18.5191 7.93701C18.623 7.93701 18.708 8.10198 18.708 8.30381C18.708 8.50564 18.7931 8.72315 18.897 8.7874C19.001 8.85165 19.086 9.14513 19.086 9.43975C19.086 9.75383 19.2096 10.0227 19.385 10.09C19.5494 10.1531 21.5903 10.2047 23.9204 10.2047H28.1569V9.6378C28.1569 9.32598 28.2419 9.07087 28.3458 9.07087C28.4498 9.07087 28.5348 8.93367 28.5348 8.76586C28.5348 8.23427 29.3525 6.93373 30.3301 5.91099C30.8498 5.36712 31.2963 4.92019 31.3222 4.91773C31.3481 4.91546 31.3695 7.7622 31.3695 11.2441ZM41.0084 5.33877C41.269 5.57254 41.6022 5.99754 41.749 6.28346C41.8958 6.56939 42.0867 6.80315 42.1731 6.80315C42.2594 6.80315 42.3301 6.93071 42.3301 7.08661C42.3301 7.24252 42.4151 7.37008 42.5191 7.37008C42.623 7.37008 42.708 7.54016 42.708 7.74803C42.708 7.95591 42.7931 8.12598 42.897 8.12598C43.001 8.12598 43.086 8.33858 43.086 8.59842C43.086 8.85827 43.171 9.07087 43.275 9.07087C43.3789 9.07087 43.464 9.40592 43.464 9.81562C43.464 10.2253 43.549 10.6129 43.6529 10.6772C43.7569 10.7414 43.8419 10.9589 43.8419 11.1608C43.8419 11.3626 43.8927 11.5276 43.9551 11.5276C44.0696 11.5276 44.7828 11.2301 46.2565 10.5679C46.7009 10.3682 47.1898 10.2047 47.3431 10.2047C47.4961 10.2047 47.6214 10.135 47.6214 10.05C47.6214 9.96472 48.0466 9.77934 48.5663 9.6378C49.086 9.49625 49.5112 9.31087 49.5112 9.22564C49.5112 9.1406 49.6429 9.07087 49.8037 9.07087C49.9647 9.07087 50.4483 8.90079 50.8786 8.69291C51.3089 8.48504 51.7725 8.31496 51.9089 8.31496C52.0454 8.31496 52.1569 8.2405 52.1569 8.14961C52.1569 8.05871 52.412 7.93323 52.7238 7.87087C53.0564 7.80435 53.2907 7.63824 53.2907 7.46929C53.2907 7.31074 53.3557 7.1811 53.4351 7.1811C53.5145 7.1811 53.7781 6.85965 54.0211 6.46658C54.264 6.0737 54.7517 5.56271 55.1051 5.33102L55.7474 4.90998V11.3369C55.7474 14.8717 55.7049 17.7638 55.6527 17.7638C55.4477 17.7638 54.0466 16.1917 54.0466 15.9615C54.0466 15.8268 53.9829 15.6883 53.9049 15.6535C53.7749 15.5958 53.0759 14.228 52.7136 13.3228C52.6304 13.115 52.5237 12.5367 52.4762 12.038C52.429 11.5391 52.3432 11.0838 52.2856 11.0264C52.2281 10.9689 51.6977 11.1432 51.1067 11.4136C50.516 11.6842 49.9152 11.9055 49.7718 11.9055C49.6286 11.9055 49.5112 11.9698 49.5112 12.0482C49.5112 12.1268 49.2349 12.2867 48.897 12.4037C47.8937 12.7508 46.9666 13.1272 46.8655 13.2283C46.7644 13.3294 45.8373 13.7059 44.834 14.053C44.4963 14.17 44.2199 14.3299 44.2199 14.4085C44.2199 14.4869 44.0963 14.5512 43.9453 14.5512C43.4628 14.5512 42.708 14.9807 42.708 15.2553C42.708 15.5751 40.7777 17.5748 40.4689 17.5748C40.3092 17.5748 40.2514 15.8935 40.2514 11.2441C40.2514 7.7622 40.3152 4.91357 40.3931 4.91357C40.4709 4.91376 40.748 5.10501 41.0084 5.33877ZM65.0723 5.29134C65.1947 5.29134 65.5065 5.55288 65.7652 5.87263C66.024 6.19219 66.4268 6.68126 66.6606 6.95924C66.8944 7.23723 67.0856 7.57096 67.0858 7.70079C67.0858 7.8308 67.171 7.93701 67.275 7.93701C67.3789 7.93701 67.464 8.10198 67.464 8.30381C67.464 8.50564 67.549 8.72315 67.6529 8.7874C67.7569 8.85165 67.8419 9.19181 67.8419 9.54331C67.8419 9.8948 67.9269 10.235 68.0309 10.2992C68.1348 10.3635 68.2199 10.8312 68.2199 11.3386C68.2199 11.846 68.1348 12.3137 68.0309 12.378C67.9269 12.4422 67.8419 12.7803 67.8419 13.1293C67.8419 13.4782 67.7701 13.7921 67.6822 13.8268C67.5943 13.8614 67.4651 14.1235 67.3952 14.4094L67.2678 14.9291H72.2793H77.2907V14.3622C77.2907 14.0504 77.2057 13.7953 77.1018 13.7953C76.9978 13.7953 76.9128 13.454 76.9128 13.0367C76.9128 12.6197 76.8094 12.1128 76.6832 11.9106C76.5029 11.6219 76.5029 11.406 76.6832 10.9075C76.8094 10.5583 76.9128 10.002 76.9128 9.67162C76.9128 9.34129 76.9978 9.07087 77.1018 9.07087C77.2057 9.07087 77.2907 8.9178 77.2907 8.73052C77.2907 8.30835 77.7131 7.37348 77.9049 7.37159C77.9829 7.37083 78.0466 7.28428 78.0466 7.1794C78.0466 6.83679 79.9149 4.82891 80.08 4.99408C80.1265 5.04038 80.1516 6.99685 80.1361 9.34167C80.1207 11.6865 80.1632 13.899 80.2306 14.2583C80.3514 14.9027 80.3673 14.9121 81.4204 14.9675L82.4876 15.0236L82.5412 17.0551C82.5756 18.3625 82.5252 19.0866 82.3995 19.0866C82.292 19.0866 82.2041 19.0016 82.2041 18.8976C82.2041 18.7937 82.0129 18.7068 81.7789 18.7045C81.545 18.7022 81.1411 18.534 80.8813 18.3307C80.6214 18.1274 80.3026 17.9592 80.1726 17.9569C80.0428 17.9546 79.9364 17.8677 79.9364 17.7638C79.9364 17.6409 77.2592 17.5748 72.2829 17.5748H64.6293L64.6442 11.1969C64.6524 7.68907 64.7021 4.92529 64.7544 5.05512C64.8069 5.18513 64.95 5.29134 65.0723 5.29134ZM50.2671 13.5275C50.0073 13.6717 49.6458 13.7909 49.464 13.7924C49.1572 13.7951 49.1332 14.1653 49.1332 18.8976V24H50.2671H51.401V21.5433C51.401 20.0459 51.4741 19.0866 51.5882 19.0866C51.6914 19.0866 52.0195 19.3417 52.3175 19.6535C52.6153 19.9654 52.9251 20.2205 53.0056 20.2205C53.0861 20.2205 53.2894 20.3758 53.4576 20.5655C53.6256 20.7553 54.0395 21.0312 54.3773 21.1786C54.7152 21.326 54.9915 21.5108 54.9915 21.5894C54.9915 21.668 55.1616 21.7323 55.3695 21.7323C55.5773 21.7323 55.7474 21.8173 55.7474 21.9213C55.7474 22.0252 55.9549 22.1102 56.2087 22.1102C56.4625 22.1102 56.7225 22.1953 56.7868 22.2992C56.851 22.4031 57.2386 22.4882 57.6483 22.4882C58.058 22.4882 58.3931 22.5732 58.3931 22.6772C58.3931 22.7898 59.1138 22.8661 60.1772 22.8661C61.1627 22.8661 62.0137 22.7815 62.0781 22.6772C62.1424 22.5732 62.53 22.4882 62.9397 22.4882C63.3494 22.4882 63.6844 22.4031 63.6844 22.2992C63.6844 22.1953 63.9395 22.1102 64.2514 22.1102C64.5632 22.1102 64.8183 22.0252 64.8183 21.9213C64.8183 21.8173 64.9884 21.7323 65.1962 21.7323C65.4041 21.7323 65.5742 21.6472 65.5742 21.5433C65.5742 21.4394 65.7256 21.3543 65.9104 21.3543C66.0954 21.3543 66.3692 21.1843 66.5191 20.9764C66.6689 20.7685 66.9031 20.5984 67.0395 20.5984C67.275 20.5984 68.5978 19.4007 68.5978 19.1873C68.5978 19.132 67.9519 19.0866 67.1625 19.0866C65.9232 19.0866 65.5861 19.1641 64.6941 19.6535C64.1261 19.9654 63.5134 20.2205 63.3326 20.2205C63.1519 20.2205 62.9074 20.3172 62.7889 20.4357C62.5145 20.7101 58.034 20.7188 57.5266 20.4459C57.3276 20.339 56.7475 20.0676 56.2374 19.8431C55.1867 19.3805 54.0557 18.5463 53.1618 17.5748C52.5528 16.9128 51.401 14.8806 51.401 14.4678C51.401 14.1823 50.9565 13.2263 50.834 13.2484C50.7821 13.2576 50.5269 13.3833 50.2671 13.5275ZM24.7553 14.6457C24.7553 14.8016 24.8403 14.9291 24.9443 14.9291C25.0482 14.9291 25.1332 15.1843 25.1332 15.4961C25.1332 15.8079 25.2183 16.063 25.3222 16.063C25.4262 16.063 25.5112 16.2331 25.5112 16.4409C25.5112 16.6488 25.5962 16.8189 25.7002 16.8189C25.8041 16.8189 25.8891 16.9304 25.8891 17.0666C25.8891 17.2031 26.0592 17.4971 26.2671 17.7203C26.475 17.9433 26.6451 18.2145 26.6451 18.3228C26.6451 18.4311 26.7301 18.5197 26.834 18.5197C26.938 18.5197 27.023 18.6076 27.023 18.7149C27.023 18.8224 27.3178 19.2051 27.6782 19.5653C28.0384 19.9257 28.4211 20.2205 28.5286 20.2205C28.6359 20.2205 28.7238 20.3055 28.7238 20.4094C28.7238 20.5134 28.8514 20.5984 29.0073 20.5984C29.1632 20.5984 29.2907 20.6835 29.2907 20.7874C29.2907 20.8913 29.4183 20.9764 29.5742 20.9764C29.7301 20.9764 29.8577 21.0614 29.8577 21.1654C29.8577 21.2693 29.9852 21.3543 30.1411 21.3543C30.297 21.3543 30.4246 21.4394 30.4246 21.5433C30.4246 21.6472 30.6372 21.7323 30.897 21.7323C31.1569 21.7323 31.3695 21.8173 31.3695 21.9213C31.3695 22.0252 31.5821 22.1102 31.8419 22.1102C32.1017 22.1102 32.3143 22.1953 32.3143 22.2992C32.3143 22.4031 32.697 22.4882 33.1647 22.4882C33.6325 22.4882 34.0151 22.5732 34.0151 22.6772C34.0151 22.7898 34.7395 22.8661 35.8104 22.8661C36.8813 22.8661 37.6057 22.7898 37.6057 22.6772C37.6057 22.5732 37.9884 22.4882 38.4561 22.4882C38.9238 22.4882 39.3065 22.4031 39.3065 22.2992C39.3065 22.1953 39.5616 22.1102 39.8734 22.1102C40.1852 22.1102 40.4403 22.0252 40.4403 21.9213C40.4403 21.8173 40.6104 21.7323 40.8183 21.7323C41.0262 21.7323 41.1962 21.6472 41.1962 21.5433C41.1962 21.4394 41.3476 21.3543 41.5324 21.3543C41.7174 21.3543 41.9913 21.1843 42.1411 20.9764C42.291 20.7685 42.5109 20.5984 42.6298 20.5984C42.9358 20.5984 44.8276 18.7183 45.1494 18.0945C45.2968 17.8086 45.4883 17.5748 45.5746 17.5748C45.661 17.5748 45.7317 17.4047 45.7317 17.1968C45.7317 16.989 45.8167 16.8189 45.9206 16.8189C46.0246 16.8189 46.1096 16.6488 46.1096 16.4409C46.1096 16.2331 46.1947 16.063 46.2986 16.063C46.4025 16.063 46.4876 15.9001 46.4876 15.7007C46.4876 15.5015 46.594 15.2957 46.7238 15.2432C46.8625 15.1873 46.8211 15.1417 46.6231 15.133C46.4377 15.1249 45.8664 15.3307 45.3537 15.5906C44.841 15.8504 44.3094 16.063 44.1724 16.063C44.0354 16.063 43.7656 16.3302 43.5726 16.6569C42.9579 17.6976 41.434 19.0214 40.1138 19.6619C39.4098 20.0031 38.6711 20.363 38.4721 20.4614C37.9438 20.723 33.4752 20.701 33.2099 20.4357C33.0914 20.3172 32.8461 20.2205 32.6647 20.2205C32.1785 20.2205 30.1475 18.9804 29.3189 18.1776C28.4271 17.3134 27.5355 16.0057 27.2008 15.0709C26.9472 14.3626 26.9465 14.3622 25.8512 14.3622C25.003 14.3622 24.7553 14.4263 24.7553 14.6457ZM90.548 18.7223C89.9932 19.2393 88.1153 20.2205 87.681 20.2205C87.4922 20.2205 87.3065 20.315 87.2679 20.4304C87.1704 20.7232 82.4471 20.7281 82.1548 20.4357C82.0363 20.3172 81.7946 20.2205 81.6173 20.2205C81.26 20.2205 79.6892 19.4517 79.59 19.2283C79.4974 19.0201 76.5766 19.0552 76.4462 19.2661C76.3852 19.3648 76.529 19.549 76.7657 19.6755C77.0025 19.8019 77.4217 20.1464 77.6972 20.4408C77.9727 20.7354 78.3343 20.9764 78.5004 20.9764C78.6667 20.9764 78.8033 21.0403 78.804 21.1181C78.8057 21.2878 79.721 21.7323 80.0685 21.7323C80.2038 21.7323 80.3143 21.8173 80.3143 21.9213C80.3143 22.0252 80.5269 22.1102 80.7868 22.1102C81.0466 22.1102 81.2592 22.1953 81.2592 22.2992C81.2592 22.4031 81.6419 22.4882 82.1096 22.4882C82.5773 22.4882 82.96 22.5732 82.96 22.6772C82.96 22.789 83.6492 22.8661 84.6497 22.8661C85.579 22.8661 86.3918 22.7811 86.4561 22.6772C86.5203 22.5732 86.9079 22.4882 87.3176 22.4882C87.7273 22.4882 88.0624 22.4031 88.0624 22.2992C88.0624 22.1953 88.3175 22.1102 88.6293 22.1102C88.9411 22.1102 89.1962 22.0252 89.1962 21.9213C89.1962 21.8173 89.3663 21.7323 89.5742 21.7323C89.7821 21.7323 89.9521 21.6472 89.9521 21.5433C89.9521 21.4394 90.1222 21.3543 90.3301 21.3543C90.538 21.3543 90.708 21.2837 90.708 21.1973C90.708 21.1109 90.9407 20.9195 91.2249 20.7721C91.7191 20.5157 93.7317 18.6348 93.7317 18.4294C93.7317 18.3751 93.1099 18.3307 92.3501 18.3307C91.2134 18.3307 90.8936 18.4003 90.548 18.7223Z" fill="white"/>
</svg>
