<svg width="119" height="16" viewBox="0 0 119 16" fill="none" xmlns="http://www.w3.org/2000/svg">
<path id="Shape" fill-rule="evenodd" clip-rule="evenodd" d="M17.5527 15.485V8.66898C17.5527 6.09705 15.9222 4.36577 13.298 4.34305C11.7759 4.24404 10.3207 4.98563 9.49954 6.27881C8.75112 5.02376 7.38035 4.28103 5.9269 4.34305C4.66279 4.28163 3.4605 4.89679 2.76527 5.96073V4.59752H0.412109V15.485H2.78785V9.4551C2.78785 7.56477 3.82667 6.56508 5.43459 6.56508C7.0425 6.56508 7.78774 7.58749 7.78774 9.43237V15.485H10.1499V9.4551C10.1499 7.56477 11.2339 6.56508 12.7967 6.56508C14.3594 6.56508 15.1724 7.58749 15.1724 9.43237V15.485H17.5527ZM52.7054 4.60659H48.8617V1.30762H46.486V4.60659H44.2909V6.76956H46.486V11.7271C46.486 14.2536 47.457 15.7577 50.2393 15.7577C51.2784 15.761 52.2975 15.4697 53.1796 14.917L52.5021 12.8904C51.8708 13.2687 51.1544 13.4798 50.4199 13.5038C49.2456 13.5038 48.8572 12.7768 48.8572 11.6862V6.76956H52.7008L52.7054 4.60659ZM72.7728 4.33397C71.604 4.2997 70.5103 4.91178 69.9228 5.92893V4.60662H67.5923V15.4851H69.9454V9.38695C69.9454 7.56933 70.7132 6.58782 72.2534 6.58782C72.7572 6.58049 73.2576 6.67313 73.7258 6.86046L74.4485 4.62934C73.9107 4.43582 73.344 4.33594 72.7728 4.33397ZM42.4347 5.47C41.1024 4.67367 39.5707 4.27934 38.0219 4.33398C35.2849 4.33398 33.5053 5.6563 33.5053 7.81472C33.5053 9.59144 34.8152 10.682 37.2361 11.0228L38.3426 11.1819C39.6299 11.3636 40.2441 11.7044 40.2441 12.3179C40.2441 13.1585 39.386 13.6402 37.7781 13.6402C36.4808 13.6816 35.2077 13.2814 34.1648 12.5042L33.0943 14.3445C34.4647 15.3085 36.1066 15.8039 37.7781 15.7577C40.899 15.7577 42.7102 14.2763 42.7102 12.2088C42.7102 10.2958 41.2829 9.29608 38.9343 8.95527L37.8277 8.79623C36.8115 8.65991 35.994 8.45543 35.994 7.72838C35.994 6.93318 36.7618 6.45605 38.0536 6.45605C39.2371 6.47365 40.3967 6.79424 41.423 7.38758L42.4347 5.47ZM105.451 4.33397C104.282 4.2997 103.188 4.91178 102.601 5.92893V4.60662H100.27V15.4851H102.623V9.38695C102.623 7.56933 103.391 6.58782 104.931 6.58782C105.435 6.58049 105.935 6.67313 106.404 6.86046L107.126 4.62934C106.588 4.43582 106.022 4.33594 105.451 4.33397ZM75.1484 10.0459C75.1484 13.3448 77.4338 15.7577 80.9162 15.7577C82.3282 15.828 83.7153 15.3645 84.805 14.4581L83.6758 12.5451C82.8624 13.1683 81.8708 13.5109 80.8484 13.5221C78.9695 13.5221 77.5919 12.1316 77.5919 10.0413C77.5919 7.95107 78.974 6.58331 80.8484 6.56059C81.8708 6.57171 82.8624 6.91433 83.6758 7.53756L84.805 5.62452C83.7153 4.7182 82.3282 4.25464 80.9162 4.32492C77.4338 4.32492 75.1484 6.73781 75.1484 10.0368V10.0459ZM97.1804 4.59299H94.8273V5.9153C94.0132 4.85843 92.7405 4.26397 91.4127 4.32034C88.3821 4.32034 85.9928 6.71051 85.9928 10.0322C85.9928 13.3539 88.3685 15.7441 91.4127 15.7441C92.7405 15.8004 94.0132 15.206 94.8273 14.1491V15.4669H97.1804V4.59299ZM88.4271 10.0458C88.4271 8.13276 89.6692 6.56506 91.7062 6.56506C93.6528 6.56506 94.9626 8.06914 94.9626 10.0458C94.9626 12.0225 93.6528 13.5265 91.7062 13.5265C89.6692 13.5265 88.4271 11.9543 88.4271 10.0458ZM60.0355 4.33401C56.8739 4.33401 54.6517 6.65602 54.6517 10.0459C54.6517 13.5039 56.9597 15.7577 60.1936 15.7577C61.8083 15.8146 63.3873 15.2711 64.6289 14.2309L63.4772 12.4769C62.5789 13.2 61.4659 13.5999 60.3155 13.6129C58.798 13.6129 57.4204 12.9086 57.0816 10.9501H65.1122C65.1348 10.6548 65.1574 10.3594 65.1574 10.0413C65.1574 6.65147 63.0526 4.32947 60.022 4.32947L60.0355 4.33401ZM59.9906 6.45155C61.5082 6.45155 62.4793 7.40579 62.7277 9.09163H57.1226C57.371 7.51939 58.3195 6.45155 59.9952 6.45155H59.9906ZM119 0.235229H116.647V5.92437C115.833 4.8675 114.56 4.27303 113.232 4.32941C110.202 4.32941 107.812 6.71958 107.812 10.0413C107.812 13.363 110.188 15.7531 113.232 15.7531C114.56 15.8095 115.833 15.215 116.647 14.1582V15.4759H119V0.235229ZM110.256 10.0458C110.256 8.13276 111.498 6.56506 113.535 6.56506C115.481 6.56506 116.791 8.06914 116.791 10.0458C116.791 12.0225 115.481 13.5265 113.535 13.5265C111.498 13.5265 110.256 11.9543 110.256 10.0458ZM30.8088 10.0459V4.59302H28.4556V5.91533C27.6415 4.86759 26.3753 4.27888 25.0546 4.33401C22.0239 4.33401 19.6347 6.72417 19.6347 10.0459C19.6347 13.3676 22.0104 15.7577 25.0546 15.7577C26.3824 15.8141 27.6551 15.2196 28.4692 14.1628V15.4805H30.8223L30.8088 10.0459ZM22.0556 10.0458C22.0556 8.13281 23.2977 6.56511 25.3347 6.56511C27.2813 6.56511 28.5911 8.06919 28.5911 10.0458C28.5911 12.0225 27.2813 13.5266 25.3347 13.5266C23.2977 13.5266 22.0556 11.9589 22.0556 10.0458Z" fill="white"/>
</svg>
