<svg width="67" height="24" viewBox="0 0 67 24" fill="none" xmlns="http://www.w3.org/2000/svg">
<path fill-rule="evenodd" clip-rule="evenodd" d="M9.8815 0.11215C9.8815 0.173832 9.8243 0.224299 9.75443 0.224299C9.49739 0.224299 9.2086 0.708112 9.2086 1.13865C9.2086 1.4474 9.16071 1.57009 9.04038 1.57009C8.94785 1.57009 8.87215 1.62056 8.87215 1.68224C8.87215 1.74393 8.77122 1.79439 8.64785 1.79439C8.52449 1.79439 8.42355 1.84486 8.42355 1.90654C8.42355 1.96822 8.34785 2.01869 8.25533 2.01869C8.16281 2.01869 8.08711 2.05682 8.08711 2.10348C8.08711 2.15013 7.92303 2.25959 7.72262 2.34684C7.5221 2.43398 7.3329 2.53469 7.30206 2.57047C7.23645 2.6465 6.86512 2.86172 6.23664 3.18785C5.98991 3.31581 5.76281 3.44579 5.73197 3.47664C5.68318 3.52542 5.40886 3.67873 4.44225 4.19742C4.31888 4.26359 4.19271 4.34882 4.16187 4.38684C4.13103 4.42475 3.87869 4.57032 3.60112 4.71028C3.32355 4.85024 3.07122 4.99581 3.04038 5.03394C2.87215 5.24164 2.36501 5.40886 2.23111 5.30086C1.99526 5.11065 1.41701 5.02991 1.11466 5.14486C0.630283 5.32901 0.460938 5.58493 0.460938 6.13312C0.460938 6.57219 0.515218 6.69241 0.853461 7.00217L1.24598 7.36172V11.3105C1.24598 14.9688 1.23152 15.2648 1.04972 15.3322C0.680863 15.469 0.460938 15.8343 0.460938 16.31C0.460938 17.1902 1.05096 17.5955 1.90957 17.3052C2.41245 17.1352 2.86475 17.2236 3.19806 17.5569C3.27432 17.6332 3.61066 17.8337 3.94554 18.0027C4.28041 18.1716 4.57963 18.3471 4.61047 18.3927C4.64131 18.4384 4.96935 18.6341 5.33944 18.8276C5.70954 19.0211 6.16374 19.2674 6.34879 19.375C6.53383 19.4825 6.98804 19.7448 7.35813 19.9578C7.72823 20.1709 8.18243 20.4371 8.36748 20.5495C8.55253 20.6619 8.79275 20.7837 8.90142 20.8202C9.00998 20.8568 9.12359 21.0067 9.15376 21.1535C9.18393 21.3004 9.2344 21.5454 9.26602 21.6978C9.3646 22.1739 9.74692 22.4299 10.3593 22.4299C11.0751 22.4299 11.4516 22.0477 11.4516 21.3211C11.4516 21.0394 11.5222 20.9496 11.8722 20.7868C12.1035 20.6791 12.3179 20.5633 12.3488 20.5292C12.3796 20.4951 12.632 20.3449 12.9095 20.1953C13.1871 20.0457 13.4394 19.8943 13.4703 19.8589C13.5192 19.8026 13.7674 19.6623 14.76 19.1297C14.8834 19.0635 15.0095 18.9781 15.0404 18.9397C15.0712 18.9013 15.3993 18.7083 15.7693 18.5107C17.0385 17.833 17.7882 17.4033 17.9382 17.2673C18.0565 17.1602 18.2061 17.1693 18.6412 17.3098C19.5336 17.5981 20.208 17.2036 20.2193 16.3868C20.2256 15.9318 19.9339 15.3645 19.6937 15.3645C19.6148 15.3645 19.5197 15.2846 19.4823 15.1871C19.4448 15.0895 19.4142 13.2787 19.4142 11.163V7.3163L19.8067 7.01697C20.1588 6.74849 20.1993 6.66224 20.1993 6.18202C20.1993 5.76841 20.1406 5.59144 19.9415 5.40449C19.5769 5.06198 19.0719 4.98594 18.6412 5.20879C18.2942 5.38811 18.2689 5.38374 17.5883 5.02609C17.2046 4.82445 16.8656 4.62729 16.8348 4.58781C16.8039 4.54834 16.5516 4.40164 16.274 4.26168C15.9965 4.12172 15.7441 3.97021 15.7133 3.9249C15.6824 3.8797 15.4301 3.72897 15.1525 3.58991C14.875 3.45095 14.5347 3.28026 14.3964 3.21073C14.2581 3.14108 14.1445 3.04632 14.1441 3C14.1436 2.95368 14.0653 2.91589 13.9702 2.91589C13.8751 2.91589 13.689 2.81495 13.5566 2.69159C13.4242 2.56822 13.2497 2.46729 13.1687 2.46729C13.0879 2.46729 13.0217 2.41682 13.0217 2.35514C13.0217 2.29346 12.9208 2.24299 12.7974 2.24299C12.674 2.24299 12.5731 2.19252 12.5731 2.13084C12.5731 2.06916 12.4953 2.01869 12.4002 2.01869C12.305 2.01869 12.1189 1.91776 11.9865 1.79439C11.8541 1.67103 11.6796 1.57009 11.5986 1.57009C11.5018 1.57009 11.4516 1.41679 11.4516 1.1215C11.4516 0.874766 11.4045 0.672897 11.347 0.672897C11.2894 0.672897 11.2104 0.571963 11.1712 0.448598C11.1321 0.325234 11.0278 0.224299 10.9394 0.224299C10.851 0.224299 10.7787 0.173832 10.7787 0.11215C10.7787 0.0504673 10.5768 0 10.3301 0C10.0834 0 9.8815 0.0504673 9.8815 0.11215ZM64.6105 0.336449C64.6105 0.398131 64.4086 0.448598 64.1619 0.448598C63.9151 0.448598 63.7133 0.499065 63.7133 0.560748C63.7133 0.62243 63.6359 0.672897 63.5413 0.672897C63.3181 0.672897 62.5918 1.39918 62.5918 1.62247C62.5918 1.71701 62.5413 1.79439 62.4796 1.79439C62.4142 1.79439 62.3675 2.16819 62.3675 2.69159C62.3675 3.21499 62.4142 3.58878 62.4796 3.58878C62.5413 3.58878 62.5918 3.66617 62.5918 3.76071C62.5918 3.984 63.3181 4.71028 63.5413 4.71028C63.6359 4.71028 63.7133 4.75222 63.7133 4.80359C63.7133 4.85484 63.939 4.94849 64.215 5.01163C64.6156 5.10325 64.8285 5.08856 65.2711 4.93873C65.9003 4.72576 66.6292 4.21379 66.6292 3.9849C66.6292 3.90067 66.6923 3.81073 66.7693 3.78505C66.9424 3.7274 66.968 1.71566 66.7972 1.59409C66.7355 1.55002 66.6137 1.37585 66.5267 1.20695C66.4396 1.03806 66.2252 0.836411 66.0501 0.759028C65.8752 0.681533 65.732 0.580037 65.732 0.533383C65.732 0.486729 65.5301 0.448598 65.2834 0.448598C65.0366 0.448598 64.8348 0.398131 64.8348 0.336449C64.8348 0.274766 64.7843 0.224299 64.7226 0.224299C64.6609 0.224299 64.6105 0.274766 64.6105 0.336449ZM10.7331 0.954729C10.8201 1.30161 10.6171 1.57009 10.2679 1.57009C9.97795 1.57009 9.82374 1.25585 9.93757 0.897196C10.0493 0.545383 10.641 0.588224 10.7331 0.954729ZM65.3431 1.95892C65.8571 2.4729 65.8697 2.92822 65.3825 3.39387C65.0693 3.69308 64.9811 3.72078 64.5345 3.65955C63.8647 3.5677 63.7133 3.38927 63.7133 2.69159C63.7133 2.09742 63.8811 1.79439 64.21 1.79439C64.3069 1.79439 64.3862 1.74393 64.3862 1.68224C64.3862 1.41903 64.9729 1.58871 65.3431 1.95892ZM9.4329 2.07712C9.4329 2.10931 9.29821 2.34908 9.13346 2.60983C8.96883 2.87069 8.72546 3.26075 8.59256 3.47664C8.45978 3.69252 8.11503 4.23443 7.82658 4.6809C7.53813 5.12736 7.30206 5.54366 7.30206 5.60613C7.30206 5.6686 7.25159 5.71963 7.18991 5.71963C7.12823 5.71963 7.07776 5.7729 7.07776 5.83794C7.07776 5.90299 6.87589 6.25346 6.62916 6.61682C6.38243 6.98019 6.18056 7.30901 6.18056 7.3477C6.18056 7.52546 5.85051 7.71903 5.6409 7.66419C5.51294 7.63077 5.25107 7.68179 5.05896 7.77757C4.78565 7.91406 4.65006 7.92482 4.43574 7.82714C4.28512 7.7585 4.16187 7.66609 4.16187 7.62179C4.16187 7.5775 4.01047 7.47847 3.82542 7.40187C3.64038 7.32527 3.48898 7.22579 3.48898 7.18105C3.48898 7.13619 3.28464 7.00733 3.03488 6.89473C2.60075 6.69903 2.58225 6.66976 2.61432 6.23282C2.64527 5.81069 2.69081 5.75282 3.2086 5.47671C3.51701 5.3123 3.83036 5.12299 3.90483 5.05615C3.97929 4.98931 4.11813 4.93458 4.21324 4.93458C4.30834 4.93458 4.38617 4.89409 4.38617 4.84452C4.38617 4.79495 4.63772 4.63099 4.94512 4.48004C5.25264 4.32908 5.50498 4.16781 5.50587 4.1215C5.50688 4.07518 5.6086 4.03738 5.73197 4.03738C5.85533 4.03738 5.95626 3.99948 5.95626 3.95305C5.95626 3.90673 6.19604 3.74389 6.48898 3.59136C6.78191 3.43873 7.04692 3.28744 7.07776 3.25503C7.18206 3.14568 7.8055 2.79028 8.00299 2.7277C8.11099 2.69338 8.19926 2.62082 8.19926 2.56632C8.19926 2.51192 8.30019 2.46729 8.42355 2.46729C8.54692 2.46729 8.64785 2.41682 8.64785 2.35514C8.64785 2.29346 8.72355 2.24299 8.81608 2.24299C8.9086 2.24299 8.9843 2.19252 8.9843 2.13084C8.9843 2.06916 9.08524 2.01869 9.2086 2.01869C9.33197 2.01869 9.4329 2.04505 9.4329 2.07712ZM11.6946 2.1028C11.7414 2.20811 12.3387 2.57226 12.6011 2.65548C12.7091 2.68979 12.7974 2.76236 12.7974 2.81686C12.7974 2.87125 12.8983 2.91589 13.0217 2.91589C13.1451 2.91589 13.246 2.96019 13.246 3.01447C13.246 3.06864 13.3974 3.17574 13.5824 3.25234C13.7675 3.32893 13.9189 3.43604 13.9189 3.49021C13.9189 3.54449 14.0198 3.58878 14.1432 3.58878C14.2665 3.58878 14.3683 3.62658 14.3693 3.6729C14.3702 3.71921 14.6225 3.88049 14.93 4.03144C15.2374 4.18239 15.489 4.34635 15.489 4.39593C15.489 4.4455 15.5899 4.48598 15.7133 4.48598C15.8366 4.48598 15.9376 4.52591 15.9376 4.57469C15.9376 4.62348 16.2278 4.81032 16.5824 4.98976C17.7656 5.58864 17.9918 5.78804 18.0026 6.24191C18.0096 6.53495 17.9511 6.6831 17.7928 6.77282C17.672 6.84123 17.5077 6.95697 17.4276 7.02998C17.3475 7.1031 17.1814 7.19484 17.0584 7.23387C16.9354 7.2729 16.8348 7.34579 16.8348 7.39581C16.8348 7.44583 16.6834 7.54957 16.4983 7.62617C16.3133 7.70277 16.1619 7.80987 16.1619 7.86404C16.1619 8.00972 15.7391 7.98392 15.6895 7.83521C15.6662 7.76512 15.4283 7.7077 15.1609 7.7077C14.7811 7.7077 14.663 7.66206 14.6203 7.49877C14.5902 7.38381 14.521 7.28972 14.4665 7.28972C14.4121 7.28972 14.3675 7.21402 14.3675 7.1215C14.3675 7.02897 14.317 6.95327 14.2553 6.95327C14.1936 6.95327 14.1432 6.87757 14.1432 6.78505C14.1432 6.69252 14.0927 6.61682 14.031 6.61682C13.9693 6.61682 13.9189 6.54112 13.9189 6.4486C13.9189 6.35607 13.8684 6.28037 13.8067 6.28037C13.7451 6.28037 13.6946 6.20467 13.6946 6.11215C13.6946 6.01963 13.6565 5.94392 13.6098 5.94392C13.5631 5.94392 13.4525 5.77985 13.3637 5.57944C13.275 5.37892 13.1113 5.11716 12.9999 4.9975C12.8886 4.87794 12.7974 4.71398 12.7974 4.63301C12.7974 4.55215 12.7469 4.48598 12.6852 4.48598C12.6236 4.48598 12.5731 4.4372 12.5731 4.37764C12.5731 4.27705 11.805 3.00931 11.5812 2.7406C11.455 2.58897 11.2273 2.16538 11.2273 2.08217C11.2273 1.98695 11.6514 2.00568 11.6946 2.1028ZM10.8427 2.40325C10.9309 2.49129 11.003 2.59458 11.003 2.6326C11.003 2.67062 11.2553 3.0757 11.5637 3.53271C11.8722 3.98972 12.1245 4.40692 12.1245 4.45974C12.1245 4.51256 12.2128 4.65578 12.3208 4.77802C12.5698 5.05996 12.9048 5.60501 12.9856 5.85981C13.0199 5.9677 13.0925 6.05607 13.147 6.05607C13.2013 6.05607 13.246 6.13178 13.246 6.2243C13.246 6.31682 13.2965 6.39252 13.3581 6.39252C13.4198 6.39252 13.4703 6.46822 13.4703 6.56075C13.4703 6.65327 13.5208 6.72897 13.5824 6.72897C13.6441 6.72897 13.6946 6.80467 13.6946 6.8972C13.6946 6.98972 13.7451 7.06542 13.8067 7.06542C13.8684 7.06542 13.9189 7.14325 13.9189 7.23835C13.9189 7.33346 14.0198 7.51963 14.1432 7.65196C14.3823 7.90856 14.4406 8.18692 14.2553 8.18692C14.1936 8.18692 14.1432 8.25723 14.1432 8.34314C14.1432 8.42905 14.0633 8.52998 13.9658 8.56744C13.8682 8.6049 12.1957 8.63551 10.2491 8.63551C7.01002 8.63551 6.69735 8.61892 6.56098 8.43925C6.38602 8.20879 6.35451 7.62617 6.51701 7.62617C6.57869 7.62617 6.62916 7.55047 6.62916 7.45794C6.62916 7.36542 6.67963 7.28972 6.74131 7.28972C6.80299 7.28972 6.85346 7.23645 6.85346 7.1714C6.85346 7.10635 7.05533 6.75589 7.30206 6.39252C7.54879 6.02916 7.75066 5.67869 7.75066 5.61364C7.75066 5.5486 7.80112 5.49533 7.86281 5.49533C7.92449 5.49533 7.97496 5.41963 7.97496 5.3271C7.97496 5.23458 8.02542 5.15888 8.08711 5.15888C8.14879 5.15888 8.19926 5.10763 8.19926 5.04505C8.19926 4.98236 8.3695 4.66699 8.57765 4.34411C8.7858 4.02123 9.17126 3.4163 9.43436 3C9.87331 2.30535 9.94441 2.24299 10.2977 2.24299C10.5093 2.24299 10.7547 2.3151 10.8427 2.40325ZM44.4236 5.19398C44.0226 5.3289 43.4675 5.57361 43.1899 5.73791C42.5849 6.09589 41.402 7.22366 41.1801 7.65421C41.0927 7.82389 40.9792 7.96262 40.928 7.96262C40.8767 7.96262 40.8348 8.06355 40.8348 8.18692C40.8348 8.31028 40.7843 8.41121 40.7226 8.41121C40.6609 8.41121 40.6105 8.50912 40.6105 8.6289C40.6105 8.74867 40.56 8.87776 40.4983 8.91589C40.4366 8.95402 40.3862 9.13357 40.3862 9.31503C40.3862 9.49649 40.3357 9.64486 40.274 9.64486C40.2048 9.64486 40.1619 10.2243 40.1619 11.1589C40.1619 12.0934 40.2048 12.6729 40.274 12.6729C40.3357 12.6729 40.3862 12.8243 40.3862 13.0093C40.3862 13.1944 40.4366 13.3458 40.4983 13.3458C40.56 13.3458 40.6105 13.4114 40.6105 13.4917C40.6105 13.6979 40.8742 14.2411 40.975 14.2421C41.0213 14.2425 41.0591 14.3254 41.0591 14.4261C41.0591 14.5268 41.1478 14.6908 41.2561 14.7906C41.3645 14.8903 41.5179 15.0985 41.5969 15.2532C41.676 15.4079 41.9058 15.6476 42.1076 15.7857C42.3093 15.924 42.5723 16.128 42.692 16.2391C43.0064 16.5311 43.8082 16.9361 44.76 17.2838C45.1761 17.4358 52.0442 17.5773 52.5723 17.4447L52.8411 17.3773L52.7932 13.9877C52.7444 10.5421 52.6694 9.42056 52.4874 9.42056C52.4318 9.42056 52.3862 9.26916 52.3862 9.08411C52.3862 8.89907 52.3357 8.74766 52.274 8.74766C52.2123 8.74766 52.1619 8.64673 52.1619 8.52336C52.1619 8.4 52.1114 8.29907 52.0497 8.29907C51.988 8.29907 51.9376 8.19813 51.9376 8.07477C51.9376 7.9514 51.8871 7.85047 51.8254 7.85047C51.7637 7.85047 51.7133 7.78587 51.7133 7.70703C51.7133 7.62807 51.6123 7.4908 51.489 7.40187C51.3656 7.31293 51.2647 7.19585 51.2647 7.14168C51.2647 7.04736 50.9539 6.7348 50.3276 6.19907C49.9512 5.8772 48.7926 5.29301 48.1341 5.09316C47.3056 4.84161 45.3097 4.89589 44.4236 5.19398ZM58.6043 5.20228C56.951 5.80127 55.7811 6.81578 54.867 8.44318C54.7362 8.67611 54.6292 8.94146 54.6292 9.03297C54.6292 9.12449 54.5832 9.28699 54.5269 9.39409C54.3164 9.79492 54.159 10.8488 54.2211 11.4421C54.3523 12.6961 54.4301 13.1215 54.5283 13.1215C54.5837 13.1215 54.6292 13.2729 54.6292 13.4579C54.6292 13.643 54.6796 13.7944 54.7413 13.7944C54.803 13.7944 54.8535 13.8953 54.8535 14.0187C54.8535 14.1421 54.8946 14.243 54.9449 14.243C54.9951 14.243 55.1169 14.4071 55.2155 14.6075C55.6365 15.4633 56.8797 16.5587 58.039 17.0953C58.6465 17.3764 59.8275 17.6083 60.6292 17.6035C61.6625 17.5975 63.6 17.1061 63.6933 16.8264C63.7145 16.7625 63.8176 16.7103 63.9222 16.7103C64.0267 16.7103 64.1851 16.6093 64.274 16.486C64.363 16.3626 64.4902 16.2617 64.5569 16.2617C64.7097 16.2617 65.732 15.2754 65.732 15.1281C65.732 15.0679 65.8329 14.9103 65.9563 14.7779C66.0796 14.6455 66.1806 14.471 66.1806 14.39C66.1806 14.3092 66.231 14.243 66.2927 14.243C66.3544 14.243 66.4049 14.1421 66.4049 14.0187C66.4049 13.8953 66.4443 13.7944 66.4926 13.7944C66.5408 13.7944 66.6543 13.5547 66.7449 13.2617C66.9569 12.5757 66.9726 9.40419 66.7642 9.33477C66.6899 9.30998 66.6292 9.19458 66.6292 9.07817C66.6292 8.88706 66.5488 8.71503 66.0509 7.84082C65.968 7.69525 65.7615 7.44101 65.5918 7.27581C65.4221 7.11062 65.2834 6.91996 65.2834 6.85222C65.2834 6.78437 65.2456 6.72852 65.1993 6.72796C65.1529 6.72751 64.9348 6.55604 64.7143 6.3471C64.2395 5.89682 63.0963 5.29761 62.3114 5.08744C61.4043 4.84452 59.4224 4.90598 58.6043 5.20228ZM26.1432 11.2599V17.4953H27.7602C28.6495 17.4953 29.457 17.4647 29.5545 17.4273C29.7112 17.3671 29.732 16.9407 29.732 13.7858C29.732 10.4181 29.7449 10.1895 29.9567 9.8123C30.239 9.30964 30.9058 8.63551 31.1207 8.63551C31.2102 8.63551 31.3024 8.57843 31.3256 8.50867C31.394 8.30366 33.1044 8.33619 33.5568 8.55118C34.0128 8.76785 34.4399 9.20366 34.7934 9.81308C35.047 10.2502 35.0551 10.3534 35.1125 13.8505L35.1712 17.4393L36.8815 17.4702L38.5918 17.5012V13.7412C38.5918 11.3094 38.5522 9.98131 38.4796 9.98131C38.4179 9.98131 38.3675 9.80467 38.3675 9.58879C38.3675 9.3729 38.317 9.19626 38.2553 9.19626C38.1936 9.19626 38.1432 9.07009 38.1432 8.91589C38.1432 8.76168 38.0927 8.63551 38.031 8.63551C37.9693 8.63551 37.9189 8.53458 37.9189 8.41121C37.9189 8.28785 37.8684 8.18692 37.8067 8.18692C37.7451 8.18692 37.6946 8.10763 37.6946 8.01073C37.6946 7.73664 35.9004 6.02142 35.338 5.75776C33.9827 5.12265 33.9736 5.12142 29.9282 5.0714L26.1432 5.02452V11.2599ZM1.74146 5.7877C1.84632 5.82796 1.91888 5.98766 1.91888 6.17809C1.91888 6.42875 1.8563 6.51611 1.63705 6.57118C1.1538 6.69241 0.818246 6.19222 1.15626 5.85421C1.30565 5.70482 1.47522 5.68553 1.74146 5.7877ZM19.5311 5.95267C19.6819 6.23462 19.6128 6.4505 19.3218 6.60628C19.1528 6.69667 19.0478 6.67323 18.8485 6.50041C18.6182 6.30067 18.6074 6.25009 18.7419 5.99899C18.9275 5.65211 19.3568 5.62699 19.5311 5.95267ZM2.85488 7.31406C3.04946 7.45077 3.27197 7.62415 3.34946 7.69929C3.42696 7.77432 3.59092 7.86774 3.71395 7.90677C3.83698 7.94579 3.93757 8.02138 3.93757 8.07477C3.93757 8.12815 4.03851 8.20385 4.16187 8.24299C4.34176 8.30007 4.38617 8.41267 4.38617 8.81125C4.38617 9.08467 4.43664 9.30841 4.49832 9.30841C4.56 9.30841 4.61047 9.38411 4.61047 9.47663C4.61047 9.56916 4.67361 9.6489 4.75066 9.65372C4.86281 9.66078 4.86281 9.67391 4.75066 9.7191C4.67361 9.75028 4.61047 9.87241 4.61047 9.99062C4.61047 10.1089 4.56 10.2056 4.49832 10.2056C4.43664 10.2056 4.38617 10.3065 4.38617 10.4299C4.38617 10.5533 4.3357 10.6542 4.27402 10.6542C4.21234 10.6542 4.16187 10.7551 4.16187 10.8785C4.16187 11.0019 4.1114 11.1028 4.04972 11.1028C3.98804 11.1028 3.93757 11.1926 3.93757 11.3023C3.93757 11.4121 3.83664 11.5746 3.71327 11.6636C3.58991 11.7525 3.48898 11.915 3.48898 12.0248C3.48898 12.1345 3.43851 12.2243 3.37683 12.2243C3.31514 12.2243 3.26468 12.3252 3.26468 12.4486C3.26468 12.572 3.21421 12.6729 3.15253 12.6729C3.09084 12.6729 3.04038 12.7738 3.04038 12.8972C3.04038 13.0206 2.98991 13.1215 2.92823 13.1215C2.86654 13.1215 2.81608 13.2224 2.81608 13.3458C2.81608 13.4692 2.76561 13.5701 2.70393 13.5701C2.64225 13.5701 2.59178 13.671 2.59178 13.7944C2.59178 13.9178 2.55073 14.0187 2.5006 14.0187C2.45036 14.0187 2.34 14.1953 2.25533 14.4112C2.17066 14.6271 2.0603 14.8037 2.01006 14.8037C1.95993 14.8037 1.91888 14.8794 1.91888 14.972C1.91888 15.0645 1.86841 15.1402 1.80673 15.1402C1.73406 15.1402 1.69458 13.7628 1.69458 11.2321V7.32404L1.94692 7.20224C2.32083 7.02202 2.46438 7.03963 2.85488 7.31406ZM18.6572 7.22153C18.8374 7.35835 18.8535 7.68437 18.8535 11.1993C18.8535 13.677 18.8139 15.028 18.7413 15.028C18.6796 15.028 18.6292 14.9523 18.6292 14.8598C18.6292 14.7673 18.5787 14.6916 18.517 14.6916C18.4553 14.6916 18.4049 14.5907 18.4049 14.4673C18.4049 14.3439 18.3544 14.243 18.2927 14.243C18.231 14.243 18.1806 14.1421 18.1806 14.0187C18.1806 13.8953 18.1301 13.7944 18.0684 13.7944C18.0067 13.7944 17.9563 13.6935 17.9563 13.5701C17.9563 13.4467 17.9058 13.3458 17.8441 13.3458C17.7824 13.3458 17.732 13.2449 17.732 13.1215C17.732 12.9981 17.6815 12.8972 17.6198 12.8972C17.5581 12.8972 17.5077 12.7963 17.5077 12.6729C17.5077 12.5495 17.4634 12.4486 17.4091 12.4486C17.3549 12.4486 17.2478 12.2972 17.1712 12.1121C17.0946 11.9271 16.9875 11.7757 16.9333 11.7757C16.8791 11.7757 16.8348 11.6748 16.8348 11.5514C16.8348 11.428 16.7843 11.3271 16.7226 11.3271C16.6609 11.3271 16.6105 11.2262 16.6105 11.1028C16.6105 10.9794 16.56 10.8785 16.4983 10.8785C16.4366 10.8785 16.3862 10.7776 16.3862 10.6542C16.3862 10.5308 16.3357 10.4299 16.274 10.4299C16.2123 10.4299 16.1619 10.329 16.1619 10.2056C16.1619 10.0822 16.1114 9.98131 16.0497 9.98131C15.988 9.98131 15.9376 9.85514 15.9376 9.70093C15.9376 9.54673 15.988 9.42056 16.0497 9.42056C16.1114 9.42056 16.1619 9.29439 16.1619 9.14019C16.1619 8.98598 16.225 8.85577 16.3021 8.85095C16.4142 8.84389 16.4142 8.83077 16.3021 8.78557C16.225 8.75439 16.1619 8.676 16.1619 8.61129C16.1619 8.46022 16.5747 8.10123 16.8481 8.01443C16.9641 7.97764 17.0591 7.90654 17.0591 7.85652C17.0591 7.8065 17.2105 7.70277 17.3955 7.62617C17.5806 7.54957 17.732 7.45021 17.732 7.40535C17.732 7.3163 18.1695 7.08303 18.3488 7.07652C18.4105 7.07439 18.5492 7.13955 18.6572 7.22153ZM5.77884 8.36714C6.13066 8.50217 5.89828 9.30841 5.50767 9.30841C5.28898 9.30841 5.05907 9.00123 5.05907 8.70897C5.05907 8.35548 5.36726 8.20912 5.77884 8.36714ZM15.4718 8.50845C15.7535 8.75282 15.7755 8.92576 15.553 9.14815C15.25 9.45129 14.5918 9.2492 14.5918 8.85297C14.5918 8.71458 15.0125 8.29907 15.1525 8.29907C15.1954 8.29907 15.339 8.39327 15.4718 8.50845ZM47.9858 8.7803C48.3185 8.97936 48.6362 9.26938 48.7141 9.44512C48.79 9.61671 48.8902 9.75701 48.9369 9.75701C48.9836 9.75701 49.0217 9.85794 49.0217 9.98131C49.0217 10.1047 49.0722 10.2056 49.1338 10.2056C49.295 10.2056 49.2736 11.737 49.1058 12.2163C48.9653 12.6177 48.1192 13.5701 47.9031 13.5701C47.8399 13.5701 47.788 13.6206 47.788 13.6822C47.788 13.7439 47.6901 13.7944 47.5704 13.7944C47.4506 13.7944 47.3215 13.8449 47.2834 13.9065C47.2452 13.9682 46.8667 14.0187 46.4422 14.0187C46.0178 14.0187 45.6393 13.9682 45.6011 13.9065C45.563 13.8449 45.4339 13.7944 45.3141 13.7944C45.1944 13.7944 45.0965 13.7439 45.0965 13.6822C45.0965 13.6206 45.0158 13.5701 44.9171 13.5701C44.7366 13.5701 44.0871 12.9528 44.0871 12.7812C44.0871 12.7304 44.0241 12.6222 43.9469 12.5407C43.7392 12.3212 43.5264 11.6453 43.5264 11.2054C43.5264 9.95731 44.6812 8.53391 45.8254 8.37129C46.5633 8.26654 47.3876 8.42254 47.9858 8.7803ZM61.7387 8.58168C62.3363 8.83133 63.2647 9.77843 63.2647 10.1384C63.2647 10.2987 63.3151 10.4299 63.3768 10.4299C63.4409 10.4299 63.489 10.7664 63.489 11.215C63.489 11.6636 63.4409 12 63.3768 12C63.3151 12 63.2647 12.1294 63.2647 12.2877C63.2647 12.6123 62.1705 13.7944 61.8701 13.7944C61.7735 13.7944 61.6946 13.8449 61.6946 13.9065C61.6946 13.9682 61.4927 14.0187 61.246 14.0187C60.9993 14.0187 60.7974 14.071 60.7974 14.1348C60.7974 14.2148 60.73 14.2148 60.5805 14.1348C60.4612 14.071 60.2388 14.0187 60.0864 14.0187C59.9339 14.0187 59.6013 13.9078 59.3473 13.7721C57.2753 12.6662 57.271 9.82138 59.3394 8.64953C59.8357 8.36837 61.1399 8.33148 61.7387 8.58168ZM14.1432 9.30841C14.1432 9.43178 14.1936 9.53271 14.2553 9.53271C14.4536 9.53271 14.3749 9.92647 14.1432 10.0935C14.0198 10.1824 13.9189 10.3449 13.9189 10.4547C13.9189 10.5644 13.8684 10.6542 13.8067 10.6542C13.7451 10.6542 13.6946 10.7551 13.6946 10.8785C13.6946 11.0019 13.6503 11.1028 13.596 11.1028C13.5418 11.1028 13.4347 11.2542 13.3581 11.4393C13.2815 11.6243 13.1744 11.7757 13.1203 11.7757C13.066 11.7757 13.0217 11.8766 13.0217 12C13.0217 12.1234 12.9712 12.2243 12.9095 12.2243C12.8479 12.2243 12.7974 12.3141 12.7974 12.4238C12.7974 12.5336 12.6965 12.6961 12.5731 12.785C12.4497 12.874 12.3488 13.0365 12.3488 13.1463C12.3488 13.256 12.2983 13.3458 12.2366 13.3458C12.175 13.3458 12.1245 13.4467 12.1245 13.5701C12.1245 13.6935 12.084 13.7944 12.0344 13.7944C11.9849 13.7944 11.8209 14.0459 11.6699 14.3533C11.519 14.6609 11.3576 14.9132 11.3114 14.9141C11.2652 14.9151 11.2273 14.9675 11.2273 15.0304C11.2273 15.0934 11.0927 15.3483 10.9282 15.5969C10.6754 15.979 10.5775 16.0436 10.295 16.0151C9.95529 15.9807 9.6655 15.5972 8.85533 14.11C8.71032 13.8439 8.56531 13.6009 8.53301 13.5701C8.5006 13.5393 8.34931 13.2742 8.19668 12.9813C8.04415 12.6884 7.88131 12.4486 7.83499 12.4486C7.78856 12.4486 7.75066 12.3477 7.75066 12.2243C7.75066 12.1009 7.70636 12 7.65208 12C7.59791 12 7.49081 11.8486 7.41421 11.6636C7.33761 11.4785 7.23051 11.3271 7.17634 11.3271C7.12206 11.3271 7.07776 11.2262 7.07776 11.1028C7.07776 10.9794 7.02729 10.8785 6.96561 10.8785C6.90393 10.8785 6.85346 10.7776 6.85346 10.6542C6.85346 10.5308 6.80916 10.4299 6.75488 10.4299C6.62243 10.4299 6.34284 9.74389 6.38916 9.53271C6.48651 9.08994 6.53821 9.08411 10.3999 9.08411C14.0684 9.08411 14.1432 9.0886 14.1432 9.30841ZM6.18056 10.4813C6.18056 10.5764 6.22486 10.6542 6.27914 10.6542C6.33331 10.6542 6.44041 10.8056 6.51701 10.9907C6.59361 11.1757 6.70071 11.3271 6.75488 11.3271C6.80916 11.3271 6.85346 11.428 6.85346 11.5514C6.85346 11.6748 6.89529 11.7757 6.94643 11.7757C6.99757 11.7757 7.15761 12.028 7.30206 12.3364C7.44651 12.6449 7.60654 12.8972 7.65769 12.8972C7.70883 12.8972 7.75066 12.9981 7.75066 13.1215C7.75066 13.2449 7.79249 13.3458 7.84363 13.3458C7.89477 13.3458 8.05481 13.5981 8.19926 13.9065C8.3437 14.215 8.4978 14.4673 8.54176 14.4673C8.58572 14.4673 8.65043 14.5556 8.68554 14.6636C8.72075 14.7716 8.92509 15.1822 9.13963 15.5764C9.50591 16.2493 9.51914 16.3091 9.35664 16.5572C9.19952 16.797 9.12483 16.8159 8.55118 16.7622C8.2034 16.7297 7.36374 16.6514 6.68524 16.5885C6.00673 16.5255 5.01926 16.4261 4.49069 16.3678C3.96225 16.3095 3.31884 16.2617 3.06079 16.2617C2.67331 16.2617 2.59178 16.2243 2.59178 16.0467C2.59178 15.9285 2.53335 15.8123 2.46191 15.7885C2.31668 15.7401 2.30243 15.0314 2.44453 14.9269C2.56699 14.8368 2.92677 14.2349 3.00426 13.9907C3.03858 13.8827 3.11114 13.7944 3.16565 13.7944C3.22004 13.7944 3.26468 13.6935 3.26468 13.5701C3.26468 13.4467 3.31514 13.3458 3.37683 13.3458C3.43851 13.3458 3.48898 13.2449 3.48898 13.1215C3.48898 12.9981 3.53944 12.8972 3.60112 12.8972C3.66281 12.8972 3.71327 12.7963 3.71327 12.6729C3.71327 12.5495 3.76374 12.4486 3.82542 12.4486C3.88711 12.4486 3.93757 12.3477 3.93757 12.2243C3.93757 12.1009 3.98804 12 4.04972 12C4.1114 12 4.16187 11.8991 4.16187 11.7757C4.16187 11.6523 4.20651 11.5514 4.2609 11.5514C4.3154 11.5514 4.38797 11.4631 4.42228 11.3551C4.5055 11.0927 4.86965 10.4954 4.97496 10.4486C5.02127 10.428 5.05907 10.3176 5.05907 10.2034C5.05907 10.051 5.1563 9.98602 5.42355 9.95977C5.8135 9.92142 6.18056 10.1743 6.18056 10.4813ZM15.5731 10.1618C15.6502 10.2388 15.7133 10.381 15.7133 10.478C15.7133 10.5749 15.7637 10.6542 15.8254 10.6542C15.8871 10.6542 15.9376 10.7299 15.9376 10.8224C15.9376 10.915 15.988 10.9907 16.0497 10.9907C16.1114 10.9907 16.1619 11.0664 16.1619 11.1589C16.1619 11.2514 16.2123 11.3271 16.274 11.3271C16.3357 11.3271 16.3862 11.428 16.3862 11.5514C16.3862 11.6748 16.4366 11.7757 16.4983 11.7757C16.56 11.7757 16.6105 11.8766 16.6105 12C16.6105 12.1234 16.6609 12.2243 16.7226 12.2243C16.7843 12.2243 16.8348 12.3252 16.8348 12.4486C16.8348 12.572 16.8852 12.6729 16.9469 12.6729C17.0086 12.6729 17.0591 12.7738 17.0591 12.8972C17.0591 13.0206 17.1095 13.1215 17.1712 13.1215C17.2329 13.1215 17.2834 13.2224 17.2834 13.3458C17.2834 13.4692 17.3213 13.5705 17.3675 13.571C17.4137 13.5714 17.5071 13.685 17.5751 13.8233C17.9065 14.4982 18.2452 15.0879 18.3208 15.1215C18.4325 15.1711 18.4294 15.5888 18.3173 15.5888C18.2692 15.5888 18.1753 15.7331 18.1087 15.9095C17.9943 16.2126 17.9422 16.2339 17.1589 16.2972C16.703 16.3342 15.775 16.418 15.0965 16.4835C11.4387 16.8367 11.5263 16.8345 11.3088 16.5775C11.0684 16.2934 11.1095 16.1419 11.6841 15.1963C11.9263 14.7976 12.1245 14.42 12.1245 14.3572C12.1245 14.2944 12.1624 14.2422 12.2086 14.2412C12.2548 14.2403 12.4162 13.988 12.5671 13.6804C12.7181 13.373 12.8821 13.1215 12.9316 13.1215C12.9812 13.1215 13.0217 13.0206 13.0217 12.8972C13.0217 12.7738 13.066 12.6729 13.1203 12.6729C13.1744 12.6729 13.2815 12.5215 13.3581 12.3364C13.4347 12.1514 13.5418 12 13.596 12C13.6503 12 13.6946 11.8991 13.6946 11.7757C13.6946 11.6523 13.7451 11.5514 13.8067 11.5514C13.8684 11.5514 13.9189 11.4736 13.9189 11.3785C13.9189 11.2834 14.0198 11.0972 14.1432 10.9649C14.2665 10.8324 14.3675 10.6579 14.3675 10.5769C14.3675 10.4961 14.4179 10.4299 14.4796 10.4299C14.5413 10.4299 14.5918 10.3327 14.5918 10.2138C14.5918 9.87174 15.2476 9.83697 15.5731 10.1618ZM1.75862 15.9733C1.99705 16.2117 1.9615 16.6816 1.69884 16.765C1.17006 16.9329 0.785947 16.2971 1.21795 15.9692C1.47107 15.7771 1.56314 15.7778 1.75862 15.9733ZM19.4703 16.0776C19.7893 16.5646 19.3807 16.9733 18.8937 16.6542C18.5622 16.437 18.5571 16.2128 18.8785 15.9877C19.208 15.7568 19.2658 15.7656 19.4703 16.0776ZM5.45159 16.9428C6.25346 17.0093 7.41006 17.0976 8.02172 17.1393C8.8643 17.1966 9.14703 17.2558 9.18763 17.3832C9.21712 17.4757 9.43582 17.7329 9.67357 17.9547L10.1058 18.3581V19.3321C10.1058 20.1574 10.0759 20.3171 9.90954 20.3785C9.80154 20.4184 9.67873 20.5027 9.63645 20.5661C9.56849 20.668 9.06438 20.4921 8.87215 20.2993C8.84131 20.2683 8.69563 20.1751 8.54838 20.0923C7.46456 19.4819 6.3784 18.856 6.18056 18.7277C6.08804 18.6677 5.70954 18.4603 5.33944 18.2668C4.96935 18.0733 4.64131 17.8775 4.61047 17.8318C4.57963 17.786 4.23028 17.5855 3.83406 17.3862C3.43783 17.1869 3.03555 16.9458 2.94023 16.8505C2.78378 16.6939 2.82673 16.684 3.38019 16.7494C3.71765 16.7893 4.64972 16.8763 5.45159 16.9428ZM10.6621 16.8731C10.9801 17.2562 10.4527 17.7478 10.0441 17.449C9.7532 17.2363 9.90864 16.7103 10.2625 16.7103C10.4079 16.7103 10.5877 16.7835 10.6621 16.8731ZM17.3394 17.0896C16.9693 17.2954 16.3637 17.6313 15.9936 17.8361C15.6236 18.041 15.2955 18.2416 15.2647 18.2819C15.2338 18.3222 14.8806 18.5263 14.4796 18.7357C14.0787 18.945 13.7254 19.1438 13.6946 19.1777C13.6637 19.2114 13.3987 19.364 13.1058 19.5166C12.8129 19.6691 12.5731 19.832 12.5731 19.8783C12.5731 19.9247 12.4722 19.9626 12.3488 19.9626C12.2254 19.9626 12.1245 20.0005 12.1245 20.047C12.1245 20.2022 11.1012 20.6818 11.0222 20.5635C10.9808 20.5016 10.8587 20.4184 10.7507 20.3785C10.5837 20.3169 10.5544 20.1556 10.5544 19.2958C10.5544 18.3438 10.5704 18.275 10.8328 18.1032C10.9859 18.0028 11.2141 17.7543 11.3398 17.5508C11.5644 17.1874 11.5851 17.1801 12.5474 17.1233C14.2357 17.0237 16.3012 16.8326 16.3636 16.7702C16.3966 16.7372 16.7811 16.7114 17.218 16.7129L18.0123 16.7153L17.3394 17.0896ZM54.2212 18.0841C54.4017 19.3173 54.4516 19.5061 54.7544 20.1012C54.8089 20.2083 54.8535 20.3724 54.8535 20.4657C54.8535 20.5591 54.8978 20.6355 54.952 20.6355C55.0062 20.6355 55.1112 20.7819 55.1852 20.9607C55.3142 21.2718 56.5487 22.6542 56.6977 22.6542C56.7371 22.6542 56.8778 22.7551 57.0101 22.8785C57.1425 23.0019 57.3171 23.1028 57.398 23.1028C57.4789 23.1028 57.5451 23.1533 57.5451 23.215C57.5451 23.2766 57.646 23.3271 57.7694 23.3271C57.8927 23.3271 57.9936 23.3776 57.9936 23.4393C57.9936 23.5009 58.1198 23.5514 58.274 23.5514C58.4282 23.5514 58.5544 23.6019 58.5544 23.6636C58.5544 23.7252 58.7563 23.7757 59.003 23.7757C59.2497 23.7757 59.4516 23.8262 59.4516 23.8878C59.4516 23.9551 59.9002 24 60.5731 24C61.246 24 61.6946 23.9551 61.6946 23.8878C61.6946 23.8262 61.9469 23.7757 62.2553 23.7757C62.5637 23.7757 62.8161 23.7252 62.8161 23.6636C62.8161 23.6019 62.917 23.5514 63.0404 23.5514C63.1637 23.5514 63.2647 23.5009 63.2647 23.4393C63.2647 23.3776 63.3656 23.3271 63.489 23.3271C63.6123 23.3271 63.7133 23.2766 63.7133 23.215C63.7133 23.1533 63.8031 23.1028 63.9128 23.1028C64.0226 23.1028 64.1851 23.0019 64.274 22.8785C64.363 22.7551 64.4877 22.654 64.5511 22.6536C64.7265 22.6529 65.732 21.6456 65.732 21.4707C65.732 21.4379 65.8329 21.3028 65.9563 21.1705C66.0796 21.038 66.1806 20.8635 66.1806 20.7825C66.1806 20.7017 66.231 20.6355 66.2927 20.6355C66.3544 20.6355 66.4049 20.5346 66.4049 20.4112C66.4049 20.2878 66.4553 20.1869 66.517 20.1869C66.5787 20.1869 66.6292 20.0961 66.6292 19.985C66.6292 19.874 66.6785 19.7338 66.7387 19.6736C66.799 19.6134 66.8822 19.1238 66.9236 18.5858L66.9987 17.6075H65.2439H63.489V18.0561C63.489 18.3028 63.4385 18.5047 63.3768 18.5047C63.3151 18.5047 63.2647 18.6056 63.2647 18.729C63.2647 18.8523 63.2142 18.9533 63.1525 18.9533C63.0908 18.9533 63.0404 19.0088 63.0404 19.0766C63.0404 19.2791 62.3445 19.9126 61.8387 20.1705C61.4985 20.3441 61.1623 20.4112 60.6324 20.4112C59.636 20.4112 58.9875 20.1077 58.343 19.3397C58.1425 19.1007 57.7694 18.1192 57.7694 17.8305C57.7694 17.6171 57.6913 17.6075 55.9604 17.6075H54.1514L54.2212 18.0841ZM10.6184 21.0201C10.8685 21.2701 10.8261 21.757 10.5544 21.757C10.431 21.757 10.3301 21.807 10.3301 21.868C10.3301 21.9292 10.2292 21.8927 10.1058 21.7871C9.83294 21.5533 9.82127 21.3366 10.0671 21.0649C10.2906 20.818 10.4069 20.8084 10.6184 21.0201Z" fill="white"/>
</svg>
