<svg width="52" height="20" viewBox="0 0 52 20" fill="none" xmlns="http://www.w3.org/2000/svg">
<path id="Path" fill-rule="evenodd" clip-rule="evenodd" d="M5.92962 19.5217C4.39464 19.4584 3.13812 19.0223 2.15609 18.2125C1.9688 18.0578 1.52189 17.594 1.37225 17.3984C0.973892 16.8786 0.702372 16.3727 0.52202 15.8115C-0.033901 14.084 0.252483 11.8169 1.34054 9.32891C2.27203 7.19884 3.7089 5.08621 6.21699 2.16028C6.58562 1.72974 7.68557 0.470581 7.6935 0.470581C7.6935 0.470581 7.63603 0.578354 7.56071 0.709588C6.90867 1.84296 6.35077 3.17797 6.04655 4.33372C5.55801 6.18822 5.61747 7.77973 6.21897 9.01374C6.63418 9.86396 7.34568 10.6003 8.14636 11.0074C9.54756 11.7198 11.5988 11.7787 14.1029 11.1798C14.2754 11.1384 22.8213 8.78403 33.0944 5.94784C43.3676 3.1114 51.7738 0.792534 51.7748 0.79444C51.7777 0.796898 27.9088 11.3967 15.517 16.8959C13.555 17.7664 13.0307 17.9863 12.1082 18.3225C9.74971 19.1819 7.63702 19.5921 5.92962 19.5217Z" fill="black"/>
</svg>
