<svg width="74" height="24" viewBox="0 0 74 24" fill="none" xmlns="http://www.w3.org/2000/svg">
<g clip-path="url(#clip0_3868_89028)">
<mask id="mask0_3868_89028" style="mask-type:luminance" maskUnits="userSpaceOnUse" x="0" y="0" width="74" height="24">
<path d="M0.851562 0H73.2801V24H0.851562V0Z" fill="white"/>
</mask>
<g mask="url(#mask0_3868_89028)">
<path d="M9.91328 10.6414C7.04185 10.6414 4.70399 8.253 4.70399 5.31857C4.70399 2.385 7.04142 0 9.91328 0C12.7851 0 15.123 2.38843 15.123 5.32286C15.123 8.25643 12.7851 10.6449 9.91328 10.6449V10.6414ZM9.91328 2.90443C8.60742 2.90443 7.55013 3.98829 7.55013 5.319C7.55013 6.64929 8.61085 7.73314 9.91328 7.73314C11.2161 7.73314 12.2768 6.64929 12.2768 5.319C12.2768 3.98829 11.2157 2.90443 9.91328 2.90443ZM5.30742 9.21729H0.851562V24H5.30742V9.21729ZM14.1278 17.1261C13.7143 16.9097 13.1807 16.8197 12.54 16.8197H10.7074V24H12.1667V21.5927H12.4118C13.0303 21.5927 13.5206 21.4959 13.9157 21.3424C14.9584 20.9276 15.3128 20.0344 15.3128 19.197C15.3128 18.2066 14.8958 17.4999 14.1278 17.1261ZM13.2536 20.2436C13.0633 20.3409 12.8036 20.3854 12.4963 20.3854H12.1671V18.0347H12.4744C12.8258 18.0347 13.0851 18.0793 13.2866 18.1989C13.638 18.4157 13.7987 18.786 13.7987 19.2009C13.7987 19.7014 13.6303 20.0717 13.257 20.2474L13.2536 20.2436ZM17.7788 16.8197L15.0386 24H16.5424L17.1938 22.2471H19.5823L20.2667 24H21.8323L18.9643 16.8197H17.7788ZM17.6104 21.0471L18.0347 19.8471C18.225 19.3243 18.3313 19.0174 18.3861 18.7671H18.408C18.5034 19.1254 18.6096 19.4807 18.7264 19.8326L19.1434 21.0433H17.607L17.6104 21.0471ZM26.0104 20.763V20.7407C26.8003 20.4904 27.375 19.8364 27.375 18.8979C27.375 18.1354 27.0673 17.4476 26.2556 17.0893C25.8823 16.9136 25.4138 16.8159 24.7847 16.8159H22.6847V23.9961H24.1444V21.2829H24.6784C24.8507 21.3274 25.0958 21.6 25.4468 22.2729L26.376 23.9927H28.0478L26.9104 21.933C26.5371 21.2679 26.226 20.8753 26.0138 20.7557L26.0104 20.763ZM25.392 19.926C25.2129 20.0229 25.008 20.079 24.6896 20.079H24.1444V18.0309H24.6973C25.0187 18.0309 25.2201 18.0831 25.3808 18.1839C25.692 18.3484 25.8604 18.6737 25.8604 19.0551C25.8604 19.4584 25.6663 19.7537 25.392 19.926ZM42.7547 18.0831H44.7998V24H46.263V18.0831H48.1067L48.4911 16.8197H42.7547V18.0831ZM41.646 18.0831L42.0304 16.8197H37.9697V24H42.0197V22.7366H39.429V20.9949H41.6571V19.7391H39.429V18.0831H41.646ZM30.459 16.8197H28.9993V24H30.459V16.8197ZM31.41 18.0831H33.4551V24H34.9183V18.0831H36.762L37.1464 16.8197H31.41V18.0831ZM70.167 20.3709L73.0899 16.8197H72.1534L69.4864 20.1129H69.4646V16.8197H68.6743V24H69.4646V20.7219H69.4864L72.2888 24H73.2801L70.167 20.3709ZM52.2664 20.2213V20.1986C52.8446 19.9483 53.1956 19.3689 53.1956 18.6399C53.1956 17.6606 52.5373 16.8197 51.0407 16.8197H49.4091V24H51.2456C52.8004 24 53.6348 23.1741 53.6348 21.963C53.6348 21.0587 53.0567 20.3931 52.2703 20.2213H52.2664ZM50.1994 17.4999H51.0004C52.0028 17.4999 52.4053 18.012 52.4053 18.7299C52.4053 19.5257 51.9043 19.9933 50.9678 19.9933H50.1994V17.4999ZM51.2456 23.3271H50.1994V20.67H51.3407C52.2373 20.67 52.8223 21.1817 52.8223 21.9891C52.8223 22.9461 52.1931 23.3271 51.2456 23.3271ZM66.1684 21.3836C66.1684 21.948 66.1684 22.2656 66.1903 22.647H66.1684C65.8355 22.1575 65.4939 21.674 65.1437 21.1967L61.9024 16.8159H61.1451V23.9961H61.9354V19.2904C61.9354 18.726 61.9247 18.4196 61.9024 18.0604H61.9247C62.1698 18.4196 62.4879 18.879 62.916 19.4439L66.2816 23.9961H66.9437V16.8159H66.1646V21.3801L66.1684 21.3836ZM56.9271 16.8197L54.2601 24H55.0907L55.782 22.0714H58.6063L59.3014 24H60.1577L57.4684 16.8197H56.9271ZM58.3577 21.3947H56.031L56.7664 19.3243C56.9893 18.6926 57.1063 18.3523 57.1941 18.0831H57.2164C57.3004 18.3561 57.4063 18.6926 57.6296 19.3239L58.3538 21.3947H58.3577Z" fill="white"/>
</g>
</g>
<defs>
<clipPath id="clip0_3868_89028">
<rect width="72.4286" height="24" fill="white" transform="translate(0.851562)"/>
</clipPath>
</defs>
</svg>
