<svg width="51" height="22" viewBox="0 0 51 22" fill="none" xmlns="http://www.w3.org/2000/svg">
<path id="Shape" fill-rule="evenodd" clip-rule="evenodd" d="M3.51806 8.63357C3.51806 8.06393 3.9701 7.84481 4.70713 7.84481C5.76844 7.84481 7.09509 8.18081 8.1564 8.77979V5.34684C7.00664 4.86481 5.85689 4.6749 4.70713 4.6749C1.87696 4.6749 0 6.22338 0 8.80903C0 12.8407 5.28692 12.198 5.28692 13.9364C5.28692 14.6082 4.73661 14.8274 3.95045 14.8274C2.80069 14.8274 1.32664 14.3306 0.157232 13.6588V17.1354C1.44457 17.7197 2.75156 17.968 3.95045 17.968C6.84941 17.968 8.84429 16.4635 8.84429 13.8486C8.82464 9.49554 3.51806 10.2697 3.51806 8.63357ZM12.9325 1.75332L9.53235 2.51287L9.52252 14.2137C9.52252 16.3758 11.0654 17.9679 13.129 17.9679C14.269 17.9679 15.1042 17.7488 15.5661 17.4859V14.5204C15.1239 14.7104 12.9227 15.3823 12.9227 13.2203V8.03462H15.5661V4.92319H12.9227L12.9325 1.75332ZM19.8897 6.00414L19.6735 4.92321H16.6665V17.705H20.1452V9.04262C20.9609 7.91787 22.3563 8.12237 22.7887 8.28301V4.92321C22.3465 4.74788 20.7152 4.4265 19.8897 6.00414ZM23.634 4.92324H27.1324V17.705H23.634V4.92324ZM23.634 3.81302L27.1324 3.02421V0.0588379L23.634 0.833075V3.81302ZM34.4042 4.6749C33.0382 4.6749 32.1538 5.34684 31.6722 5.81438L31.4855 4.90868H28.4293V21.9412L31.9081 21.1671L31.9179 17.0331C32.4191 17.4129 33.1561 17.9534 34.3845 17.9534C36.8806 17.9534 39.1506 15.8499 39.1506 11.2193C39.1309 6.98293 36.8412 4.6749 34.4042 4.6749ZM33.5685 14.7396C32.743 14.7396 32.2517 14.433 31.9175 14.0531L31.9077 8.63354C32.2713 8.21002 32.7725 7.91789 33.5685 7.91789C34.8263 7.91789 35.7108 9.40778 35.7108 11.3214C35.7108 13.2789 34.846 14.7396 33.5685 14.7396ZM50.1178 11.3653C50.1178 7.62569 48.3883 4.6749 45.0962 4.6749C41.7747 4.6749 39.77 7.62579 39.77 11.3361C39.77 15.733 42.1383 17.9534 45.5384 17.9534C47.1894 17.9534 48.4472 17.559 49.3906 17.0039V14.0823C48.4472 14.579 47.3564 14.8859 45.9806 14.8859C44.6343 14.8859 43.4355 14.3891 43.2782 12.6654H50.0883C50.0883 12.4754 50.1178 11.7158 50.1178 11.3653ZM43.2387 9.9775C43.2387 8.32687 44.2018 7.64027 45.0764 7.64027C45.9313 7.64027 46.8354 8.32687 46.8354 9.9775H43.2387Z" fill="white"/>
</svg>
