<svg width="33" height="32" viewBox="0 0 33 32" fill="none" xmlns="http://www.w3.org/2000/svg">
<g clip-path="url(#clip0_4368_89109)">
<path d="M15.0874 25.7927H12.4634C12.0954 25.7927 11.8234 25.5207 11.8234 25.1367C11.8234 24.7527 12.0954 24.4807 12.4634 24.4807H15.0874V25.7927Z" fill="white"/>
<path fill-rule="evenodd" clip-rule="evenodd" d="M32.8789 0H0.878906V32H32.8789V0ZM2.87891 20.0807H10.1429L9.15091 21.7927H7.24691V27.4567H5.42291V21.7927H2.87891V20.0807ZM19.8383 22.1131C19.8383 21.9051 19.9823 21.7771 20.1903 21.7771H23.4063L24.3983 20.0651H20.1903C18.8623 20.0651 18.0143 20.8811 18.0143 22.1291V25.3931C18.0143 26.6411 18.8783 27.4411 20.1903 27.4411H23.9503V25.7291H20.1903C19.9823 25.7291 19.8383 25.6171 19.8383 25.3931V22.1131ZM14.7514 20.0807H11.3434L10.3514 21.7927H14.7354C14.9594 21.7927 15.0714 21.9207 15.0714 22.1287V22.9127H12.2394C10.9274 22.9127 9.96745 23.8727 9.96745 25.1847C9.96745 26.4967 10.9274 27.4567 12.2394 27.4567H16.8954V22.1287C16.9114 20.8967 16.0474 20.0807 14.7514 20.0807ZM26.5727 22.1131C26.5727 21.9051 26.7167 21.7771 26.9247 21.7771H30.1407L31.1327 20.0651H26.9247C25.5967 20.0651 24.7487 20.8811 24.7487 22.1291V25.3931C24.7487 26.6411 25.6127 27.4411 26.9247 27.4411H30.6847V25.7291H26.9247C26.7167 25.7291 26.5727 25.6171 26.5727 25.3931V22.1131Z" fill="white"/>
</g>
<defs>
<clipPath id="clip0_4368_89109">
<rect width="32" height="32" fill="white" transform="translate(0.878906)"/>
</clipPath>
</defs>
</svg>
