<svg width="99" height="32" viewBox="0 0 99 32" fill="none" xmlns="http://www.w3.org/2000/svg">
<path fill-rule="evenodd" clip-rule="evenodd" d="M12.8229 0C13.455 0 14.0871 0 14.7192 0C15.0102 0.357874 15.0102 0.713429 14.7192 1.06667C12.4669 1.5278 10.3336 2.31792 8.31917 3.43704C6.7738 4.54997 5.35158 5.77465 4.0525 7.11111C3.4015 6.96977 3.20395 6.57472 3.45991 5.92593C5.94266 2.92724 9.06363 0.951936 12.8229 0Z" fill="white"/>
<path fill-rule="evenodd" clip-rule="evenodd" d="M17.8003 0C18.4324 0 19.0645 0 19.6966 0C23.7032 0.93705 26.8637 3.10988 29.1781 6.51852C29.1226 6.92916 28.8856 7.12671 28.467 7.11111C26.9274 5.77017 25.3473 4.46646 23.7262 3.2C21.8503 2.20602 19.875 1.49491 17.8003 1.06667C17.5093 0.713429 17.5093 0.357874 17.8003 0Z" fill="white"/>
<path fill-rule="evenodd" clip-rule="evenodd" d="M13.7703 2.13129C16.4105 1.91712 18.9784 2.23317 21.474 3.07943C22.2863 3.67395 22.2073 4.14802 21.2369 4.50166C17.9184 3.23747 14.5999 3.23747 11.2814 4.50166C10.5281 4.292 10.3306 3.85741 10.6888 3.19795C11.73 2.80179 12.7572 2.44623 13.7703 2.13129Z" fill="white"/>
<path fill-rule="evenodd" clip-rule="evenodd" d="M13.772 4.50391C14.325 4.50391 14.8781 4.50391 15.4312 4.50391C15.488 4.97021 15.409 5.40477 15.1942 5.80761C8.82292 7.13168 5.85996 11.0428 6.3053 17.5409C7.93694 23.5139 11.8481 26.24 18.0386 25.7187C20.535 25.1814 22.5893 23.917 24.2016 21.9261C24.5889 21.8092 24.9841 21.7696 25.3868 21.8076C25.4247 22.2104 25.3854 22.6055 25.2683 22.9928C21.5163 27.1734 16.9731 28.319 11.6386 26.4298C6.50996 23.8781 4.25811 19.73 4.88308 13.9854C5.94797 9.01036 8.91093 5.84987 13.772 4.50391Z" fill="white"/>
<path fill-rule="evenodd" clip-rule="evenodd" d="M17.0902 4.50391C19.2817 4.53648 21.257 5.20807 23.0161 6.51872C23.7068 7.15173 23.6278 7.66532 22.7791 8.05946C21.1257 6.91685 19.3084 6.16622 17.3272 5.80761C16.7748 5.45502 16.6958 5.02043 17.0902 4.50391Z" fill="white"/>
<path fill-rule="evenodd" clip-rule="evenodd" d="M7.84534 4.74084C8.42802 4.67625 8.82309 4.91329 9.03052 5.45195C4.0024 9.82989 2.69869 15.1237 5.11941 21.3334C8.26468 26.7967 12.9659 28.9693 19.2231 27.852C20.9315 27.2541 22.5512 26.5035 24.0824 25.6001C25.1381 25.9476 25.1777 26.461 24.2009 27.1408C17.9299 30.8263 12.004 30.3522 6.42312 25.7186C1.39117 19.6536 1.11463 13.3722 5.59349 6.87418C6.31937 6.10803 7.06999 5.39691 7.84534 4.74084Z" fill="white"/>
<path fill-rule="evenodd" clip-rule="evenodd" d="M23.7283 4.74006C24.0537 4.70292 24.3699 4.74243 24.6764 4.85858C26.512 6.29737 27.8947 8.07515 28.8246 10.1919C29.0526 11.4547 28.6575 11.7708 27.6394 11.1401C26.7349 9.05184 25.3916 7.31357 23.6098 5.92525C23.4581 5.50688 23.4976 5.11181 23.7283 4.74006Z" fill="white"/>
<path fill-rule="evenodd" clip-rule="evenodd" d="M14.9578 6.63557C16.7543 6.4814 18.453 6.79746 20.0541 7.58371C20.31 8.23251 20.1125 8.62755 19.4615 8.7689C14.6222 7.17881 11.1062 8.68006 8.91335 13.2726C7.8583 19.141 10.2682 22.6175 16.143 23.7022C17.9018 23.551 19.482 22.9584 20.8837 21.9245C21.5325 21.6685 21.9276 21.866 22.0689 22.517C21.1672 23.8006 19.903 24.5513 18.2763 24.7689C12.5716 25.5739 8.8975 23.2429 7.25409 17.7763C6.66589 11.8325 9.23378 8.11887 14.9578 6.63557Z" fill="white"/>
<path fill-rule="evenodd" clip-rule="evenodd" d="M40.0812 7.82307C40.7181 7.78417 41.3503 7.82368 41.9775 7.94158C42.4854 8.83901 42.9595 9.74764 43.3997 10.6675C43.923 9.73913 44.4761 8.83047 45.0589 7.94158C45.6065 7.82387 46.1595 7.78436 46.7182 7.82307C46.7575 9.95787 46.7182 12.0912 46.5997 14.2231C46.1256 14.5391 45.6515 14.5391 45.1775 14.2231C45.0985 13.2749 45.0193 12.3268 44.9404 11.3786C43.7917 13.9327 42.7647 13.8537 41.8589 11.1416C41.78 12.1687 41.7008 13.1959 41.6219 14.2231C41.1478 14.5391 40.6737 14.5391 40.1997 14.2231C40.0812 12.0912 40.0418 9.95787 40.0812 7.82307Z" fill="white"/>
<path fill-rule="evenodd" clip-rule="evenodd" d="M48.6148 7.8232C50.0192 7.75014 51.4021 7.82915 52.7629 8.06024C52.9336 8.44243 52.8942 8.79799 52.6444 9.1269C51.7752 9.20591 50.9062 9.28493 50.037 9.36394C49.8386 9.60365 49.7596 9.88018 49.7999 10.1936C50.594 10.1545 51.3841 10.194 52.1703 10.3121C52.4863 10.7862 52.4863 11.2602 52.1703 11.7343C51.3841 11.8524 50.594 11.8919 49.7999 11.8528C49.7596 12.1662 49.8386 12.4427 50.037 12.6825C50.9664 12.7306 51.8752 12.8491 52.7629 13.038C52.939 13.498 52.8994 13.9326 52.6444 14.3417C51.3803 14.4997 50.1159 14.4997 48.8518 14.3417C48.6543 14.1442 48.4567 13.9466 48.2592 13.7491C48.1011 11.9318 48.1011 10.1146 48.2592 8.29727C48.4292 8.16828 48.5477 8.01024 48.6148 7.8232Z" fill="white"/>
<path fill-rule="evenodd" clip-rule="evenodd" d="M53.832 7.82337C55.6511 7.78393 57.4684 7.82344 59.2839 7.94189C59.5999 8.33696 59.5999 8.73201 59.2839 9.12708C58.7363 9.24479 58.1833 9.2843 57.6246 9.24559C57.664 10.9067 57.6246 12.566 57.5061 14.2234C56.9531 14.5394 56.3999 14.5394 55.8468 14.2234C55.7283 12.566 55.689 10.9067 55.7283 9.24559C55.0961 9.24559 54.4642 9.24559 53.832 9.24559C53.832 8.77152 53.832 8.29745 53.832 7.82337Z" fill="white"/>
<path fill-rule="evenodd" clip-rule="evenodd" d="M60.4688 7.82337C62.2878 7.78393 64.1051 7.82344 65.9206 7.94189C66.2366 8.33696 66.2366 8.73201 65.9206 9.12708C65.373 9.24479 64.82 9.2843 64.2613 9.24559C64.3007 10.9067 64.2613 12.566 64.1428 14.2234C63.5898 14.5394 63.0366 14.5394 62.4836 14.2234C62.365 12.566 62.3257 10.9067 62.365 9.24559C61.7329 9.24559 61.1009 9.24559 60.4688 9.24559C60.4688 8.77152 60.4688 8.29745 60.4688 7.82337Z" fill="white"/>
<path fill-rule="evenodd" clip-rule="evenodd" d="M67.1037 7.81949C68.5871 7.74608 70.0486 7.82508 71.4889 8.05652C71.7498 9.01707 71.8684 10.0047 71.8444 11.0195C71.8684 12.0343 71.7498 13.0219 71.4889 13.9825C71.3111 14.1308 71.1134 14.2493 70.8963 14.338C69.7111 14.496 68.5259 14.496 67.3407 14.338C67.0857 13.9289 67.0461 13.4943 67.2222 13.0343C68.1063 12.8067 69.0149 12.7277 69.9481 12.7973C69.9481 12.4812 69.9481 12.1652 69.9481 11.8491C69.2327 11.8881 68.5216 11.8486 67.8148 11.7306C67.4988 11.2565 67.4988 10.7825 67.8148 10.3084C68.5216 10.1903 69.2327 10.1508 69.9481 10.1899C69.9481 9.87382 69.9481 9.55775 69.9481 9.24171C69.0754 9.28089 68.2064 9.24138 67.3407 9.12319C67.126 8.72035 67.047 8.28579 67.1037 7.81949Z" fill="white"/>
<path fill-rule="evenodd" clip-rule="evenodd" d="M73.2681 7.82307C73.8268 7.78436 74.3798 7.82387 74.9274 7.94158C75.5745 8.8533 76.0882 9.84094 76.4681 10.9045C76.9514 9.89825 77.4651 8.91059 78.0089 7.94158C78.6361 7.82368 79.2682 7.78417 79.9052 7.82307C79.9445 9.95787 79.9052 12.0912 79.7866 14.2231C79.3126 14.5391 78.8385 14.5391 78.3644 14.2231C78.2855 13.1959 78.2063 12.1687 78.1274 11.1416C77.2217 13.8537 76.1946 13.9327 75.0459 11.3786C74.967 12.3268 74.8878 13.2749 74.8089 14.2231C74.2559 14.5391 73.7026 14.5391 73.1496 14.2231C72.959 12.0713 72.9986 9.93793 73.2681 7.82307Z" fill="white"/>
<path fill-rule="evenodd" clip-rule="evenodd" d="M14.7214 9.00746C17.5338 8.64057 19.8647 9.50972 21.714 11.6149C21.9699 12.2637 21.7724 12.6587 21.1214 12.8C20.212 12.0905 19.2639 11.4189 18.2769 10.7852C13.9979 9.89014 11.4695 11.5889 10.6918 15.8815C11.4472 20.0502 13.8966 21.749 18.0399 20.9778C20.1833 20.0512 21.4475 18.4315 21.8325 16.1186C22.1485 15.8025 22.4646 15.8025 22.7806 16.1186C22.7744 19.2425 21.2732 21.3363 18.2769 22.4C13.0545 23.3017 10.0521 21.1289 9.26953 15.8815C9.61546 12.3796 11.4327 10.0883 14.7214 9.00746Z" fill="white"/>
<path fill-rule="evenodd" clip-rule="evenodd" d="M17.5642 31.9991C16.695 31.9991 15.8259 31.9991 14.9568 31.9991C6.20733 30.5188 1.22955 25.3829 0.0234375 16.5917C0.0234375 16.1176 0.0234375 15.6435 0.0234375 15.1695C0.19241 13.2293 0.666483 11.333 1.44566 9.48057C2.15065 9.08283 2.5457 9.28035 2.63084 10.0732C0.0429714 18.2716 2.41334 24.5926 9.74196 29.0361C12.55 30.2837 15.4735 30.7577 18.5123 30.4584C18.9179 30.7269 19.0365 31.0825 18.8679 31.525C18.4061 31.6694 17.9715 31.8275 17.5642 31.9991Z" fill="white"/>
<path fill-rule="evenodd" clip-rule="evenodd" d="M29.8894 9.24529C30.2791 9.19468 30.6346 9.27369 30.956 9.48233C32.1521 12.2083 32.5473 15.0527 32.1412 18.0157C31.8091 18.4168 31.3747 18.5748 30.8375 18.4897C31.1018 15.5475 30.7067 12.703 29.6523 9.9564C29.801 9.73908 29.8801 9.50205 29.8894 9.24529Z" fill="white"/>
<path fill-rule="evenodd" clip-rule="evenodd" d="M22.5408 9.95312C23.3674 10.1056 23.9602 10.5797 24.3186 11.3753C25.2164 13.2578 25.5327 15.2331 25.2667 17.3013C24.864 17.5161 24.4292 17.5951 23.963 17.5383C24.2294 15.2064 23.7157 13.0731 22.4223 11.1383C22.2706 10.7199 22.3101 10.3249 22.5408 9.95312Z" fill="white"/>
<path fill-rule="evenodd" clip-rule="evenodd" d="M25.6238 11.1391C26.5532 11.004 27.0668 11.3991 27.1645 12.3243C27.7284 14.1187 27.8469 15.936 27.5201 17.7761C27.1173 17.8141 26.7222 17.7746 26.3349 17.6576C26.4849 15.6369 26.1689 13.6616 25.3867 11.7317C25.4443 11.5179 25.5235 11.3203 25.6238 11.1391Z" fill="white"/>
<path fill-rule="evenodd" clip-rule="evenodd" d="M28.7047 16.8286C29.4372 16.6698 29.8323 16.9463 29.8899 17.6582C29.7335 18.7564 29.4568 19.8231 29.0603 20.8582C28.5317 21.7774 28.018 21.7774 27.5195 20.8582C28.0268 19.5392 28.4217 18.196 28.7047 16.8286Z" fill="white"/>
<path fill-rule="evenodd" clip-rule="evenodd" d="M40.3191 17.3038C42.0592 17.2644 43.7974 17.3039 45.534 17.4223C45.8499 17.8964 45.8499 18.3705 45.534 18.8446C44.9068 18.9625 44.2746 19.002 43.6377 18.9631C43.6377 20.6223 43.6377 22.2816 43.6377 23.9409C43.0944 24.0016 42.5807 23.9226 42.0969 23.7038C41.9784 22.1256 41.939 20.5453 41.9784 18.9631C40.3428 19.3797 39.7898 18.8266 40.3191 17.3038Z" fill="white"/>
<path fill-rule="evenodd" clip-rule="evenodd" d="M46.9583 17.3038C48.0674 17.2645 49.1734 17.304 50.2768 17.4223C51.5864 18.1141 52.0209 19.1808 51.5805 20.6223C51.4703 20.9614 51.2726 21.238 50.9879 21.4519C50.1521 21.7688 49.2831 21.8873 48.3805 21.8075C48.3805 22.5186 48.3805 23.2297 48.3805 23.9408C47.8275 23.9408 47.2742 23.9408 46.7212 23.9408C46.6489 21.7087 46.7279 19.4964 46.9583 17.3038ZM48.3805 18.963C48.861 18.9246 49.335 18.9641 49.8027 19.0815C50.1561 19.5608 50.0772 19.9558 49.5657 20.2667C49.1784 20.3837 48.7832 20.4232 48.3805 20.3852C48.3805 19.9112 48.3805 19.4371 48.3805 18.963Z" fill="white"/>
<path fill-rule="evenodd" clip-rule="evenodd" d="M54.5432 17.3035C55.1463 17.2097 55.6599 17.3678 56.084 17.7776C56.8769 19.8009 57.5486 21.8552 58.0988 23.9406C56.9447 24.1651 56.2335 23.7304 55.9655 22.6369C54.8161 22.2215 54.1049 22.577 53.8321 23.7035C52.2793 24.2445 51.8446 23.7705 52.5284 22.2813C53.1807 20.5977 53.8525 18.9385 54.5432 17.3035ZM55.0173 19.6739C55.2728 20.1573 55.5099 20.6709 55.7284 21.2147C55.3333 21.3727 54.9384 21.3727 54.5432 21.2147C54.8203 20.739 54.9782 20.2255 55.0173 19.6739Z" fill="white"/>
<path fill-rule="evenodd" clip-rule="evenodd" d="M59.2812 17.305C59.8245 17.2442 60.3382 17.3232 60.822 17.542C60.94 18.3282 60.9796 19.1183 60.9405 19.9124C61.7306 19.9124 62.5208 19.9124 63.3109 19.9124C63.3109 19.0432 63.3109 18.1741 63.3109 17.305C63.8542 17.2442 64.3678 17.3232 64.8516 17.542C65.0097 19.5963 65.0097 21.6506 64.8516 23.705C64.3678 23.9238 63.8542 24.0027 63.3109 23.942C63.3109 23.0729 63.3109 22.2037 63.3109 21.3346C62.5208 21.3346 61.7306 21.3346 60.9405 21.3346C60.9796 22.1287 60.94 22.9188 60.822 23.705C60.3382 23.9238 59.8245 24.0027 59.2812 23.942C59.2812 21.7297 59.2812 19.5173 59.2812 17.305Z" fill="white"/>
<path fill-rule="evenodd" clip-rule="evenodd" d="M68.0509 17.3037C68.8449 17.2645 69.635 17.3041 70.4212 17.4222C71.6775 17.7044 71.9935 18.3365 71.3694 19.3185C70.4679 19.0446 69.5198 18.9656 68.5249 19.0814C67.5768 20.1086 67.5768 21.1358 68.5249 22.1629C68.7878 22.3141 69.0642 22.4326 69.3546 22.5185C69.8908 22.3093 70.4044 22.0722 70.8953 21.8074C72.1421 22.5001 72.063 23.1718 70.6583 23.8222C67.3163 24.4304 65.7756 23.0477 66.0361 19.674C66.2731 19.2 66.5101 18.7259 66.7472 18.2518C67.2248 17.9682 67.6595 17.6521 68.0509 17.3037Z" fill="white"/>
<path fill-rule="evenodd" clip-rule="evenodd" d="M73.2681 17.3044C75.0665 17.23 76.8443 17.309 78.6015 17.5415C78.7596 19.5958 78.7596 21.6501 78.6015 23.7044C78.1122 23.9631 77.5986 24.0026 77.0607 23.823C76.8287 22.2243 76.7497 20.6045 76.8237 18.9637C76.1126 18.9637 75.4015 18.9637 74.6904 18.9637C74.6904 20.623 74.6904 22.2822 74.6904 23.9415C74.1471 24.0022 73.6334 23.9232 73.1496 23.7044C72.959 21.5526 72.9986 19.4193 73.2681 17.3044Z" fill="white"/>
<path fill-rule="evenodd" clip-rule="evenodd" d="M81.7999 17.3014C85.776 17.1933 87.0797 19.0106 85.7111 22.7533C84.2594 24.0999 82.6395 24.2973 80.8518 23.3459C79.6595 22.0688 79.3829 20.6071 80.0222 18.9607C80.4998 18.2705 81.0924 17.7174 81.7999 17.3014ZM82.9851 18.7237C85.1919 20.004 85.1919 21.2682 82.9851 22.5162C81.6058 21.9665 81.1713 21.0183 81.6814 19.6718C82.037 19.2051 82.4715 18.8891 82.9851 18.7237Z" fill="white"/>
<path fill-rule="evenodd" clip-rule="evenodd" d="M87.4883 17.3019C88.9726 17.153 90.3948 17.3506 91.7549 17.8945C92.7031 19.0797 92.7031 20.2648 91.7549 21.45C90.9192 21.7669 90.0502 21.8854 89.1475 21.8056C89.1864 22.4426 89.1468 23.0747 89.029 23.7019C88.5452 23.9207 88.0316 23.9996 87.4883 23.9389C87.4883 21.7266 87.4883 19.5142 87.4883 17.3019ZM89.1475 18.9611C89.6216 18.9611 90.0957 18.9611 90.5698 18.9611C90.8068 20.1463 90.3327 20.6204 89.1475 20.3834C89.1475 19.9093 89.1475 19.4352 89.1475 18.9611Z" fill="white"/>
<path fill-rule="evenodd" clip-rule="evenodd" d="M98.8678 17.5395C98.8678 17.9346 98.8678 18.3296 98.8678 18.7247C98.2624 18.9352 97.6302 19.0142 96.9715 18.9617C97.0108 20.544 96.9715 22.1242 96.853 23.7025C96.3692 23.9213 95.8555 24.0002 95.3122 23.9395C95.3122 22.2803 95.3122 20.621 95.3122 18.9617C93.7888 19.3738 93.1566 18.8207 93.4159 17.3025C95.2537 17.2316 97.0711 17.3106 98.8678 17.5395Z" fill="white"/>
<path fill-rule="evenodd" clip-rule="evenodd" d="M28.2322 24.4141C29.3519 24.8173 29.4705 25.4494 28.5877 26.3104C27.829 27.1485 26.9994 27.8992 26.0989 28.5622C25.1111 28.8388 24.7556 28.4833 25.0322 27.4955C26.2306 26.573 27.2973 25.5459 28.2322 24.4141Z" fill="white"/>
</svg>
