<svg width="25" height="24" viewBox="0 0 25 24" fill="none" xmlns="http://www.w3.org/2000/svg">
<path fill-rule="evenodd" clip-rule="evenodd" d="M5.625 12C5.625 7.99594 8.87094 4.75 12.875 4.75C16.8791 4.75 20.125 7.99594 20.125 12C20.125 16.0041 16.8791 19.25 12.875 19.25C8.87094 19.25 5.625 16.0041 5.625 12ZM12.875 3.25C8.04251 3.25 4.125 7.16751 4.125 12C4.125 16.8325 8.04251 20.75 12.875 20.75C17.7075 20.75 21.625 16.8325 21.625 12C21.625 7.16751 17.7075 3.25 12.875 3.25ZM16.9242 10.0108C17.2063 9.70744 17.1891 9.23288 16.8858 8.9508C16.5824 8.66871 16.1079 8.68592 15.8258 8.98924L11.7221 13.4018L9.92147 11.4863C9.63777 11.1845 9.16313 11.1698 8.86132 11.4535C8.55951 11.7372 8.54483 12.2119 8.82853 12.5137L11.1785 15.0137C11.3208 15.165 11.5193 15.2506 11.727 15.25C11.9347 15.2494 12.1328 15.1628 12.2742 15.0108L16.9242 10.0108Z" fill="white"/>
</svg>
