<svg width="16" height="16" viewBox="0 0 16 16" fill="none" xmlns="http://www.w3.org/2000/svg">
<path d="M14.7213 9.38824C14.3175 10.7063 13.5083 11.8635 12.4088 12.6951C11.4434 13.4217 10.2947 13.8648 9.09155 13.9747C7.88837 14.0847 6.67836 13.8571 5.59733 13.3176C4.51631 12.778 3.60705 11.9479 2.97162 10.9203C2.33619 9.89267 1.99974 8.7083 2.00003 7.50011C1.99569 6.0899 2.45413 4.7172 3.30503 3.59261C4.13662 2.49311 5.2938 1.68389 6.61191 1.28011C6.69878 1.25336 6.7913 1.2508 6.87952 1.2727C6.96774 1.29461 7.04832 1.34014 7.1126 1.40442C7.17688 1.46869 7.22241 1.54928 7.24432 1.6375C7.26622 1.72572 7.26366 1.81824 7.23691 1.90511C6.94868 2.85851 6.92452 3.87223 7.16698 4.83828C7.40945 5.80432 7.90947 6.68649 8.61375 7.39077C9.31803 8.09505 10.2002 8.59507 11.1662 8.83754C12.1323 9.08 13.146 9.05584 14.0994 8.76761C14.1863 8.74086 14.2788 8.7383 14.367 8.7602C14.4552 8.78211 14.5358 8.82764 14.6001 8.89192C14.6644 8.95619 14.7099 9.03678 14.7318 9.125C14.7537 9.21322 14.7512 9.30574 14.7244 9.39261L14.7213 9.38824Z" fill="#222426" fill-opacity="0.5"/>
</svg>
