<svg width="25" height="24" viewBox="0 0 25 24" fill="none" xmlns="http://www.w3.org/2000/svg">
<path d="M15.3333 12C15.3333 13.7 14.0333 15 12.3333 15C10.6333 15 9.33325 13.7 9.33325 12C9.33325 10.3 10.6333 9 12.3333 9C14.0333 9 15.3333 10.3 15.3333 12ZM19.5333 12C19.5333 11 20.0333 10 20.9333 9.5L21.3333 9.2L19.3333 5.7L18.8333 6C17.9333 6.5 16.8333 6.5 15.9333 6C15.8333 6 15.8333 5.9 15.7333 5.9C14.9333 5.4 14.3333 4.5 14.3333 3.5V3H10.3333V3.5C10.3333 4.5 9.83325 5.4 8.93325 5.9C8.83325 5.9 8.73325 5.9 8.63325 6C7.73325 6.5 6.63325 6.5 5.73325 6L5.33325 5.8L3.33325 9.2L3.73325 9.4C4.63325 10 5.13325 11 5.13325 12C5.13325 13 4.63325 14 3.73325 14.5L3.33325 14.8L5.33325 18.3L5.83325 18C6.73325 17.5 7.83325 17.5 8.73325 18C8.83325 18 8.83325 18.1 8.93325 18.1C9.73325 18.6 10.3333 19.5 10.3333 20.5V21H14.3333V20.5C14.3333 19.5 14.8333 18.6 15.7333 18.1C15.8333 18.1 15.8333 18 15.9333 18C16.8333 17.5 17.9333 17.5 18.8333 18L19.2333 18.2L21.2333 14.7L20.8333 14.5C20.0333 14 19.5333 13 19.5333 12Z" stroke="url(#paint0_linear_3401_13309)" stroke-width="1.5" stroke-linecap="round" stroke-linejoin="round"/>
<defs>
<linearGradient id="paint0_linear_3401_13309" x1="12.3333" y1="3" x2="12.3333" y2="20.8947" gradientUnits="userSpaceOnUse">
<stop stop-color="#398BFF"/>
<stop offset="1" stop-color="#085EDD"/>
</linearGradient>
</defs>
</svg>
