<svg width="80" height="20" viewBox="0 0 80 20" fill="none" xmlns="http://www.w3.org/2000/svg">
<path d="M10 5C9.34564 5 8.81267 5.49909 8.56791 6.10595C7.90988 7.73748 6.31162 8.88889 4.44444 8.88889C1.98985 8.88889 0 6.89904 0 4.44444C0 1.98985 1.98985 0 4.44444 0C5.10017 0 5.72274 0.142007 6.28306 0.396944C7.48325 0.943015 8.68142 1.66667 10 1.66667C11.3186 1.66667 12.5167 0.943016 13.7169 0.396944C14.2773 0.142007 14.8998 0 15.5556 0C18.0102 0 20 1.98985 20 4.44444C20 6.89904 18.0102 8.88889 15.5556 8.88889C13.6884 8.88889 12.0901 7.73748 11.4321 6.10595C11.1873 5.49909 10.6544 5 10 5Z" fill="url(#paint0_angular_576_10527)"/>
<path d="M10 17.7778C8.94437 17.7778 8.01306 18.4065 7.18185 19.0572C6.4273 19.6479 5.47699 20 4.44444 20C1.98985 20 0 18.0102 0 15.5556C0 13.101 1.98985 11.1111 4.44444 11.1111C6.07271 11.1111 7.49647 11.9867 8.27054 13.2928C8.64601 13.9263 9.26359 14.4444 10 14.4444C10.7364 14.4444 11.354 13.9263 11.7295 13.2928C12.5035 11.9867 13.9273 11.1111 15.5556 11.1111C18.0102 11.1111 20 13.101 20 15.5556C20 18.0102 18.0102 20 15.5556 20C14.523 20 13.5727 19.6479 12.8182 19.0572C11.9869 18.4065 11.0556 17.7778 10 17.7778Z" fill="url(#paint1_angular_576_10527)"/>
<path d="M27.9871 17.4409C27.7093 17.4409 27.5703 17.2914 27.5703 16.9924V15.8915C27.5703 15.5925 27.7093 15.443 27.9871 15.443H30.3554V4.5565H27.9871C27.7093 4.5565 27.5703 4.4002 27.5703 4.0876V3.00711C27.5703 2.70811 27.7093 2.5586 27.9871 2.5586H34.8077C35.0982 2.5586 35.2434 2.70811 35.2434 3.00711V4.0876C35.2434 4.4002 35.0982 4.5565 34.8077 4.5565H32.4394V15.443H34.8077C35.0982 15.443 35.2434 15.5925 35.2434 15.8915V16.9924C35.2434 17.2914 35.0982 17.4409 34.8077 17.4409H27.9871Z" fill="black"/>
<path d="M37.8411 17.4409C37.5632 17.4409 37.4243 17.2914 37.4243 16.9924V3.00711C37.4243 2.70811 37.5632 2.5586 37.8411 2.5586H39.641C39.8936 2.5586 40.0578 2.68092 40.1336 2.92556L44.0364 14.9333C44.0112 14.5528 43.9796 14.0907 43.9417 13.547C43.9038 13.0034 43.8722 12.4393 43.847 11.8549C43.8343 11.2705 43.828 10.7337 43.828 10.2444V3.00711C43.828 2.70811 43.967 2.5586 44.2448 2.5586H45.3058C45.5837 2.5586 45.7226 2.70811 45.7226 3.00711V16.9924C45.7226 17.2914 45.5837 17.4409 45.3058 17.4409H43.5059C43.2533 17.4409 43.0891 17.3185 43.0133 17.0739L39.1294 5.06616C39.1547 5.43312 39.1799 5.88163 39.2052 6.41168C39.2431 6.92814 39.2747 7.47179 39.2999 8.04262C39.3252 8.61344 39.3378 9.1435 39.3378 9.63278V16.9924C39.3378 17.2914 39.1926 17.4409 38.9021 17.4409H37.8411Z" fill="black"/>
<path d="M51.7495 17.6447C50.4612 17.6447 49.4444 17.2506 48.6992 16.4623C47.954 15.6604 47.5814 14.5392 47.5814 13.0985V6.90096C47.5814 5.46031 47.954 4.34583 48.6992 3.55755C49.4444 2.75567 50.4612 2.35474 51.7495 2.35474C53.0378 2.35474 54.0546 2.75567 54.7998 3.55755C55.545 4.34583 55.9176 5.45351 55.9176 6.88058V13.0985C55.9176 14.5392 55.545 15.6604 54.7998 16.4623C54.0546 17.2506 53.0378 17.6447 51.7495 17.6447ZM51.7495 15.6876C52.4316 15.6876 52.9557 15.4838 53.322 15.076C53.6883 14.6683 53.8715 14.0771 53.8715 13.3024V6.6971C53.8715 5.9224 53.6883 5.33119 53.322 4.92346C52.9684 4.51572 52.4442 4.31186 51.7495 4.31186C51.0548 4.31186 50.5243 4.51572 50.158 4.92346C49.8044 5.33119 49.6276 5.9224 49.6276 6.6971V13.3024C49.6276 14.0771 49.8107 14.6683 50.177 15.076C50.5433 15.4838 51.0674 15.6876 51.7495 15.6876Z" fill="black"/>
<path d="M61.9256 17.6447C60.5993 17.6447 59.5762 17.2574 58.8563 16.4827C58.1364 15.6944 57.7764 14.6275 57.7764 13.282V3.00711C57.7764 2.70811 57.9153 2.5586 58.1932 2.5586H59.4057C59.6836 2.5586 59.8226 2.70811 59.8226 3.00711V13.2616C59.8226 14.0227 59.9994 14.6207 60.353 15.0556C60.7067 15.4905 61.2309 15.708 61.9256 15.708C62.6202 15.708 63.1444 15.4905 63.4981 15.0556C63.8517 14.6207 64.0285 14.0227 64.0285 13.2616V3.00711C64.0285 2.70811 64.1675 2.5586 64.4454 2.5586H65.6579C65.9358 2.5586 66.0747 2.70811 66.0747 3.00711V13.282C66.0747 14.6411 65.7147 15.708 64.9948 16.4827C64.2749 17.2574 63.2518 17.6447 61.9256 17.6447Z" fill="black"/>
<path d="M71.4953 17.4409C71.2175 17.4409 71.0785 17.2914 71.0785 16.9924V4.5565H67.8009C67.523 4.5565 67.3841 4.4002 67.3841 4.0876V3.00711C67.3841 2.70811 67.523 2.5586 67.8009 2.5586H76.4023C76.6928 2.5586 76.8381 2.70811 76.8381 3.00711V4.0876C76.8381 4.4002 76.6928 4.5565 76.4023 4.5565H73.1247V16.9924C73.1247 17.2914 72.9857 17.4409 72.7079 17.4409H71.4953Z" fill="black"/>
<defs>
<radialGradient id="paint0_angular_576_10527" cx="0" cy="0" r="1" gradientUnits="userSpaceOnUse" gradientTransform="translate(10 10) scale(10)">
<stop stop-color="#135BEB"/>
<stop offset="1" stop-color="#135BEB" stop-opacity="0.4"/>
</radialGradient>
<radialGradient id="paint1_angular_576_10527" cx="0" cy="0" r="1" gradientUnits="userSpaceOnUse" gradientTransform="translate(10 10) scale(10)">
<stop stop-color="#135BEB"/>
<stop offset="1" stop-color="#135BEB" stop-opacity="0.4"/>
</radialGradient>
</defs>
</svg>
