<svg width="13" height="13" viewBox="0 0 13 13" fill="none" xmlns="http://www.w3.org/2000/svg">
<path d="M12.7213 8.38824C12.3175 9.70635 11.5083 10.8635 10.4088 11.6951C9.44345 12.4217 8.29473 12.8648 7.09155 12.9747C5.88837 13.0847 4.67836 12.8571 3.59733 12.3176C2.51631 11.778 1.60705 10.9479 0.971618 9.92026C0.336188 8.89267 -0.00026201 7.7083 3.05885e-05 6.50011C-0.00431339 5.0899 0.45413 3.7172 1.30503 2.59261C2.13662 1.49311 3.2938 0.683891 4.61191 0.280113C4.69878 0.253363 4.7913 0.250802 4.87952 0.272704C4.96774 0.294607 5.04832 0.340144 5.1126 0.404419C5.17688 0.468695 5.22241 0.549276 5.24432 0.637496C5.26622 0.725717 5.26366 0.81824 5.23691 0.905113C4.94868 1.85851 4.92452 2.87223 5.16698 3.83828C5.40945 4.80432 5.90947 5.68649 6.61375 6.39077C7.31803 7.09505 8.2002 7.59507 9.16624 7.83754C10.1323 8.08 11.146 8.05584 12.0994 7.76761C12.1863 7.74086 12.2788 7.7383 12.367 7.7602C12.4552 7.78211 12.5358 7.82764 12.6001 7.89192C12.6644 7.95619 12.7099 8.03678 12.7318 8.125C12.7537 8.21322 12.7512 8.30574 12.7244 8.39261L12.7213 8.38824Z" fill="#222426" fill-opacity="0.5"/>
</svg>
