<svg width="16" height="16" viewBox="0 0 16 16" fill="none" xmlns="http://www.w3.org/2000/svg">
<g clip-path="url(#clip0_5435_84795)">
<path d="M7.99991 12.6668C8.1632 12.6669 8.3208 12.7268 8.44283 12.8353C8.56485 12.9438 8.64281 13.0933 8.66191 13.2555L8.66658 13.3335V14.0002C8.66639 14.1701 8.60133 14.3335 8.48468 14.4571C8.36803 14.5806 8.20861 14.655 8.03898 14.6649C7.86935 14.6749 7.70233 14.6197 7.57202 14.5107C7.44172 14.4016 7.35798 14.2469 7.33791 14.0782L7.33325 14.0002V13.3335C7.33325 13.1567 7.40348 12.9871 7.52851 12.8621C7.65353 12.7371 7.8231 12.6668 7.99991 12.6668ZM12.2086 11.2735L12.2712 11.3288L12.7379 11.7955C12.8575 11.9155 12.9269 12.0765 12.9321 12.2458C12.9372 12.4151 12.8778 12.58 12.7657 12.707C12.6537 12.8341 12.4975 12.9137 12.3289 12.9298C12.1603 12.9458 11.9919 12.8971 11.8579 12.7935L11.7952 12.7382L11.3286 12.2715C11.2135 12.1567 11.1444 12.0037 11.1342 11.8415C11.124 11.6793 11.1735 11.5189 11.2732 11.3906C11.373 11.2622 11.5162 11.1747 11.6759 11.1446C11.8357 11.1144 12.0009 11.1437 12.1406 11.2268L12.2086 11.2735ZM4.67125 11.3288C4.78603 11.4436 4.85498 11.5964 4.86517 11.7584C4.87536 11.9204 4.82608 12.0806 4.72658 12.2088L4.67125 12.2715L4.20458 12.7382C4.08461 12.8577 3.92362 12.9271 3.75432 12.9323C3.58502 12.9375 3.4201 12.878 3.29306 12.766C3.16602 12.654 3.08638 12.4978 3.07031 12.3292C3.05425 12.1606 3.10297 11.9922 3.20658 11.8582L3.26191 11.7955L3.72858 11.3288C3.8536 11.2038 4.02314 11.1336 4.19991 11.1336C4.37669 11.1336 4.54623 11.2038 4.67125 11.3288ZM2.66658 7.3335C2.8365 7.33368 2.99993 7.39875 3.12349 7.5154C3.24705 7.63204 3.3214 7.79146 3.33136 7.96109C3.34132 8.13072 3.28613 8.29775 3.17707 8.42805C3.06801 8.55835 2.91331 8.64209 2.74458 8.66216L2.66658 8.66683H1.99991C1.82999 8.66664 1.66656 8.60158 1.543 8.48493C1.41944 8.36828 1.34509 8.20886 1.33513 8.03923C1.32517 7.86961 1.38036 7.70258 1.48942 7.57227C1.59848 7.44197 1.75318 7.35823 1.92191 7.33816L1.99991 7.3335H2.66658ZM13.9999 7.3335C14.1698 7.33368 14.3333 7.39875 14.4568 7.5154C14.5804 7.63204 14.6547 7.79146 14.6647 7.96109C14.6747 8.13072 14.6195 8.29775 14.5104 8.42805C14.4013 8.55835 14.2466 8.64209 14.0779 8.66216L13.9999 8.66683H13.3332C13.1633 8.66664 12.9999 8.60158 12.8763 8.48493C12.7528 8.36828 12.6784 8.20886 12.6685 8.03923C12.6585 7.86961 12.7137 7.70258 12.8228 7.57227C12.9318 7.44197 13.0865 7.35823 13.2552 7.33816L13.3332 7.3335H13.9999ZM4.14191 3.20683L4.20458 3.26216L4.67125 3.72883C4.79081 3.8488 4.86023 4.00979 4.8654 4.17909C4.87057 4.34839 4.8111 4.5133 4.69908 4.64035C4.58706 4.76739 4.43088 4.84703 4.26226 4.8631C4.09365 4.87916 3.92524 4.83044 3.79125 4.72683L3.72858 4.6715L3.26191 4.20483C3.14731 4.08995 3.07853 3.93721 3.06849 3.77525C3.05845 3.61329 3.10782 3.45323 3.20735 3.32507C3.30689 3.19691 3.44975 3.10945 3.60916 3.07909C3.76857 3.04873 3.93357 3.07756 4.07325 3.16016L4.14191 3.20683ZM12.7379 3.26216C12.8527 3.37696 12.9217 3.52969 12.9318 3.69171C12.942 3.85373 12.8927 4.01389 12.7932 4.14216L12.7379 4.20483L12.2712 4.6715C12.1513 4.79106 11.9903 4.86048 11.821 4.86565C11.6517 4.87082 11.4868 4.81135 11.3597 4.69933C11.2327 4.58731 11.153 4.43113 11.137 4.26251C11.1209 4.0939 11.1696 3.92549 11.2732 3.7915L11.3286 3.72883L11.7952 3.26216C11.9203 3.13718 12.0898 3.06697 12.2666 3.06697C12.4434 3.06697 12.6129 3.13718 12.7379 3.26216ZM7.99991 1.3335C8.1632 1.33352 8.3208 1.39347 8.44283 1.50197C8.56485 1.61048 8.64281 1.76 8.66191 1.92216L8.66658 2.00016V2.66683C8.66639 2.83675 8.60133 3.00018 8.48468 3.12374C8.36803 3.2473 8.20861 3.32165 8.03898 3.33161C7.86935 3.34157 7.70233 3.28638 7.57202 3.17732C7.44172 3.06826 7.35798 2.91356 7.33791 2.74483L7.33325 2.66683V2.00016C7.33325 1.82335 7.40348 1.65378 7.52851 1.52876C7.65353 1.40373 7.8231 1.3335 7.99991 1.3335ZM7.99991 4.66683C8.65303 4.66679 9.29177 4.85862 9.8368 5.2185C10.3818 5.57837 10.8091 6.09043 11.0656 6.69107C11.3221 7.29171 11.3965 7.95447 11.2796 8.59704C11.1626 9.2396 10.8595 9.83365 10.4078 10.3054C9.95612 10.7772 9.37581 11.1058 8.73893 11.2506C8.10206 11.3953 7.43669 11.3498 6.82547 11.1197C6.21425 10.8895 5.6841 10.4849 5.30088 9.95601C4.91767 9.42713 4.69826 8.79733 4.66991 8.14483L4.66658 8.00016L4.66991 7.8555C4.70719 6.99733 5.07432 6.18668 5.69473 5.5926C6.31514 4.99852 7.14094 4.66688 7.99991 4.66683Z" fill="black"/>
</g>
<defs>
<clipPath id="clip0_5435_84795">
<rect width="16" height="16" fill="white"/>
</clipPath>
</defs>
</svg>
