<svg width="16" height="16" viewBox="0 0 16 16" fill="none" xmlns="http://www.w3.org/2000/svg">
<g clip-path="url(#clip0_5419_31074)">
<path d="M8.00187 12.6668C8.16515 12.6669 8.32276 12.7268 8.44478 12.8353C8.5668 12.9438 8.64476 13.0933 8.66387 13.2555L8.66853 13.3335V14.0002C8.66834 14.1701 8.60328 14.3335 8.48663 14.4571C8.36999 14.5806 8.21056 14.655 8.04094 14.6649C7.87131 14.6749 7.70428 14.6197 7.57398 14.5107C7.44368 14.4016 7.35993 14.2469 7.33987 14.0782L7.3352 14.0002V13.3335C7.3352 13.1567 7.40544 12.9871 7.53046 12.8621C7.65549 12.7371 7.82505 12.6668 8.00187 12.6668ZM12.2105 11.2735L12.2732 11.3288L12.7399 11.7955C12.8594 11.9155 12.9288 12.0765 12.934 12.2458C12.9392 12.4151 12.8797 12.58 12.7677 12.707C12.6557 12.8341 12.4995 12.9137 12.3309 12.9298C12.1623 12.9458 11.9939 12.8971 11.8599 12.7935L11.7972 12.7382L11.3305 12.2715C11.2155 12.1567 11.1464 12.0037 11.1362 11.8415C11.126 11.6793 11.1754 11.5189 11.2752 11.3906C11.3749 11.2622 11.5181 11.1747 11.6779 11.1446C11.8376 11.1144 12.0029 11.1437 12.1425 11.2268L12.2105 11.2735ZM4.6732 11.3288C4.78798 11.4436 4.85694 11.5964 4.86713 11.7584C4.87731 11.9204 4.82803 12.0806 4.72853 12.2088L4.6732 12.2715L4.20653 12.7382C4.08656 12.8577 3.92558 12.9271 3.75628 12.9323C3.58698 12.9375 3.42206 12.878 3.29501 12.766C3.16797 12.654 3.08833 12.4978 3.07227 12.3292C3.0562 12.1606 3.10492 11.9922 3.20853 11.8582L3.26387 11.7955L3.73053 11.3288C3.85555 11.2038 4.02509 11.1336 4.20187 11.1336C4.37864 11.1336 4.54818 11.2038 4.6732 11.3288ZM2.66853 7.3335C2.83845 7.33368 3.00189 7.39875 3.12544 7.5154C3.249 7.63204 3.32336 7.79146 3.33331 7.96109C3.34327 8.13072 3.28808 8.29775 3.17902 8.42805C3.06996 8.55835 2.91526 8.64209 2.74653 8.66216L2.66853 8.66683H2.00187C1.83195 8.66664 1.66851 8.60158 1.54495 8.48493C1.4214 8.36828 1.34704 8.20886 1.33708 8.03923C1.32713 7.86961 1.38232 7.70258 1.49138 7.57227C1.60044 7.44197 1.75513 7.35823 1.92387 7.33816L2.00187 7.3335H2.66853ZM14.0019 7.3335C14.1718 7.33368 14.3352 7.39875 14.4588 7.5154C14.5823 7.63204 14.6567 7.79146 14.6666 7.96109C14.6766 8.13072 14.6214 8.29775 14.5124 8.42805C14.4033 8.55835 14.2486 8.64209 14.0799 8.66216L14.0019 8.66683H13.3352C13.1653 8.66664 13.0018 8.60158 12.8783 8.48493C12.7547 8.36828 12.6804 8.20886 12.6704 8.03923C12.6605 7.86961 12.7156 7.70258 12.8247 7.57227C12.9338 7.44197 13.0885 7.35823 13.2572 7.33816L13.3352 7.3335H14.0019ZM4.14387 3.20683L4.20653 3.26216L4.6732 3.72883C4.79276 3.8488 4.86218 4.00979 4.86735 4.17909C4.87252 4.34839 4.81306 4.5133 4.70103 4.64035C4.58901 4.76739 4.43283 4.84703 4.26422 4.8631C4.0956 4.87916 3.92719 4.83044 3.7932 4.72683L3.73053 4.6715L3.26387 4.20483C3.14926 4.08995 3.08049 3.93721 3.07044 3.77525C3.0604 3.61329 3.10977 3.45323 3.20931 3.32507C3.30884 3.19691 3.4517 3.10945 3.61111 3.07909C3.77052 3.04873 3.93553 3.07756 4.0752 3.16016L4.14387 3.20683ZM12.7399 3.26216C12.8547 3.37696 12.9236 3.52969 12.9338 3.69171C12.944 3.85373 12.8947 4.01389 12.7952 4.14216L12.7399 4.20483L12.2732 4.6715C12.1532 4.79106 11.9922 4.86048 11.8229 4.86565C11.6536 4.87082 11.4887 4.81135 11.3617 4.69933C11.2346 4.58731 11.155 4.43113 11.1389 4.26251C11.1229 4.0939 11.1716 3.92549 11.2752 3.7915L11.3305 3.72883L11.7972 3.26216C11.9222 3.13718 12.0918 3.06697 12.2685 3.06697C12.4453 3.06697 12.6148 3.13718 12.7399 3.26216ZM8.00187 1.3335C8.16515 1.33352 8.32276 1.39347 8.44478 1.50197C8.5668 1.61048 8.64476 1.76 8.66387 1.92216L8.66853 2.00016V2.66683C8.66834 2.83675 8.60328 3.00018 8.48663 3.12374C8.36999 3.2473 8.21056 3.32165 8.04094 3.33161C7.87131 3.34157 7.70428 3.28638 7.57398 3.17732C7.44368 3.06826 7.35993 2.91356 7.33987 2.74483L7.3352 2.66683V2.00016C7.3352 1.82335 7.40544 1.65378 7.53046 1.52876C7.65549 1.40373 7.82505 1.3335 8.00187 1.3335ZM8.00187 4.66683C8.65498 4.66679 9.29372 4.85862 9.83875 5.2185C10.3838 5.57837 10.8111 6.09043 11.0676 6.69107C11.3241 7.29171 11.3985 7.95447 11.2815 8.59704C11.1646 9.2396 10.8614 9.83365 10.4098 10.3054C9.95807 10.7772 9.37776 11.1058 8.74089 11.2506C8.10401 11.3953 7.43865 11.3498 6.82742 11.1197C6.2162 10.8895 5.68606 10.4849 5.30284 9.95601C4.91962 9.42713 4.70021 8.79733 4.67187 8.14483L4.66853 8.00016L4.67187 7.8555C4.70915 6.99733 5.07627 6.18668 5.69668 5.5926C6.31709 4.99852 7.14289 4.66688 8.00187 4.66683Z" fill="#999DA3" fill-opacity="0.5"/>
</g>
<defs>
<clipPath id="clip0_5419_31074">
<rect width="16" height="16" fill="white"/>
</clipPath>
</defs>
</svg>
