<svg width="25" height="24" viewBox="0 0 25 24" fill="none" xmlns="http://www.w3.org/2000/svg">
<path fill-rule="evenodd" clip-rule="evenodd" d="M11.3281 10V17H3.32812V10C3.32812 7.8 5.12812 6 7.32812 6C9.52813 6 11.3281 7.8 11.3281 10Z" stroke="url(#paint0_linear_3869_28774)" stroke-width="1.5" stroke-linecap="round" stroke-linejoin="round"/>
<path fill-rule="evenodd" clip-rule="evenodd" d="M21.3281 10V17H3.32812V10C3.32812 7.8 5.12812 6 7.32812 6H17.3281C19.5281 6 21.3281 7.8 21.3281 10Z" stroke="url(#paint1_linear_3869_28774)" stroke-width="1.5" stroke-linecap="round" stroke-linejoin="round"/>
<path d="M16.3281 3V11" stroke="url(#paint2_linear_3869_28774)" stroke-width="1.5" stroke-linecap="round" stroke-linejoin="round"/>
<path d="M16.3281 17L16.3281 21" stroke="url(#paint3_linear_3869_28774)" stroke-width="1.5" stroke-linecap="round" stroke-linejoin="round"/>
<path d="M16.3281 13C16.8804 13 17.3281 12.5523 17.3281 12C17.3281 11.4477 16.8804 11 16.3281 11C15.7758 11 15.3281 11.4477 15.3281 12C15.3281 12.5523 15.7758 13 16.3281 13Z" stroke="url(#paint4_linear_3869_28774)" stroke-width="1.5" stroke-linecap="round" stroke-linejoin="round"/>
<defs>
<linearGradient id="paint0_linear_3869_28774" x1="7.32813" y1="6" x2="7.32813" y2="16.9357" gradientUnits="userSpaceOnUse">
<stop stop-color="#398BFF"/>
<stop offset="1" stop-color="#085EDD"/>
</linearGradient>
<linearGradient id="paint1_linear_3869_28774" x1="12.3281" y1="6" x2="12.3281" y2="16.9357" gradientUnits="userSpaceOnUse">
<stop stop-color="#398BFF"/>
<stop offset="1" stop-color="#085EDD"/>
</linearGradient>
<linearGradient id="paint2_linear_3869_28774" x1="16.8281" y1="3" x2="16.8281" y2="10.9532" gradientUnits="userSpaceOnUse">
<stop stop-color="#398BFF"/>
<stop offset="1" stop-color="#085EDD"/>
</linearGradient>
<linearGradient id="paint3_linear_3869_28774" x1="16.8281" y1="17" x2="16.8281" y2="20.9766" gradientUnits="userSpaceOnUse">
<stop stop-color="#398BFF"/>
<stop offset="1" stop-color="#085EDD"/>
</linearGradient>
<linearGradient id="paint4_linear_3869_28774" x1="16.3281" y1="11" x2="16.3281" y2="12.9883" gradientUnits="userSpaceOnUse">
<stop stop-color="#398BFF"/>
<stop offset="1" stop-color="#085EDD"/>
</linearGradient>
</defs>
</svg>
