<svg width="24" height="24" viewBox="0 0 24 24" fill="none" xmlns="http://www.w3.org/2000/svg">
<g id="Component 1">
<path id="Union" fill-rule="evenodd" clip-rule="evenodd" d="M2.30691 12.2871C2.34351 12.3755 2.39776 12.4584 2.46967 12.5303L7.46967 17.5303C7.76256 17.8232 8.23744 17.8232 8.53033 17.5303C8.82322 17.2374 8.82322 16.7626 8.53033 16.4697L4.81066 12.75L21 12.75C21.4142 12.75 21.75 12.4142 21.75 12C21.75 11.5858 21.4142 11.25 21 11.25L4.81066 11.25L8.53033 7.53033C8.82322 7.23744 8.82322 6.76256 8.53033 6.46967C8.23744 6.17678 7.76256 6.17678 7.46967 6.46967L2.46967 11.4697C2.32438 11.615 2.25116 11.805 2.25001 11.9954C2.25 11.997 2.25 11.9985 2.25 12C2.25 12.0015 2.25 12.003 2.25001 12.0045C2.25061 12.1046 2.27079 12.2 2.30691 12.2871Z" fill="white"/>
</g>
</svg>
