<svg width="704" height="124" viewBox="0 0 704 124" fill="none" xmlns="http://www.w3.org/2000/svg">
<g filter="url(#filter0_f_5419_66432)">
<path d="M-401.342 29.5281C-571.376 54.4921 -330.494 87.8931 -188.799 101.473C276.496 135.279 552.228 -5.14417 471.806 -20.7467C391.385 -36.3492 6.51022 -44.1505 86.9318 -20.7467C167.353 2.65709 -188.799 -1.67694 -401.342 29.5281Z" fill="#0038FF" fill-opacity="0.43"/>
<path d="M576.891 58.6053C667.247 86.2184 345.622 105.965 173.516 112.387C173.516 126.514 338.451 129.511 420.919 129.244C528.486 118.006 764.057 96.4931 845.807 100.346C947.996 105.162 1227.67 81.8838 1259.94 73.054C1292.21 64.2243 1249.18 28.1024 1136.24 1.6131C1023.29 -24.8762 528.486 2.4158 480.081 6.42934C431.676 10.4429 463.946 24.0889 576.891 58.6053Z" fill="#00CCFF" fill-opacity="0.4"/>
<path d="M1770.56 70.9415C1844.46 95.4295 1680.24 152.976 1105.44 165.22C982.273 161.547 749.072 152.486 801.624 145.63C867.315 137.059 1392.84 46.4535 1360 41.5559C1327.15 36.6583 235.042 41.5559 202.196 26.8631C169.351 12.1703 818.047 -31.9081 1236.82 -28.2349C1655.6 -24.5617 1696.66 46.4535 1770.56 70.9415Z" fill="url(#paint0_linear_5419_66432)"/>
</g>
<g style="mix-blend-mode:color-dodge" filter="url(#filter1_f_5419_66432)">
<path d="M-452.287 32.5574C-630.454 58.7155 -378.051 93.714 -229.578 107.944C257.972 143.366 546.892 -3.77325 462.624 -20.122C378.356 -36.4708 -24.9273 -44.6452 59.3408 -20.122C143.609 4.40115 -229.578 -0.140175 -452.287 32.5574Z" fill="#0038FF" fill-opacity="0.43"/>
<path d="M572.731 63.0254C667.409 91.9593 330.401 112.65 150.062 119.379C150.062 134.183 322.887 137.323 409.299 137.042C522.011 125.267 768.849 102.725 854.51 106.763C961.586 111.809 1254.64 87.4173 1288.45 78.1652C1322.26 68.9131 1277.18 31.0636 1158.83 3.30731C1040.48 -24.449 522.011 4.14841 471.29 8.35391C420.57 12.5594 454.384 26.8581 572.731 63.0254Z" fill="#00CCFF" fill-opacity="0.4"/>
<path d="M1823.5 75.9533C1900.94 101.613 1728.86 161.912 1126.57 174.741C997.509 170.893 753.153 161.399 808.219 154.214C877.052 145.233 1427.71 50.2941 1393.3 45.1622C1358.88 40.0304 214.537 45.1622 180.121 29.7667C145.705 14.3712 825.427 -31.8155 1264.23 -27.9666C1703.04 -24.1177 1746.06 50.2941 1823.5 75.9533Z" fill="url(#paint1_linear_5419_66432)"/>
</g>
<defs>
<filter id="filter0_f_5419_66432" x="-639.824" y="-215.518" width="2606.99" height="560.738" filterUnits="userSpaceOnUse" color-interpolation-filters="sRGB">
<feFlood flood-opacity="0" result="BackgroundImageFix"/>
<feBlend mode="normal" in="SourceGraphic" in2="BackgroundImageFix" result="shape"/>
<feGaussianBlur stdDeviation="90" result="effect1_foregroundBlur_5419_66432"/>
</filter>
<filter id="filter1_f_5419_66432" x="-693.566" y="-215.599" width="2714.46" height="570.341" filterUnits="userSpaceOnUse" color-interpolation-filters="sRGB">
<feFlood flood-opacity="0" result="BackgroundImageFix"/>
<feBlend mode="normal" in="SourceGraphic" in2="BackgroundImageFix" result="shape"/>
<feGaussianBlur stdDeviation="90" result="effect1_foregroundBlur_5419_66432"/>
</filter>
<linearGradient id="paint0_linear_5419_66432" x1="994.082" y1="165.22" x2="994.082" y2="-28.4514" gradientUnits="userSpaceOnUse">
<stop stop-color="#3274F9"/>
<stop offset="1" stop-color="#135BEB"/>
</linearGradient>
<linearGradient id="paint1_linear_5419_66432" x1="1009.88" y1="174.741" x2="1009.88" y2="-28.1935" gradientUnits="userSpaceOnUse">
<stop stop-color="#3274F9"/>
<stop offset="1" stop-color="#135BEB"/>
</linearGradient>
</defs>
</svg>
