<svg width="235" height="726" viewBox="0 0 235 726" fill="none" xmlns="http://www.w3.org/2000/svg">
<g clip-path="url(#clip0_5644_59803)">
<g filter="url(#filter0_f_5644_59803)">
<path d="M-132.65 553.119C-189.167 406.958 -109.101 211.401 -62.0039 131.892C92.6541 -66.0331 184.303 756.119 157.572 847.47C130.841 938.82 2.91435 984.495 29.6454 847.47C56.3764 710.444 -62.0039 735.819 -132.65 553.119Z" fill="#0038FF" fill-opacity="0.43"/>
<path d="M192.501 382.877C222.534 221.206 115.631 105.593 58.4248 67.9955C58.4248 -14.7196 113.247 -32.2652 140.658 -30.6986C176.412 35.0974 254.713 161.05 281.885 138.491C315.851 110.293 408.811 246.585 419.537 298.282C430.263 349.979 415.962 561.466 378.42 716.557C340.879 871.648 176.412 711.857 160.323 688.359C144.234 664.86 154.96 584.965 192.501 382.877Z" fill="#00CCFF" fill-opacity="0.4"/>
<path d="M589.261 310.65C613.825 167.277 559.238 -169.65 368.185 -241.337C327.245 -219.831 249.732 -166.783 267.2 -126.638C289.034 -76.4577 463.712 454.023 452.795 482.698C441.877 511.373 78.8754 482.698 67.958 568.722C57.0407 654.746 272.658 912.818 411.854 891.312C551.05 869.806 564.697 454.023 589.261 310.65Z" fill="url(#paint0_linear_5644_59803)"/>
</g>
<g style="mix-blend-mode:color-dodge" filter="url(#filter1_f_5644_59803)">
<path d="M-149.583 535.382C-208.803 382.231 -124.908 177.32 -75.5575 94.0085C86.4977 -113.384 182.531 748.092 154.521 843.812C126.512 939.531 -7.53421 987.391 20.4753 843.812C48.4849 700.232 -75.5575 726.821 -149.583 535.382Z" fill="#0038FF" fill-opacity="0.43"/>
<path d="M191.119 356.997C222.589 187.594 110.572 66.4515 50.6299 27.0554C50.6299 -59.6159 108.074 -78.0007 136.797 -76.3592C174.26 -7.41613 256.306 124.561 284.779 100.923C320.369 71.376 417.775 214.187 429.014 268.356C440.253 322.526 425.268 544.129 385.931 706.637C346.594 869.146 174.26 701.713 157.402 677.09C140.543 652.468 151.782 568.751 191.119 356.997Z" fill="#00CCFF" fill-opacity="0.4"/>
<path d="M606.857 281.312C632.596 131.081 575.398 -221.961 375.207 -297.076C332.309 -274.542 251.088 -218.956 269.392 -176.892C292.271 -124.311 475.303 431.543 463.863 461.589C452.424 491.635 72.0597 461.589 60.6202 551.727C49.1807 641.866 275.111 912.281 420.965 889.746C566.819 867.212 581.118 431.543 606.857 281.312Z" fill="url(#paint1_linear_5644_59803)"/>
</g>
</g>
<defs>
<filter id="filter0_f_5644_59803" x="-332.089" y="-421.337" width="1106.87" height="1535.29" filterUnits="userSpaceOnUse" color-interpolation-filters="sRGB">
<feFlood flood-opacity="0" result="BackgroundImageFix"/>
<feBlend mode="normal" in="SourceGraphic" in2="BackgroundImageFix" result="shape"/>
<feGaussianBlur stdDeviation="90" result="effect1_foregroundBlur_5644_59803"/>
</filter>
<filter id="filter1_f_5644_59803" x="-349.951" y="-477.076" width="1142.59" height="1591.5" filterUnits="userSpaceOnUse" color-interpolation-filters="sRGB">
<feFlood flood-opacity="0" result="BackgroundImageFix"/>
<feBlend mode="normal" in="SourceGraphic" in2="BackgroundImageFix" result="shape"/>
<feGaussianBlur stdDeviation="90" result="effect1_foregroundBlur_5644_59803"/>
</filter>
<linearGradient id="paint0_linear_5644_59803" x1="331.17" y1="-241.337" x2="331.17" y2="892.579" gradientUnits="userSpaceOnUse">
<stop stop-color="#3274F9"/>
<stop offset="1" stop-color="#135BEB"/>
</linearGradient>
<linearGradient id="paint1_linear_5644_59803" x1="336.421" y1="-297.076" x2="336.421" y2="891.075" gradientUnits="userSpaceOnUse">
<stop stop-color="#3274F9"/>
<stop offset="1" stop-color="#135BEB"/>
</linearGradient>
<clipPath id="clip0_5644_59803">
<rect width="234" height="726" fill="white" transform="translate(0.75)"/>
</clipPath>
</defs>
</svg>
