<svg width="25" height="24" viewBox="0 0 25 24" fill="none" xmlns="http://www.w3.org/2000/svg">
<path d="M8.575 13.2C8.475 12.8 8.375 12.4 8.375 12C8.375 11.6 8.475 11.2 8.575 10.8M8.575 13.2L4.875 16.9C3.875 15.5 3.375 13.8 3.375 12C3.375 10.2 3.875 8.5 4.875 7.1L8.575 10.8M8.575 13.2L3.375 18.4L5.975 21L11.175 15.8M8.575 13.2C8.975 14.5 9.875 15.4 11.175 15.8M8.575 13.2C8.975 14.4 9.975 15.4 11.175 15.8M8.575 10.8L3.375 5.6L5.975 3L11.175 8.2M8.575 10.8C8.975 9.6 9.875 8.6 11.175 8.2M8.575 10.8C8.975 9.6 9.975 8.6 11.175 8.2M11.175 8.2L7.475 4.5C8.875 3.5 10.575 3 12.375 3C14.175 3 15.875 3.5 17.275 4.5M11.175 8.2C11.575 8.1 11.975 8 12.375 8C12.775 8 13.175 8.1 13.575 8.2M17.275 4.5L13.575 8.2M17.275 4.5L18.775 3L21.375 5.6L16.175 10.8M13.575 8.2C14.775 8.6 15.775 9.6 16.175 10.8M13.575 8.2C14.775 8.6 15.775 9.5 16.175 10.8M16.175 10.8L19.875 7.1C20.875 8.5 21.375 10.2 21.375 12C21.375 13.8 20.875 15.5 19.875 16.9L16.175 13.2M16.175 10.8C16.275 11.2 16.375 11.6 16.375 12C16.375 12.4 16.275 12.8 16.175 13.2M16.175 13.2C15.775 14.4 14.775 15.4 13.575 15.8M16.175 13.2C15.775 14.4 14.875 15.4 13.575 15.8M16.175 13.2L21.375 18.4L18.775 21L17.275 19.5M13.575 15.8L17.275 19.5M13.575 15.8C13.175 15.9 12.775 16 12.375 16C11.975 16 11.575 15.9 11.175 15.8M17.275 19.5C15.875 20.5 14.175 21 12.375 21C10.575 21 8.875 20.5 7.475 19.5L11.175 15.8" stroke="url(#paint0_linear_4403_66394)" stroke-width="1.5" stroke-linecap="round" stroke-linejoin="round"/>
<defs>
<linearGradient id="paint0_linear_4403_66394" x1="12.375" y1="3" x2="12.375" y2="20.8947" gradientUnits="userSpaceOnUse">
<stop stop-color="#398BFF"/>
<stop offset="1" stop-color="#085EDD"/>
</linearGradient>
</defs>
</svg>
