<svg width="88" height="24" viewBox="0 0 88 24" fill="none" xmlns="http://www.w3.org/2000/svg">
<path id="Shape" fill-rule="evenodd" clip-rule="evenodd" d="M45.4527 4.79911C45.4527 5.79115 44.6406 6.59031 43.6324 6.59031C42.6242 6.59031 41.812 5.79115 41.812 4.79911C41.812 3.80706 42.5962 3.0079 43.6324 3.0079C44.6685 3.03546 45.4527 3.83461 45.4527 4.79911ZM37.9474 8.4091C37.9474 8.57447 37.9474 8.85006 37.9474 8.85006C37.9474 8.85006 37.0793 7.7477 35.2309 7.7477C32.1784 7.7477 29.7979 10.035 29.7979 13.204C29.7979 16.3455 32.1504 18.6603 35.2309 18.6603C37.1073 18.6603 37.9474 17.5305 37.9474 17.5305V17.999C37.9474 18.2194 38.1155 18.3848 38.3395 18.3848H40.608V8.02329C40.608 8.02329 38.5355 8.02329 38.3395 8.02329C38.1155 8.02329 37.9474 8.21619 37.9474 8.4091ZM37.947 15.0504C37.5269 15.6566 36.6868 16.1802 35.6786 16.1802C33.8863 16.1802 32.514 15.0779 32.514 13.204C32.514 11.3302 33.8863 10.2279 35.6786 10.2279C36.6587 10.2279 37.5549 10.779 37.947 11.3577V15.0504ZM42.288 8.02326H44.9766V18.3847H42.288V8.02326ZM82.4474 7.74768C80.5991 7.74768 79.7309 8.85004 79.7309 8.85004V3.03547H77.0424V18.3848C77.0424 18.3848 79.1148 18.3848 79.3109 18.3848C79.5349 18.3848 79.7029 18.1918 79.7029 17.9989V17.5305C79.7029 17.5305 80.571 18.6602 82.4194 18.6602C85.472 18.6602 87.8525 16.3455 87.8525 13.204C87.8525 10.0625 85.472 7.74768 82.4474 7.74768ZM81.9993 16.1527C80.963 16.1527 80.1508 15.629 79.7308 15.0228V11.3302C80.1508 10.779 81.047 10.2003 81.9993 10.2003C83.7916 10.2003 85.1638 11.3026 85.1638 13.1765C85.1638 15.0504 83.7916 16.1527 81.9993 16.1527ZM75.6418 12.2395V18.4123H72.9534V12.5426C72.9534 10.8341 72.3933 10.1452 70.881 10.1452C70.0688 10.1452 69.2287 10.5585 68.6966 11.1648V18.3848H66.0081V8.02327H68.1365C68.3605 8.02327 68.5286 8.21617 68.5286 8.40907V8.85004C69.3127 8.0508 70.3489 7.74768 71.3851 7.74768C72.5613 7.74768 73.5415 8.07843 74.3256 8.73972C75.2778 9.51133 75.6418 10.5034 75.6418 12.2395ZM59.4835 7.74768C57.6351 7.74768 56.767 8.85004 56.767 8.85004V3.03547H54.0785V18.3848C54.0785 18.3848 56.1508 18.3848 56.3468 18.3848C56.571 18.3848 56.7389 18.1918 56.7389 17.9989V17.5305C56.7389 17.5305 57.6071 18.6602 59.4554 18.6602C62.508 18.6602 64.8884 16.3455 64.8884 13.204C64.9165 10.0625 62.536 7.74768 59.4835 7.74768ZM59.0353 16.1526C57.9991 16.1526 57.1869 15.629 56.7669 15.0227V11.3302C57.1869 10.779 58.0831 10.2003 59.0353 10.2003C60.8276 10.2003 62.1999 11.3025 62.1999 13.1765C62.1999 15.0504 60.8276 16.1526 59.0353 16.1526ZM51.754 7.7477C52.5662 7.7477 52.9862 7.88555 52.9862 7.88555V10.3381C52.9862 10.3381 50.7458 9.59404 49.3456 11.1648V18.4123H46.6571V8.02329C46.6571 8.02329 48.7295 8.02329 48.9255 8.02329C49.1495 8.02329 49.3175 8.21619 49.3175 8.4091V8.85006C49.8216 8.27135 50.9138 7.7477 51.754 7.7477ZM22.5923 17.0571C22.4706 16.7688 22.3489 16.4565 22.2273 16.1922C22.0325 15.7598 21.8379 15.3513 21.6675 14.967L21.6432 14.9429C19.9641 11.3393 18.1632 7.68769 16.265 4.08408L16.192 3.93994C15.9973 3.57958 15.8027 3.1952 15.608 2.81081C15.3646 2.37837 15.1212 1.92192 14.7319 1.48949C13.9532 0.528529 12.8337 0 11.6413 0C10.4245 0 9.32942 0.528529 8.52633 1.44144C8.16131 1.87388 7.89361 2.33033 7.65026 2.76276C7.45558 3.14715 7.26089 3.53153 7.06621 3.89189L6.9932 4.03604C5.11936 7.63964 3.2942 11.2913 1.61506 14.8949L1.59072 14.9429C1.42037 15.3273 1.22568 15.7358 1.031 16.1682C0.909322 16.4325 0.787645 16.7207 0.665967 17.0331C0.349606 17.9219 0.252264 18.7628 0.373941 19.6276C0.641631 21.4294 1.85841 22.943 3.53756 23.6157C4.17028 23.8799 4.82734 24 5.50874 24C5.70342 24 5.94677 23.976 6.14146 23.9519C6.94453 23.8558 7.77194 23.5916 8.57501 23.1351C9.5728 22.5825 10.5218 21.7898 11.5926 20.6367C12.6634 21.7898 13.6368 22.5825 14.6102 23.1351C15.4133 23.5916 16.2407 23.8558 17.0437 23.9519C17.2384 23.976 17.4818 24 17.6764 24C18.3579 24 19.0393 23.8799 19.6477 23.6157C21.3512 22.943 22.5436 21.4054 22.8113 19.6276C23.0059 18.7868 22.9086 17.9459 22.5923 17.0571ZM11.6394 18.054C10.3771 16.4684 9.55886 14.9761 9.27838 13.7169C9.16145 13.1807 9.13809 12.7143 9.20823 12.2946C9.25502 11.9215 9.39523 11.5951 9.5823 11.3153C10.0264 10.6857 10.7745 10.2893 11.6394 10.2893C12.5043 10.2893 13.2757 10.6624 13.6965 11.3153C13.8835 11.5951 14.0237 11.9215 14.0705 12.2946C14.1406 12.7143 14.1173 13.2039 14.0003 13.7169C13.7199 14.9527 12.9017 16.4451 11.6394 18.054ZM21.1265 19.2613C20.96 20.482 20.1273 21.5385 18.9614 22.008C18.3904 22.2427 17.7718 22.3131 17.1532 22.2427C16.5584 22.1723 15.9636 21.9845 15.345 21.6323C14.4884 21.1628 13.6319 20.4351 12.6326 19.3552C14.2029 17.4536 15.1546 15.7164 15.5115 14.167C15.678 13.4393 15.7019 12.7819 15.6305 12.1716C15.5353 11.5847 15.3212 11.0448 14.9881 10.5752C14.2505 9.51877 13.0133 8.90842 11.6333 8.90842C10.2534 8.90842 9.01612 9.54231 8.27858 10.5752C7.94548 11.0448 7.73135 11.5847 7.63618 12.1716C7.54101 12.7819 7.56481 13.4628 7.75515 14.167C8.11204 15.7164 9.08751 17.4771 10.634 19.3787C9.65856 20.4586 8.77823 21.1863 7.92169 21.6558C7.30309 22.008 6.70827 22.1958 6.11346 22.2662C5.47106 22.3366 4.85246 22.2427 4.30523 22.0315C3.13939 21.5619 2.30666 20.5055 2.1401 19.2848C2.06873 18.6979 2.11631 18.111 2.35424 17.4536C2.42562 17.2189 2.54457 16.9842 2.66354 16.7024C2.83009 16.3268 3.02043 15.9277 3.21077 15.5286L3.23456 15.4817C4.87625 11.9838 6.6369 8.41544 8.46893 4.94102L8.5403 4.80016C8.73064 4.44802 8.92099 4.07241 9.11128 3.72027C9.30169 3.34465 9.51578 2.99252 9.77749 2.68733C10.2771 2.12391 10.9434 1.81873 11.681 1.81873C12.4185 1.81873 13.0847 2.12391 13.5843 2.68733C13.846 2.99252 14.0601 3.34465 14.2505 3.72027C14.4409 4.07241 14.6312 4.44802 14.8215 4.80016L14.8929 4.94102C16.7011 8.43891 18.4618 12.0072 20.1035 15.5052V15.5286C20.2938 15.9043 20.4603 16.3268 20.6507 16.7024C20.7697 16.9842 20.8886 17.2189 20.96 17.4536C21.1504 18.064 21.2217 18.6509 21.1265 19.2613Z" fill="black"/>
</svg>
