<svg width="61" height="20" viewBox="0 0 61 20" fill="none" xmlns="http://www.w3.org/2000/svg">
<path id="Shape" fill-rule="evenodd" clip-rule="evenodd" d="M8.52734 7.13861V9.234L13.5319 9.23183C13.3785 10.3875 12.989 11.2337 12.3968 11.826C11.667 12.5563 10.528 13.3602 8.52734 13.3602C5.44374 13.3602 3.03095 10.873 3.03095 7.78668C3.03095 4.70035 5.44374 2.21306 8.52734 2.21306C10.1916 2.21306 11.4064 2.86773 12.3034 3.70944L13.7808 2.23088C12.5306 1.03511 10.8664 0.117676 8.52931 0.117676C4.30669 0.117676 0.754883 3.56025 0.754883 7.78668C0.754883 12.0131 4.30669 15.4556 8.52931 15.4556C10.8083 15.4556 12.5287 14.7074 13.8742 13.3046C15.2582 11.9195 15.688 9.97557 15.688 8.40344C15.688 7.9358 15.6526 7.50389 15.5837 7.13861H8.52734ZM50.7416 15.1549V0.68098H48.6279V15.1549H50.7416ZM21.4803 15.4577C24.2079 15.4577 26.4308 13.3623 26.4308 10.5188C26.4308 7.65515 24.2079 5.57985 21.4803 5.57985C18.7518 5.57985 16.5288 7.65515 16.5288 10.5188C16.5288 13.3623 18.7518 15.4577 21.4803 15.4577ZM21.4804 7.52594C22.9755 7.52594 24.264 8.74175 24.264 10.5187C24.264 12.2757 22.9755 13.5115 21.4804 13.5115C19.9853 13.5115 18.6968 12.2779 18.6968 10.5187C18.6968 8.74175 19.9853 7.52594 21.4804 7.52594ZM32.1613 15.4577C34.8888 15.4577 37.1118 13.3623 37.1118 10.5188C37.1118 7.65515 34.8888 5.57985 32.1613 5.57985C29.4327 5.57985 27.2098 7.65742 27.2098 10.5188C27.2098 13.3623 29.4327 15.4577 32.1613 15.4577ZM32.1614 7.52594C33.6564 7.52594 34.945 8.74175 34.945 10.5187C34.945 12.2757 33.6564 13.5115 32.1614 13.5115C30.6663 13.5115 29.3778 12.2779 29.3778 10.5187C29.3778 8.74175 30.6663 7.52594 32.1614 7.52594ZM47.3479 5.88045V14.7452C47.3479 18.3926 45.1977 19.8823 42.657 19.8823C40.2649 19.8823 38.8249 18.2813 38.282 16.972L40.1685 16.1859C40.5049 16.9898 41.3282 17.9383 42.6541 17.9383C44.281 17.9383 45.2892 16.9341 45.2892 15.0436V14.3332H45.2134C44.7285 14.9322 43.7941 15.4555 42.6147 15.4555C40.1469 15.4555 37.8856 13.3044 37.8856 10.5366C37.8856 7.74875 40.1469 5.57983 42.6147 5.57983C43.7911 5.57983 44.7266 6.10309 45.2134 6.68432H45.2892V5.88045H47.3479ZM45.4427 10.5365C45.4427 8.7974 44.283 7.52588 42.8076 7.52588C41.3125 7.52588 40.0604 8.7974 40.0604 10.5365C40.0604 12.2578 41.3125 13.5114 42.8076 13.5114C44.283 13.5114 45.4427 12.2578 45.4427 10.5365ZM58.9792 12.1443L60.6611 13.2666C60.1182 14.0705 58.81 15.4555 56.5487 15.4555C53.7454 15.4555 51.6513 13.2867 51.6513 10.5166C51.6513 7.57949 53.7631 5.57761 56.3067 5.57761C58.868 5.57761 60.1202 7.61729 60.5303 8.71961L60.7546 9.28076L54.1566 12.0152C54.6621 13.0061 55.447 13.5116 56.5487 13.5116C57.6523 13.5116 58.4185 12.9683 58.9792 12.1443ZM53.8007 10.3674L58.2112 8.5348C57.9693 7.91794 57.2394 7.48819 56.3797 7.48819C55.2791 7.48819 53.7456 8.46128 53.8007 10.3674Z" fill="white"/>
</svg>
