<svg width="88" height="16" viewBox="0 0 88 16" fill="none" xmlns="http://www.w3.org/2000/svg">
<g id="Vector">
<path fill-rule="evenodd" clip-rule="evenodd" d="M11.5763 0.766968L8.57452 8.60829L5.55491 0.766968H0.39209V14.9784H4.10756V5.58316L7.75586 14.9784H9.39528L13.0236 5.58316V14.9784H16.7391V0.766968H11.5763Z" fill="white"/>
<path fill-rule="evenodd" clip-rule="evenodd" d="M24.2738 12.3375V11.4192C23.9295 10.9295 23.1507 10.6945 22.4202 10.6945C21.5554 10.6945 20.7556 11.0796 20.7556 11.8882C20.7556 12.6967 21.5554 13.0818 22.4202 13.0818C23.1507 13.0818 23.9295 12.8261 24.2738 12.3364V12.3375ZM24.2737 13.9546C23.6261 14.7197 22.375 15.2332 21.0347 15.2332C19.4362 15.2332 17.4515 14.1451 17.4515 11.8436C17.4515 9.3527 19.4352 8.52343 21.0347 8.52343C22.4201 8.52343 23.6502 8.9686 24.2737 9.73679V8.71392C24.2737 7.81943 23.4991 7.20135 22.1577 7.20135C21.1208 7.20135 20.0838 7.60512 19.2431 8.30912L18.013 6.02837C19.3533 4.8999 21.1449 4.43091 22.7403 4.43091C25.2456 4.43091 27.6029 5.34921 27.6029 8.54413V14.9785H24.2737V13.9546Z" fill="white"/>
<path fill-rule="evenodd" clip-rule="evenodd" d="M28.0531 13.6357L29.4353 11.2939C30.2141 11.973 31.8745 12.677 33.1088 12.677C34.1007 12.677 34.511 12.3975 34.511 11.9523C34.511 10.6748 28.4435 11.9937 28.4435 7.81943C28.4435 6.00766 30.042 4.43091 32.9115 4.43091C34.6832 4.43091 36.1505 4.98479 37.2746 5.79336L36.0035 8.11966C35.3759 7.52023 34.1878 6.98705 32.9367 6.98705C32.1579 6.98705 31.6405 7.28625 31.6405 7.69105C31.6405 8.81952 37.6839 7.64964 37.6839 11.8685C37.6839 13.8252 35.9374 15.2332 32.9566 15.2332C31.079 15.2332 29.1572 14.6141 28.0531 13.6357Z" fill="white"/>
<path fill-rule="evenodd" clip-rule="evenodd" d="M45.3965 14.9785V8.98728C45.3965 7.73457 44.7279 7.32977 43.6657 7.32977C42.6949 7.32977 42.0473 7.85984 41.6611 8.32883V14.9775H38.3318V0.76704H41.6611V5.94351C42.2845 5.2188 43.5188 4.43198 45.2653 4.43198C47.6436 4.43198 48.7215 5.75302 48.7215 7.64967V14.9785H45.3965Z" fill="white"/>
<path fill-rule="evenodd" clip-rule="evenodd" d="M56.2166 12.3375V11.4192C55.8713 10.9295 55.0936 10.6945 54.3589 10.6945C53.494 10.6945 52.6942 11.0796 52.6942 11.8882C52.6942 12.6968 53.494 13.0819 54.3589 13.0819C55.0936 13.0819 55.8713 12.8262 56.2166 12.3365V12.3375ZM56.2166 13.9546C55.568 14.7197 54.3137 15.2332 52.9776 15.2332C51.3781 15.2332 49.3902 14.1451 49.3902 11.8437C49.3902 9.35275 51.3781 8.52348 52.9776 8.52348C54.3588 8.52348 55.5889 8.96865 56.2166 9.73684V8.71397C56.2166 7.81948 55.4368 7.20141 54.1007 7.20141C53.0637 7.20141 52.0257 7.60517 51.1818 8.30917L49.9517 6.02842C51.292 4.89995 53.0836 4.43096 54.6832 4.43096C57.1874 4.43096 59.5406 5.34926 59.5406 8.54418V14.9785H56.2166V13.9546Z" fill="white"/>
<path fill-rule="evenodd" clip-rule="evenodd" d="M65.9319 12.3374C67.2481 12.3374 68.2441 11.3746 68.2441 9.82167C68.2441 8.28943 67.2481 7.32661 65.9319 7.32661C65.2182 7.32661 64.3576 7.7107 63.944 8.26459V11.4191C64.3576 11.973 65.2193 12.3374 65.9319 12.3374ZM60.6195 0.76704H63.9445V5.9021C64.685 4.96207 65.8288 4.41806 67.0355 4.43198C69.6469 4.43198 71.6358 6.45702 71.6358 9.82172C71.6358 13.3158 69.6059 15.2332 67.0355 15.2332C65.8674 15.2332 64.8094 14.7642 63.9445 13.7848V14.9785H60.6195V0.76704Z" fill="white"/>
<path fill-rule="evenodd" clip-rule="evenodd" d="M72.3041 0.76704H75.6292V14.9785H72.3041V0.76704Z" fill="white"/>
<path fill-rule="evenodd" clip-rule="evenodd" d="M81.828 7.07204C80.3796 7.07204 79.8191 7.92512 79.6869 8.66949H83.988C83.8988 7.94479 83.3614 7.07204 81.828 7.07204ZM76.2968 9.82174C76.2968 6.84112 78.5639 4.43096 81.828 4.43096C84.9148 4.43096 87.1619 6.66719 87.1619 10.1613V10.9098H79.7331C79.9703 11.824 80.8351 12.5922 82.3444 12.5922C83.0791 12.5922 84.2882 12.2723 84.8949 11.7184L86.338 13.8697C85.3042 14.7839 83.5745 15.2332 81.9791 15.2332C78.7612 15.2332 76.2968 13.1668 76.2968 9.82174Z" fill="white"/>
</g>
</svg>
