<svg width="55" height="39" viewBox="0 0 55 39" fill="none" xmlns="http://www.w3.org/2000/svg">
<path d="M44.0231 30.5432C44.0231 33.748 44.0231 35.3504 43.2104 36.4737C42.948 36.8365 42.6303 37.1555 42.2691 37.4191C41.1506 38.2353 39.555 38.2353 36.3639 38.2353H25.7217C24.1912 38.2353 23.4259 38.2353 23.0287 37.8165C22.9032 37.6842 22.8058 37.5276 22.7424 37.3563C22.5416 36.8143 22.8769 36.1235 23.5476 34.7418L29.2611 22.9715C29.8321 21.7953 30.1175 21.2072 30.5961 20.8262C30.7531 20.7012 30.9235 20.5942 31.1042 20.5072C31.6549 20.2422 32.3064 20.2422 33.6093 20.2422H40.7982C42.1418 20.2422 42.8136 20.2422 43.2846 20.5858C43.4367 20.6968 43.5704 20.8311 43.6809 20.9839C44.0231 21.4569 44.0231 22.1316 44.0231 23.4809V30.5432Z" fill="white"/>
<path d="M21.1581 35.0511C20.492 36.4233 20.1589 37.1094 19.6006 37.5539C19.4174 37.6998 19.2186 37.8246 19.0078 37.9261C18.3653 38.2353 17.6053 38.2353 16.0852 38.2353H2.20401C1.05016 38.2353 0.47323 38.2353 0.205233 37.9234C0.121137 37.8255 0.0590334 37.7105 0.0231511 37.5864C-0.0911992 37.1907 0.223219 36.7049 0.852056 35.7333L8.97069 23.1895C9.7983 21.9108 10.2121 21.2715 10.8095 20.864C11.0062 20.7298 11.2157 20.6156 11.4348 20.5231C12.1007 20.2422 12.8599 20.2422 14.3785 20.2422H24.4767C26.0072 20.2422 26.7725 20.2422 27.1696 20.661C27.2951 20.7933 27.3926 20.9499 27.456 21.1211C27.6568 21.6632 27.3215 22.354 26.6508 23.7357L21.1581 35.0511Z" fill="white" fill-opacity="0.5"/>
<path d="M45.9308 15.0457C45.1032 16.3244 44.6894 16.9638 44.092 17.3713C43.8953 17.5055 43.6858 17.6196 43.4667 17.7121C42.8008 17.9931 42.0416 17.9931 40.523 17.9931H30.4248C28.8943 17.9931 28.129 17.9931 27.7319 17.5743C27.6064 17.442 27.5089 17.2854 27.4455 17.1141C27.2447 16.5721 27.58 15.8813 28.2507 14.4996L33.7434 3.18417C34.4095 1.81194 34.7426 1.12583 35.3009 0.681324C35.4841 0.535479 35.6829 0.410666 35.8937 0.309211C36.5362 0 37.2962 0 38.8163 0H52.6975C53.8513 0 54.4283 0 54.6963 0.311915C54.7804 0.409792 54.8425 0.524721 54.8783 0.648874C54.9927 1.04453 54.6783 1.53033 54.0494 2.50192L45.9308 15.0457Z" fill="white" fill-opacity="0.75"/>
<path d="M25.6399 15.2638C25.069 16.44 24.7835 17.0281 24.305 17.4091C24.1479 17.5341 23.9775 17.6411 23.7968 17.728C23.2461 17.9931 22.5946 17.9931 21.2917 17.9931H14.1028C12.7592 17.9931 12.0874 17.9931 11.6165 17.6494C11.4644 17.5385 11.3306 17.4041 11.2201 17.2514C10.8779 16.7784 10.8779 16.1037 10.8779 14.7543V7.69204C10.8779 4.48725 10.8779 2.88486 11.6906 1.76154C11.953 1.39876 12.2707 1.07972 12.6319 0.816138C13.7505 0 15.346 0 18.5371 0H29.1793C30.7099 0 31.4751 0 31.8723 0.418779C31.9978 0.551112 32.0952 0.707666 32.1587 0.878947C32.3594 1.42098 32.0241 2.11182 31.3534 3.49349L25.6399 15.2638Z" fill="white" fill-opacity="0.25"/>
</svg>
