<svg width="233" height="39" viewBox="0 0 233 39" fill="none" xmlns="http://www.w3.org/2000/svg">
<path d="M71.7043 18.3754H63.7764V0.328357H71.7043V18.3754Z" fill="white"/>
<path d="M92.8786 18.3754L80.8018 8.55569V18.3754H73.4024V0.328357H80.9339L93.0107 10.1481V0.328357H100.41V18.3754H92.8786Z" fill="white"/>
<path d="M101.836 9.5642V9.13957C101.836 2.66386 106.592 0.0629578 115.894 0.0629578H116.74C126.042 0.0629578 130.799 2.66386 130.799 9.13957V9.5642C130.799 16.0399 126.042 18.6408 116.74 18.6408H115.894C106.592 18.6408 101.836 16.0399 101.836 9.5642ZM110.028 9.45805C110.028 12.2447 112.115 13.3329 115.815 13.3329H116.819C120.519 13.3329 122.607 12.2447 122.607 9.45805V9.24573C122.607 6.45905 120.519 5.37092 116.819 5.37092H115.815C112.115 5.37092 110.028 6.45905 110.028 9.24573V9.45805Z" fill="white"/>
<path d="M139.959 8.21068C139.959 11.767 141.571 13.3329 145.271 13.3329H145.905C149.605 13.3329 151.217 11.767 151.217 8.21068V0.328357H159.145V8.39645C159.145 15.9868 155.049 18.6408 146.011 18.6408H145.165C136.128 18.6408 132.032 15.9868 132.032 8.39645V0.328357H139.959V8.21068Z" fill="white"/>
<path d="M160.259 0.328357H187.003V6.16711H177.595V18.3754H169.667V6.16711H160.259V0.328357Z" fill="white"/>
<path d="M90.2292 38.6176H82.3013V26.4093H71.7043V38.6176H63.7764V20.5706H90.2292V38.6176Z" fill="white"/>
<path d="M117.248 27.4178C117.248 32.3542 114.183 33.9997 108.025 33.9997H99.8597V38.6176H91.9318V20.5706H108.025C114.183 20.5706 117.248 22.216 117.248 27.1524V27.4178ZM109.32 27.3117V27.2586C109.32 26.1705 108.528 25.8785 107.153 25.8785H99.8597V28.6918H107.153C108.528 28.6918 109.32 28.3998 109.32 27.3117Z" fill="white"/>
<path d="M118.275 29.8064V29.3818C118.275 22.9061 123.031 20.3052 132.333 20.3052H133.179C142.481 20.3052 147.238 22.9061 147.238 29.3818V29.8064C147.238 36.2821 142.481 38.883 133.179 38.883H132.333C123.031 38.883 118.275 36.2821 118.275 29.8064ZM126.467 29.7003C126.467 32.4869 128.554 33.5751 132.254 33.5751H133.258C136.958 33.5751 139.046 32.4869 139.046 29.7003V29.4879C139.046 26.7013 136.958 25.6131 133.258 25.6131H132.254C128.554 25.6131 126.467 26.7013 126.467 29.4879V29.7003Z" fill="white"/>
<path d="M148.656 38.6176V20.5706H171.911V25.8785H156.584V27.6036H169.638V31.5846H156.584V33.3097H171.911V38.6176H148.656Z" fill="white"/>
<path d="M188.68 38.6176L181.307 29.833V38.6176H173.379V20.5706H181.307V28.4529L188.917 20.5706H198.827L189.578 29.0368L198.774 38.6176H188.68Z" fill="white"/>
<path d="M198.97 20.5706H225.713V26.4093H216.306V38.6176H208.378V26.4093H198.97V20.5706Z" fill="white"/>
<path d="M44.7907 30.9256C44.7907 34.1304 44.7907 35.7328 43.978 36.8561C43.7156 37.2189 43.3979 37.5379 43.0367 37.8015C41.9181 38.6177 40.3226 38.6177 37.1315 38.6177H26.4893C24.9587 38.6177 24.1935 38.6177 23.7963 38.1989C23.6708 38.0665 23.5734 37.91 23.5099 37.7387C23.3092 37.1967 23.6445 36.5058 24.3152 35.1242L30.0287 23.3539C30.5996 22.1777 30.8851 21.5896 31.3636 21.2086C31.5207 21.0836 31.6911 20.9766 31.8718 20.8896C32.4225 20.6246 33.074 20.6246 34.3769 20.6246H41.5658C42.9094 20.6246 43.5812 20.6246 44.0521 20.9682C44.2042 21.0792 44.338 21.2135 44.4485 21.3663C44.7907 21.8392 44.7907 22.5139 44.7907 23.8633V30.9256Z" fill="white"/>
<path d="M21.9256 35.4335C21.2595 36.8057 20.9265 37.4918 20.3682 37.9363C20.185 38.0822 19.9862 38.207 19.7754 38.3084C19.1329 38.6177 18.3728 38.6177 16.8527 38.6177H2.97159C1.81773 38.6177 1.24081 38.6177 0.972811 38.3057C0.888715 38.2079 0.826612 38.0929 0.790729 37.9688C0.676379 37.5731 0.990797 37.0873 1.61963 36.1157L9.73827 23.5719C10.5659 22.2932 10.9797 21.6539 11.5771 21.2463C11.7738 21.1122 11.9832 20.998 12.2024 20.9055C12.8682 20.6246 13.6275 20.6246 15.1461 20.6246H25.2442C26.7748 20.6246 27.5401 20.6246 27.9372 21.0434C28.0627 21.1757 28.1601 21.3322 28.2236 21.5035C28.4244 22.0456 28.089 22.7364 27.4183 24.1181L21.9256 35.4335Z" fill="white" fill-opacity="0.5"/>
<path d="M46.6984 15.4281C45.8708 16.7068 45.457 17.3461 44.8596 17.7537C44.6629 17.8878 44.4534 18.002 44.2342 18.0945C43.5684 18.3754 42.8091 18.3754 41.2906 18.3754H31.1924C29.6619 18.3754 28.8966 18.3754 28.4994 17.9567C28.3739 17.8243 28.2765 17.6678 28.2131 17.4965C28.0123 16.9545 28.3476 16.2636 29.0183 14.8819L34.511 3.56652C35.1771 2.19429 35.5102 1.50818 36.0685 1.06368C36.2516 0.917834 36.4505 0.79302 36.6613 0.691566C37.3038 0.382355 38.0638 0.382355 39.5839 0.382355H53.4651C54.6189 0.382355 55.1958 0.382355 55.4638 0.69427C55.5479 0.792147 55.61 0.907076 55.6459 1.03123C55.7603 1.42688 55.4459 1.91268 54.817 2.88427L46.6984 15.4281Z" fill="white" fill-opacity="0.75"/>
<path d="M26.4075 15.6461C25.8365 16.8223 25.5511 17.4104 25.0725 17.7914C24.9155 17.9165 24.7451 18.0234 24.5644 18.1104C24.0137 18.3754 23.3622 18.3754 22.0593 18.3754H14.8704C13.5268 18.3754 12.855 18.3754 12.384 18.0318C12.2319 17.9208 12.0982 17.7865 11.9877 17.6337C11.6455 17.1608 11.6455 16.4861 11.6455 15.1367V8.0744C11.6455 4.86961 11.6455 3.26721 12.4582 2.1439C12.7206 1.78111 13.0383 1.46207 13.3995 1.19849C14.518 0.382355 16.1136 0.382355 19.3047 0.382355H29.9469C31.4774 0.382355 32.2427 0.382355 32.6399 0.801134C32.7654 0.933467 32.8628 1.09002 32.9262 1.2613C33.127 1.80334 32.7917 2.49417 32.121 3.87584L26.4075 15.6461Z" fill="white" fill-opacity="0.25"/>
</svg>
