<svg width="1920" height="1172" viewBox="0 0 1920 1172" fill="none" xmlns="http://www.w3.org/2000/svg">
<g filter="url(#filter0_f_1953_18652)">
<path d="M1556.98 331.881C1700.29 409.942 1717.28 503.911 1707.85 541.137C1690.77 655.746 1648.82 1154.08 1330.27 1212.75C1011.72 1271.42 983.804 983.39 1134.95 943.082C1286.1 902.774 1238.15 640.112 1227.9 531.263C1217.65 422.413 1377.83 234.305 1556.98 331.881Z" fill="#0E60FF"/>
</g>
<g filter="url(#filter1_f_1953_18652)">
<path d="M919.307 487.663C1207.14 512.516 1205.32 626.317 1168.44 680.11C977.002 768.602 938.13 625.767 910.405 763.775C882.679 901.782 1064.97 931.49 1190.2 1082.6C1315.42 1233.72 1279.87 1276.74 996.03 1223.67C768.962 1181.22 697.428 1033.26 690.044 964.589L614.337 649.764C596.064 585.375 631.476 462.81 919.307 487.663Z" fill="#0F5CF0"/>
</g>
<g opacity="0.8" filter="url(#filter2_f_1953_18652)">
<ellipse cx="1170.9" cy="812.009" rx="154.503" ry="617.233" transform="rotate(-37.4388 1170.9 812.009)" fill="#00CCFF"/>
</g>
<g filter="url(#filter3_f_1953_18652)">
<ellipse cx="56.8316" cy="629.571" rx="443.678" ry="203.311" transform="rotate(-69.8287 56.8316 629.571)" fill="#0038FF"/>
</g>
<defs>
<filter id="filter0_f_1953_18652" x="546.332" y="-195.318" width="1663.65" height="1915.92" filterUnits="userSpaceOnUse" color-interpolation-filters="sRGB">
<feFlood flood-opacity="0" result="BackgroundImageFix"/>
<feBlend mode="normal" in="SourceGraphic" in2="BackgroundImageFix" result="shape"/>
<feGaussianBlur stdDeviation="250" result="effect1_foregroundBlur_1953_18652"/>
</filter>
<filter id="filter1_f_1953_18652" x="210.361" y="84.385" width="1448.5" height="1561.02" filterUnits="userSpaceOnUse" color-interpolation-filters="sRGB">
<feFlood flood-opacity="0" result="BackgroundImageFix"/>
<feBlend mode="normal" in="SourceGraphic" in2="BackgroundImageFix" result="shape"/>
<feGaussianBlur stdDeviation="200" result="effect1_foregroundBlur_1953_18652"/>
</filter>
<filter id="filter2_f_1953_18652" x="376.021" y="-87.0864" width="1589.75" height="1798.19" filterUnits="userSpaceOnUse" color-interpolation-filters="sRGB">
<feFlood flood-opacity="0" result="BackgroundImageFix"/>
<feBlend mode="normal" in="SourceGraphic" in2="BackgroundImageFix" result="shape"/>
<feGaussianBlur stdDeviation="200" result="effect1_foregroundBlur_1953_18652"/>
</filter>
<filter id="filter3_f_1953_18652" x="-787.773" y="-392.821" width="1689.21" height="2044.78" filterUnits="userSpaceOnUse" color-interpolation-filters="sRGB">
<feFlood flood-opacity="0" result="BackgroundImageFix"/>
<feBlend mode="normal" in="SourceGraphic" in2="BackgroundImageFix" result="shape"/>
<feGaussianBlur stdDeviation="300" result="effect1_foregroundBlur_1953_18652"/>
</filter>
</defs>
</svg>
