<svg width="160" height="160" viewBox="0 0 160 160" fill="none" xmlns="http://www.w3.org/2000/svg">
<g clip-path="url(#clip0_3272_8744)">
<path d="M0 72C0 42.0021 0 27.0032 7.63932 16.4886C10.1065 13.0928 13.0928 10.1065 16.4886 7.63932C27.0032 0 42.0021 0 72 0H88C117.998 0 132.997 0 143.511 7.63932C146.907 10.1065 149.893 13.0928 152.361 16.4886C160 27.0032 160 42.0021 160 72V88C160 117.998 160 132.997 152.361 143.511C149.893 146.907 146.907 149.893 143.511 152.361C132.997 160 117.998 160 88 160H72C42.0021 160 27.0032 160 16.4886 152.361C13.0928 149.893 10.1065 146.907 7.63932 143.511C0 132.997 0 117.998 0 88V72Z" fill="white"/>
<path d="M118.305 106.296C118.305 113.672 118.305 117.36 116.426 119.946C115.82 120.781 115.085 121.515 114.25 122.122C111.665 124 107.977 124 100.601 124H76.0025C72.4648 124 70.6959 124 69.7779 123.036C69.4879 122.732 69.2627 122.371 69.116 121.977C68.6519 120.73 69.427 119.14 70.9772 115.96L84.1835 88.8698C85.5032 86.1627 86.1631 84.8092 87.2692 83.9323C87.6321 83.6446 88.0261 83.3984 88.4437 83.1982C89.7166 82.5882 91.2224 82.5882 94.234 82.5882H110.851C113.956 82.5882 115.509 82.5882 116.598 83.3791C116.949 83.6345 117.258 83.9437 117.514 84.2953C118.305 85.3839 118.305 86.9367 118.305 90.0423V106.296Z" fill="#071855"/>
<path d="M65.4539 116.672C63.9143 119.83 63.1445 121.409 61.854 122.432C61.4306 122.768 60.971 123.055 60.4837 123.288C58.9987 124 57.2419 124 53.7284 124H21.6432C18.9762 124 17.6427 124 17.0232 123.282C16.8288 123.057 16.6853 122.792 16.6023 122.507C16.338 121.596 17.0648 120.478 18.5183 118.242L37.2838 89.3717C39.1968 86.4287 40.1532 84.9572 41.5341 84.0192C41.9887 83.7105 42.4729 83.4477 42.9795 83.2348C44.5185 82.5882 46.2735 82.5882 49.7836 82.5882H73.1246C76.6623 82.5882 78.4312 82.5882 79.3492 83.5521C79.6392 83.8566 79.8644 84.2169 80.0111 84.6112C80.4752 85.8587 79.7001 87.4487 78.1498 90.6286L65.4539 116.672Z" fill="#1F65F0"/>
<path d="M122.714 70.6283C120.801 73.5713 119.845 75.0428 118.464 75.9807C118.009 76.2895 117.525 76.5523 117.019 76.7651C115.48 77.4118 113.725 77.4118 110.215 77.4118H86.8736C83.3359 77.4118 81.567 77.4118 80.649 76.4479C80.3589 76.1434 80.1338 75.783 79.9871 75.3888C79.523 74.1413 80.2981 72.5513 81.8483 69.3714L94.5442 43.3285C96.0839 40.1702 96.8537 38.5911 98.1442 37.5681C98.5676 37.2324 99.0272 36.9452 99.5145 36.7117C101 36 102.756 36 106.27 36H138.355C141.022 36 142.356 36 142.975 36.7179C143.169 36.9432 143.313 37.2077 143.396 37.4934C143.66 38.404 142.933 39.5221 141.48 41.7583L122.714 70.6283Z" fill="#F83D6A"/>
<path d="M75.8144 71.1302C74.4948 73.8373 73.8349 75.1908 72.7288 76.0677C72.3659 76.3554 71.9719 76.6016 71.5543 76.8018C70.2814 77.4118 68.7756 77.4118 65.7639 77.4118H49.1475C46.0418 77.4118 44.489 77.4118 43.4004 76.6209C43.0488 76.3654 42.7397 76.0563 42.4843 75.7047C41.6934 74.6161 41.6934 73.0633 41.6934 69.9576V53.7035C41.6934 46.3276 41.6934 42.6396 43.5717 40.0543C44.1784 39.2193 44.9126 38.485 45.7476 37.8784C48.333 36 52.0209 36 59.3969 36H83.9955C87.5332 36 89.3021 36 90.22 36.9638C90.5101 37.2684 90.7353 37.6287 90.882 38.0229C91.3461 39.2704 90.571 40.8604 89.0207 44.0404L75.8144 71.1302Z" fill="#E1E9F5"/>
</g>
<defs>
<clipPath id="clip0_3272_8744">
<rect width="160" height="160" fill="white"/>
</clipPath>
</defs>
</svg>
