<svg width="69" height="16" viewBox="0 0 69 16" fill="none" xmlns="http://www.w3.org/2000/svg">
<g id="Vector">
<path fill-rule="evenodd" clip-rule="evenodd" d="M11.4132 1.32461V9.05834C11.4132 11.6409 10.2661 12.7133 7.57294 12.7133C4.88076 12.7133 3.73264 11.6409 3.73264 9.05834V0.98584H1.13968C0.912442 0.98584 0.799316 1.09891 0.799316 1.32461V9.18523C0.799316 13.504 3.56295 15.014 7.57294 15.014C11.5839 15.014 14.3466 13.504 14.3466 9.18523V0.98584H11.7536C11.5274 0.98584 11.4132 1.09891 11.4132 1.32461Z" fill="white"/>
<path fill-rule="evenodd" clip-rule="evenodd" d="M49.0064 3.22984C49.2187 3.22984 49.318 3.15936 49.3884 3.00392L50.1396 1.1551C50.1823 1.0425 50.1396 0.98584 50.0265 0.98584H39.5822C38.6048 0.98584 38.2366 1.28223 38.2366 1.94548V13.9553C38.2366 14.52 38.5195 14.774 39.2706 14.774H49.0064C49.2187 14.774 49.318 14.7033 49.3884 14.5484L50.1396 12.6993C50.1823 12.5864 50.1396 12.53 50.0265 12.53H41.1134V10.0885C41.1134 9.24166 41.5808 8.86049 42.841 8.86049H46.7101C46.9235 8.86049 47.0217 8.79033 47.0932 8.63508L47.8156 6.85675C47.8583 6.74369 47.8156 6.68746 47.7025 6.68746H41.1134V3.22984H49.0064Z" fill="white"/>
<path fill-rule="evenodd" clip-rule="evenodd" d="M27.9018 12.5585H22.7844V10.0321C22.7844 9.18532 23.2518 8.80446 24.514 8.80446H27.9018C29.5312 8.80446 29.9847 9.42527 29.9847 10.6956C29.9847 11.9657 29.5312 12.5585 27.9018 12.5585ZM22.7844 3.2016H27.363C28.8941 3.2016 29.3189 3.77573 29.3189 4.96566C29.3189 6.15579 28.8941 6.72996 27.363 6.72996H22.7844V3.2016ZM30.6227 7.50595C31.756 6.91321 32.2234 5.79838 32.2234 4.4859C32.2234 1.43747 29.7297 0.985869 27.1506 0.985869H21.2552C20.2777 0.985869 19.9096 1.28226 19.9096 1.9455V13.9554C19.9096 14.52 20.1924 14.774 20.9436 14.774H28.1995C30.9343 14.774 32.8902 13.7156 32.8902 10.9636C32.8902 9.31244 32.1817 7.91518 30.6227 7.50595Z" fill="white"/>
<path fill-rule="evenodd" clip-rule="evenodd" d="M62.8312 7.3789H58.0135V3.20181H62.8312C64.6313 3.20181 65.0282 3.89315 65.0282 5.29037C65.0282 6.70157 64.6313 7.3789 62.8312 7.3789ZM68.2448 14.5341L65.1418 9.22765C66.6869 8.83265 67.9332 7.81665 67.9332 5.2339C67.9332 1.88931 65.8503 0.985869 62.407 0.985869H56.4838C55.5053 0.985869 55.1372 1.28226 55.1372 1.9455V14.4354C55.1372 14.661 55.2503 14.774 55.4775 14.774H58.0139V10.752C58.0139 9.90519 58.4813 9.52402 59.7426 9.52402H62.2938L65.0992 14.5484C65.1845 14.6893 65.2698 14.774 65.4822 14.774H68.1178C68.3024 14.774 68.3024 14.6186 68.2448 14.5341Z" fill="white"/>
</g>
</svg>
